<?xml version="1.0" encoding="UTF-8"?>
<svg id="Layer_2" data-name="Layer 2" xmlns="http://www.w3.org/2000/svg" viewBox="0 0 222.4 141.1">
  <defs>
    <style>
      .cls-1 {
        font-size: 13.47px;
      }

      .cls-1, .cls-2, .cls-3, .cls-4 {
        font-family: GillSans, 'Gill Sans';
      }

      .cls-1, .cls-2, .cls-3, .cls-4, .cls-5, .cls-6 {
        fill: #4f4c6b;
      }

      .cls-2 {
        font-size: 13.47px;
      }

      .cls-3 {
        font-size: 13.47px;
      }

      .cls-4 {
        font-size: 13.47px;
      }

      .cls-5 {
        stroke: #e86353;
        stroke-width: 8px;
      }

      .cls-5, .cls-7 {
        stroke-miterlimit: 10;
      }

      .cls-7 {
        fill: #6ab3df;
        stroke: #272635;
      }

      .cls-8 {
        fill: #f6edef;
      }

      .cls-8, .cls-6, .cls-9, .cls-10, .cls-11 {
        stroke-width: 0px;
      }

      .cls-9 {
        fill: #272635;
      }

      .cls-10 {
        fill: #d3ccdd;
      }

      .cls-11 {
        fill: #e86353;
      }
    </style>
  </defs>
  <g id="Layer_1-2" data-name="Layer 1">
    <path class="cls-9" d="m94.36,73.26c0-.52.31-1,.83-1.16.46-.15.95-.01,1.26.32.17-.42.57-.73,1.06-.76.41-.02.78.16,1.02.45.27-.26.66-.4,1.06-.33.53.1.91.53.98,1.04.36-.36.92-.48,1.4-.24.43.22.68.66.67,1.12.42-.18.92-.12,1.29.21.3.27.43.66.39,1.04.38,0,.75.18.98.52.31.44.28,1.02-.03,1.43.51,0,.99.31,1.16.82.15.46.01.95-.32,1.26.42.17.73.57.76,1.06.02.41-.16.78-.45,1.02.26.27.4.66.33,1.06-.1.53-.53.91-1.04.98.36.36.48.92.24,1.4-.22.43-.66.68-1.12.67.18.42.12.92-.21,1.29-.27.3-.66.43-1.04.39,0,.38-.18.75-.52.98-.44.31-1.02.28-1.43-.03,0,.51-.31.99-.82,1.16-.46.16-.95.01-1.26-.32-.17.42-.57.73-1.06.76-.41.02-.78-.16-1.02-.45-.27.26-.66.4-1.06.33-.53-.1-.91-.53-.98-1.04-.36.36-.92.48-1.4.24-.43-.22-.68-.66-.67-1.12-.42.18-.92.12-1.29-.21-.3-.27-.43-.66-.39-1.04-.38,0-.75-.18-.98-.52-.31-.44-.28-1.02.04-1.42-.51,0-.99-.32-1.16-.83-.16-.46-.01-.95.32-1.26-.42-.17-.73-.57-.76-1.06-.02-.41.16-.78.45-1.02-.26-.27-.4-.66-.33-1.06.1-.53.53-.91,1.04-.98-.36-.36-.48-.92-.24-1.4.22-.43.66-.68,1.12-.67-.18-.42-.12-.92.21-1.29.27-.3.66-.43,1.04-.39,0-.38.18-.75.52-.98.44-.31,1.02-.28,1.42.04Z"/>
    <path class="cls-10" d="m92.15,103.46l30.34-21.03-17.11-24.69c-8.73,6.05-18.8,6.66-22.49,1.34l15.82-10.97-18.49-26.68-30.34,21.03,42.28,60.99Zm4.15-39.84c3.47-.94,7.08-1.03,10.53-.31l12.95,18.68-27.08,18.77-12.95-18.68c.55-3.48,1.89-6.83,3.99-9.75,1.48-2.06,3.33-3.91,5.53-5.44s4.59-2.61,7.03-3.28Z"/>
    <path class="cls-8" d="m68.37,69.14l30.34-21.03-18.49-26.68-30.34,21.03,18.49,26.68Z"/>
    <path class="cls-8" d="m83.73,72.33c-2.1,2.92-3.44,6.27-3.99,9.75l12.96,18.69,27.08-18.77-12.96-18.69c-3.44-.71-7.06-.63-10.53.31-2.45.66-4.83,1.75-7.03,3.28s-4.06,3.38-5.53,5.44Z"/>
    <path class="cls-6" d="m52.59,42.9l27.08-18.77,7.63,11.01c-.93,5.93-4.19,11.49-9.52,15.19s-11.67,4.8-17.56,3.59l-7.63-11.01Z"/>
    <path class="cls-10" d="m91.73,79.93c0-.52.31-1,.83-1.16.46-.15.95-.01,1.26.32.17-.42.57-.73,1.06-.76.41-.02.78.16,1.02.45.27-.26.66-.4,1.06-.33.53.1.91.53.98,1.04.36-.36.92-.48,1.4-.24.43.22.68.66.67,1.12.42-.18.92-.12,1.29.21.3.27.43.66.39,1.04.38,0,.75.18.98.52.31.44.28,1.02-.03,1.43.51,0,.99.31,1.16.82.15.46.01.95-.32,1.26.42.17.73.57.76,1.06.02.41-.16.78-.45,1.02.26.27.4.66.33,1.06-.1.53-.53.91-1.04.98.36.36.48.92.24,1.4-.22.43-.66.68-1.12.67.18.42.12.92-.21,1.29-.27.3-.66.43-1.04.39,0,.38-.18.75-.52.98-.44.31-1.02.28-1.43-.03,0,.51-.31.99-.82,1.16-.46.16-.95.01-1.26-.32-.17.42-.57.73-1.06.76-.41.02-.78-.16-1.02-.45-.27.26-.66.4-1.06.33-.53-.1-.91-.53-.98-1.04-.36.36-.92.48-1.4.24-.43-.22-.68-.66-.67-1.12-.42.18-.92.12-1.29-.21-.3-.27-.43-.66-.39-1.04-.38,0-.75-.18-.98-.52-.31-.44-.28-1.02.04-1.42-.51,0-.99-.32-1.16-.83-.16-.46-.01-.95.32-1.26-.42-.17-.73-.57-.76-1.06-.02-.41.16-.78.45-1.02-.26-.27-.4-.66-.33-1.06.1-.53.53-.91,1.04-.98-.36-.36-.48-.92-.24-1.4.22-.43.66-.68,1.12-.67-.18-.42-.12-.92.21-1.29.27-.3.66-.43,1.04-.39,0-.38.18-.75.52-.98.44-.31,1.02-.28,1.42.04Z"/>
    <path class="cls-6" d="m97.39,65.13c.46-.15.95-.01,1.26.32.17-.42.57-.73,1.06-.76.41-.02.78.16,1.02.45.27-.26.66-.4,1.06-.33.53.1.91.53.98,1.04.36-.36.92-.48,1.4-.24.43.22.68.66.67,1.12.42-.18.92-.12,1.29.21.3.27.43.66.39,1.04.38,0,.75.18.98.52.31.44.28,1.02-.03,1.43.51,0,.99.31,1.16.82.15.46.01.95-.32,1.26.42.17.73.57.76,1.06.02.41-.16.78-.45,1.02.26.27.4.66.33,1.06-.1.53-.53.91-1.04.98.36.36.48.92.24,1.4-.22.43-.66.68-1.12.67.18.42.12.92-.21,1.29-.27.3-.66.43-1.04.39,0,.38-.18.75-.52.98-.44.31-1.02.28-1.43-.03,0,.51-.31.99-.82,1.16-.46.16-.95.01-1.26-.32-.17.42-.57.73-1.06.76-.41.02-.78-.16-1.02-.45-.27.26-.66.4-1.06.33-.53-.1-.91-.53-.98-1.04-.36.36-.92.48-1.4.24-.43-.22-.68-.66-.67-1.12-.42.18-.92.12-1.29-.21-.3-.27-.43-.66-.39-1.04-.38,0-.75-.18-.98-.52-.31-.44-.28-1.02.04-1.42-.51,0-.99-.32-1.16-.83-.16-.46-.01-.95.32-1.26-.42-.17-.73-.57-.76-1.06-.02-.41.16-.78.45-1.02-.26-.27-.4-.66-.33-1.06.1-.53.53-.91,1.04-.98-.36-.36-.48-.92-.24-1.4.22-.43.66-.68,1.12-.67-.18-.42-.12-.92.21-1.29.27-.3.66-.43,1.04-.39,0-.38.18-.75.52-.98.44-.31,1.02-.28,1.42.04,0-.52.31-1,.83-1.16Z"/>
    <circle class="cls-10" cx="100.2" cy="73.55" r="5.78"/>
    <text class="cls-4" transform="translate(101 88.6) rotate(-124.73)"><tspan x="0" y="0">£</tspan></text>
    <circle class="cls-6" cx="114.56" cy="81.39" r="2.1"/>
    <circle class="cls-10" cx="113.21" cy="79.44" r="2.1"/>
    <circle class="cls-6" cx="111.85" cy="77.48" r="2.1"/>
    <path class="cls-8" d="m82.89,59.08l15.82-10.97,6.67,9.62c-8.73,6.05-18.8,6.66-22.49,1.34Z"/>
    <path class="cls-10" d="m92.04,38.49l6.67,9.62-15.82,10.97c-3.69-5.32.41-14.53,9.15-20.59Z"/>
    <rect class="cls-6" x="63.34" y="65.63" width="15.74" height="3" transform="translate(56.6 163.9) rotate(-124.73)"/>
    <rect class="cls-6" x="64.78" y="63.34" width="19.47" height="3" transform="translate(63.69 163.02) rotate(-124.73)"/>
    <rect class="cls-6" x="71.86" y="61.03" width="11.98" height="3" transform="translate(70.82 162.13) rotate(-124.73)"/>
    <rect class="cls-10" x="91.79" y="56.92" width="10.29" height="1.17" transform="translate(209.36 49.55) rotate(145.27)"/>
    <rect class="cls-10" x="88.66" y="56.31" width="12.73" height="1.17" transform="translate(205.54 49.53) rotate(145.27)"/>
    <rect class="cls-10" x="92.22" y="53.62" width="7.83" height="1.17" transform="translate(206.02 43.98) rotate(145.27)"/>
    <circle class="cls-8" cx="67.94" cy="50.22" r="1.7"/>
    <circle class="cls-10" cx="67.25" cy="45.82" r="1.7"/>
    <circle class="cls-10" cx="71.51" cy="47.75" r="1.7"/>
    <circle class="cls-8" cx="71.01" cy="43.59" r="1.7"/>
    <circle class="cls-10" cx="70.33" cy="39.19" r="1.7"/>
    <circle class="cls-10" cx="74.58" cy="41.12" r="1.7"/>
    <circle class="cls-8" cx="74.14" cy="36.92" r="1.7"/>
    <circle class="cls-10" cx="73.45" cy="32.52" r="1.7"/>
    <circle class="cls-10" cx="77.71" cy="34.45" r="1.7"/>
    <path class="cls-9" d="m132.7,76.11c.44-.28,1.01-.25,1.42.09.37.31.51.8.39,1.24.45-.07.92.1,1.2.5.23.33.27.74.15,1.1.36.09.68.35.83.73.19.51.03,1.05-.37,1.38.5.11.89.53.94,1.07.04.49-.21.92-.6,1.15.38.26.58.72.5,1.21-.07.4-.34.72-.68.88.19.32.24.73.07,1.11-.22.49-.72.77-1.23.72.27.43.25,1-.1,1.42-.31.37-.8.51-1.24.39.07.45-.1.92-.5,1.2-.33.23-.74.27-1.1.15-.09.36-.35.68-.73.83-.5.2-1.05.03-1.38-.37-.11.5-.53.89-1.07.94-.49.04-.92-.21-1.15-.6-.26.38-.72.58-1.21.5-.4-.07-.72-.34-.88-.68-.32.2-.73.24-1.11.07-.49-.22-.77-.72-.72-1.23-.43.27-1,.25-1.42-.1-.37-.31-.51-.8-.39-1.24-.45.07-.92-.1-1.2-.5-.23-.33-.27-.74-.15-1.1-.36-.09-.68-.35-.83-.73-.2-.5-.03-1.05.37-1.38-.5-.11-.89-.53-.94-1.07-.04-.49.21-.92.6-1.15-.38-.26-.58-.72-.5-1.21.07-.4.34-.71.68-.88-.2-.32-.24-.73-.07-1.11.22-.49.72-.77,1.23-.71-.27-.44-.25-1.01.1-1.42.31-.37.8-.51,1.24-.39-.07-.45.1-.92.5-1.2.33-.23.74-.27,1.1-.15.09-.36.35-.68.73-.83.5-.2,1.05-.03,1.38.37.11-.5.53-.89,1.07-.94.49-.04.92.21,1.15.6.26-.38.72-.58,1.21-.5.4.07.72.34.88.68.32-.19.73-.24,1.11-.07.49.22.77.72.71,1.23Z"/>
    <path class="cls-10" d="m105.82,90.04l33.81,14.83,12.06-27.51c-9.73-4.27-15.52-12.53-12.92-18.45l17.63,7.73,13.04-29.73-33.81-14.83-29.8,67.96Zm36.11-17.33c2.62,2.46,4.58,5.5,5.78,8.8l-9.13,20.82-30.18-13.23,9.13-20.82c3.25-1.36,6.81-1.97,10.39-1.71,2.53.18,5.07.79,7.53,1.87s4.63,2.54,6.47,4.28Z"/>
    <path class="cls-8" d="m122.59,51.81l33.81,14.83,13.04-29.73-33.81-14.83-13.04,29.73Z"/>
    <path class="cls-8" d="m127.92,66.57c-3.59-.26-7.14.35-10.39,1.71l-9.13,20.83,30.18,13.23,9.13-20.83c-1.2-3.31-3.16-6.34-5.78-8.8-1.85-1.74-4.02-3.2-6.47-4.28s-5-1.69-7.53-1.87Z"/>
    <path class="cls-6" d="m136.68,24.62l30.18,13.23-5.38,12.26c-5.54,2.32-11.99,2.45-17.92-.16s-10.2-7.43-12.26-13.08l5.38-12.26Z"/>
    <path class="cls-10" d="m125.64,77.36c.44-.28,1.01-.25,1.42.09.37.31.51.8.39,1.24.45-.07.92.1,1.2.5.23.33.27.74.15,1.1.36.09.68.35.83.73.19.51.03,1.05-.37,1.38.5.11.89.53.94,1.07.04.49-.21.92-.6,1.15.38.26.58.72.5,1.21-.07.4-.34.72-.68.88.19.32.24.73.07,1.11-.22.49-.72.77-1.23.72.27.43.25,1-.1,1.42-.31.37-.8.51-1.24.39.07.45-.1.92-.5,1.2-.33.23-.74.27-1.1.15-.09.36-.35.68-.73.83-.5.2-1.05.03-1.38-.37-.11.5-.53.89-1.07.94-.49.04-.92-.21-1.15-.6-.26.38-.72.58-1.21.5-.4-.07-.72-.34-.88-.68-.32.2-.73.24-1.11.07-.49-.22-.77-.72-.72-1.23-.43.27-1,.25-1.42-.1-.37-.31-.51-.8-.39-1.24-.45.07-.92-.1-1.2-.5-.23-.33-.27-.74-.15-1.1-.36-.09-.68-.35-.83-.73-.2-.5-.03-1.05.37-1.38-.5-.11-.89-.53-.94-1.07-.04-.49.21-.92.6-1.15-.38-.26-.58-.72-.5-1.21.07-.4.34-.71.68-.88-.2-.32-.24-.73-.07-1.11.22-.49.72-.77,1.23-.71-.27-.44-.25-1.01.1-1.42.31-.37.8-.51,1.24-.39-.07-.45.1-.92.5-1.2.33-.23.74-.27,1.1-.15.09-.36.35-.68.73-.83.5-.2,1.05-.03,1.38.37.11-.5.53-.89,1.07-.94.49-.04.92.21,1.15.6.26-.38.72-.58,1.21-.5.4.07.72.34.88.68.32-.19.73-.24,1.11-.07.49.22.77.72.71,1.23Z"/>
    <path class="cls-6" d="m141.21,74.43c.37.31.51.8.39,1.24.45-.07.92.1,1.2.5.23.33.27.74.15,1.1.36.09.68.35.83.73.19.51.03,1.05-.37,1.38.5.11.89.53.94,1.07.04.49-.21.92-.6,1.15.38.26.58.72.5,1.21-.07.4-.34.72-.68.88.19.32.24.73.07,1.11-.22.49-.72.77-1.23.72.27.43.25,1-.1,1.42-.31.37-.8.51-1.24.39.07.45-.1.92-.5,1.2-.33.23-.74.27-1.1.15-.09.36-.35.68-.73.83-.5.2-1.05.03-1.38-.37-.11.5-.53.89-1.07.94-.49.04-.92-.21-1.15-.6-.26.38-.72.58-1.21.5-.4-.07-.72-.34-.88-.68-.32.2-.73.24-1.11.07-.49-.22-.77-.72-.72-1.23-.43.27-1,.25-1.42-.1-.37-.31-.51-.8-.39-1.24-.45.07-.92-.1-1.2-.5-.23-.33-.27-.74-.15-1.1-.36-.09-.68-.35-.83-.73-.2-.5-.03-1.05.37-1.38-.5-.11-.89-.53-.94-1.07-.04-.49.21-.92.6-1.15-.38-.26-.58-.72-.5-1.21.07-.4.34-.71.68-.88-.2-.32-.24-.73-.07-1.11.22-.49.72-.77,1.23-.71-.27-.44-.25-1.01.1-1.42.31-.37.8-.51,1.24-.39-.07-.45.1-.92.5-1.2.33-.23.74-.27,1.1-.15.09-.36.35-.68.73-.83.5-.2,1.05-.03,1.38.37.11-.5.53-.89,1.07-.94.49-.04.92.21,1.15.6.26-.38.72-.58,1.21-.5.4.07.72.34.88.68.32-.19.73-.24,1.11-.07.49.22.77.72.71,1.23.44-.28,1.01-.25,1.42.09Z"/>
    <circle class="cls-10" cx="135.51" cy="81.23" r="5.78"/>
    <text class="cls-2" transform="translate(123.08 89.78) rotate(-66.32)"><tspan x="0" y="0">£</tspan></text>
    <circle class="cls-6" cx="136.36" cy="97.58" r="2.1"/>
    <circle class="cls-10" cx="137.31" cy="95.4" r="2.1"/>
    <circle class="cls-6" cx="138.27" cy="93.22" r="2.1"/>
    <path class="cls-8" d="m138.77,58.91l17.63,7.73-4.7,10.72c-9.73-4.27-15.52-12.53-12.92-18.45Z"/>
    <path class="cls-10" d="m161.1,55.91l-4.7,10.72-17.63-7.73c2.6-5.92,12.6-7.26,22.33-3Z"/>
    <rect class="cls-6" x="117.92" y="51.67" width="15.74" height="3" transform="translate(26.58 147.02) rotate(-66.32)"/>
    <rect class="cls-6" x="119.74" y="53.29" width="19.47" height="3" transform="translate(27.3 151.37) rotate(-66.32)"/>
    <rect class="cls-6" x="127.2" y="54.92" width="11.98" height="3" transform="translate(28.03 155.74) rotate(-66.32)"/>
    <rect class="cls-10" x="142.32" y="69.46" width="10.29" height="1.17" transform="translate(254.39 193.41) rotate(-156.32)"/>
    <rect class="cls-10" x="140.62" y="67.51" width="12.73" height="1.17" transform="translate(254.24 189.5) rotate(-156.32)"/>
    <rect class="cls-10" x="145.95" y="67.05" width="7.83" height="1.17" transform="translate(259.95 189.76) rotate(-156.32)"/>
    <circle class="cls-8" cx="138.48" cy="41.53" r="1.7"/>
    <circle class="cls-10" cx="141.87" cy="38.64" r="1.7"/>
    <circle class="cls-10" cx="142.46" cy="43.27" r="1.7"/>
    <circle class="cls-8" cx="145.74" cy="40.67" r="1.7"/>
    <circle class="cls-10" cx="149.13" cy="37.79" r="1.7"/>
    <circle class="cls-10" cx="149.72" cy="42.42" r="1.7"/>
    <circle class="cls-8" cx="153.06" cy="39.84" r="1.7"/>
    <circle class="cls-10" cx="156.45" cy="36.95" r="1.7"/>
    <circle class="cls-10" cx="157.04" cy="41.59" r="1.7"/>
    <path class="cls-9" d="m120.17,26.01c-.35.38-.91.51-1.4.28-.44-.21-.7-.64-.7-1.1-.41.19-.92.14-1.29-.18-.31-.26-.46-.65-.42-1.03-.38,0-.75-.16-.99-.49-.32-.44-.3-1.01,0-1.43-.51.02-1-.28-1.18-.79-.16-.46-.04-.95.29-1.27-.43-.16-.75-.55-.79-1.04-.03-.41.14-.78.43-1.02-.27-.26-.42-.65-.36-1.05.08-.53.5-.93,1.01-1.01-.37-.35-.5-.91-.27-1.39.21-.44.64-.7,1.1-.7-.19-.41-.14-.92.18-1.29.26-.31.65-.46,1.03-.42,0-.38.16-.75.49-.99.43-.32,1.01-.3,1.43,0-.02-.51.28-1,.79-1.18.46-.16.95-.04,1.27.29.16-.43.55-.75,1.04-.79.41-.03.78.14,1.02.43.26-.28.65-.42,1.05-.36.53.08.93.5,1.01,1.01.35-.37.91-.5,1.39-.27.44.2.7.64.7,1.1.41-.19.92-.14,1.29.18.31.26.46.65.42,1.03.38,0,.75.16.99.49.32.43.3,1.01,0,1.43.51-.02,1,.28,1.18.79.16.46.04.95-.29,1.27.43.16.75.55.79,1.04.03.41-.14.78-.43,1.02.28.26.42.65.36,1.05-.08.53-.5.93-1.01,1.01.37.35.5.91.27,1.4-.2.44-.64.7-1.1.7.19.41.14.92-.18,1.29-.26.31-.65.46-1.03.42,0,.38-.16.75-.49.99-.43.32-1.01.3-1.43,0,.02.51-.28,1-.79,1.18-.46.16-.95.04-1.27-.29-.16.43-.55.75-1.04.79-.41.03-.78-.14-1.02-.43-.26.27-.65.42-1.05.36-.53-.08-.93-.5-1-1.01Z"/>
    <path class="cls-10" d="m142.55,5.62L106.06,0l-4.57,29.69c10.5,1.62,18.22,8.11,17.24,14.5l-19.02-2.93-4.94,32.08,36.49,5.62,11.3-73.34Zm-30.43,26.05c-3.16-1.71-5.84-4.13-7.85-7.02l3.46-22.47,32.57,5.02-3.46,22.47c-2.79,2.15-6.07,3.65-9.6,4.33-2.49.48-5.1.55-7.76.14-2.65-.41-5.13-1.26-7.36-2.46Z"/>
    <path class="cls-8" d="m136.19,46.88l-36.49-5.62-4.94,32.08,36.49,5.62,4.94-32.08Z"/>
    <path class="cls-8" d="m127.24,34c3.53-.68,6.81-2.18,9.6-4.33l3.46-22.47-32.57-5.02-3.46,22.47c2.01,2.89,4.69,5.31,7.85,7.02,2.23,1.2,4.7,2.06,7.36,2.46,2.65.41,5.27.34,7.76-.14Z"/>
    <path class="cls-6" d="m129.58,76.78l-32.57-5.02,2.04-13.24c4.76-3.67,10.95-5.45,17.36-4.46,6.4.99,11.77,4.55,15.21,9.48l-2.04,13.24Z"/>
    <path class="cls-10" d="m126.67,22.97c-.35.38-.91.51-1.4.28-.44-.21-.7-.64-.7-1.1-.41.19-.92.14-1.29-.18-.31-.26-.46-.65-.42-1.03-.38,0-.75-.16-.99-.49-.32-.44-.3-1.01,0-1.43-.51.02-1-.28-1.18-.79-.16-.46-.04-.95.29-1.27-.43-.16-.75-.55-.79-1.04-.03-.41.14-.78.43-1.02-.27-.26-.42-.65-.36-1.05.08-.53.5-.93,1.01-1.01-.37-.35-.5-.91-.27-1.39.21-.44.64-.7,1.1-.7-.19-.41-.14-.92.18-1.29.26-.31.65-.46,1.03-.42,0-.38.16-.75.49-.99.43-.32,1.01-.3,1.43,0-.02-.51.28-1,.79-1.18.46-.16.95-.04,1.27.29.16-.43.55-.75,1.04-.79.41-.03.78.14,1.02.43.26-.28.65-.42,1.05-.36.53.08.93.5,1.01,1.01.35-.37.91-.5,1.39-.27.44.2.7.64.7,1.1.41-.19.92-.14,1.29.18.31.26.46.65.42,1.03.38,0,.75.16.99.49.32.43.3,1.01,0,1.43.51-.02,1,.28,1.18.79.16.46.04.95-.29,1.27.43.16.75.55.79,1.04.03.41-.14.78-.43,1.02.28.26.42.65.36,1.05-.08.53-.5.93-1.01,1.01.37.35.5.91.27,1.4-.2.44-.64.7-1.1.7.19.41.14.92-.18,1.29-.26.31-.65.46-1.03.42,0,.38-.16.75-.49.99-.43.32-1.01.3-1.43,0,.02.51-.28,1-.79,1.18-.46.16-.95.04-1.27-.29-.16.43-.55.75-1.04.79-.41.03-.78-.14-1.02-.43-.26.27-.65.42-1.05.36-.53-.08-.93-.5-1-1.01Z"/>
    <path class="cls-6" d="m112.38,29.82c-.44-.21-.7-.64-.7-1.1-.41.19-.92.14-1.29-.18-.31-.26-.46-.65-.42-1.03-.38,0-.75-.16-.99-.49-.32-.44-.3-1.01,0-1.43-.51.02-1-.28-1.18-.79-.16-.46-.04-.95.29-1.27-.43-.16-.75-.55-.79-1.04-.03-.41.14-.78.43-1.02-.27-.26-.42-.65-.36-1.05.08-.53.5-.93,1.01-1.01-.37-.35-.5-.91-.27-1.39.21-.44.64-.7,1.1-.7-.19-.41-.14-.92.18-1.29.26-.31.65-.46,1.03-.42,0-.38.16-.75.49-.99.43-.32,1.01-.3,1.43,0-.02-.51.28-1,.79-1.18.46-.16.95-.04,1.27.29.16-.43.55-.75,1.04-.79.41-.03.78.14,1.02.43.26-.28.65-.42,1.05-.36.53.08.93.5,1.01,1.01.35-.37.91-.5,1.39-.27.44.2.7.64.7,1.1.41-.19.92-.14,1.29.18.31.26.46.65.42,1.03.38,0,.75.16.99.49.32.43.3,1.01,0,1.43.51-.02,1,.28,1.18.79.16.46.04.95-.29,1.27.43.16.75.55.79,1.04.03.41-.14.78-.43,1.02.28.26.42.65.36,1.05-.08.53-.5.93-1.01,1.01.37.35.5.91.27,1.4-.2.44-.64.7-1.1.7.19.41.14.92-.18,1.29-.26.31-.65.46-1.03.42,0,.38-.16.75-.49.99-.43.32-1.01.3-1.43,0,.02.51-.28,1-.79,1.18-.46.16-.95.04-1.27-.29-.16.43-.55.75-1.04.79-.41.03-.78-.14-1.02-.43-.26.27-.65.42-1.05.36-.53-.08-.93-.5-1-1.01-.35.38-.91.51-1.4.28Z"/>
    <circle class="cls-10" cx="116.13" cy="21.78" r="5.78"/>
    <text class="cls-1" transform="translate(125.86 10.3) rotate(98.76)"><tspan x="0" y="0">£</tspan></text>
    <circle class="cls-6" cx="111.11" cy="6.2" r="2.1"/>
    <circle class="cls-10" cx="110.75" cy="8.55" r="2.1"/>
    <circle class="cls-6" cx="110.38" cy="10.9" r="2.1"/>
    <path class="cls-8" d="m118.73,44.19l-19.02-2.93,1.78-11.57c10.5,1.62,18.22,8.11,17.24,14.5Z"/>
    <path class="cls-10" d="m97.92,52.84l1.78-11.57,19.02,2.93c-.98,6.39-10.3,10.26-20.8,8.64Z"/>
    <rect class="cls-6" x="124.88" y="44.89" width="15.74" height="3" transform="translate(198.81 -77.75) rotate(98.76)"/>
    <rect class="cls-6" x="119.03" y="44.28" width="19.47" height="3" transform="translate(193.61 -74.52) rotate(98.76)"/>
    <rect class="cls-6" x="118.77" y="43.66" width="11.98" height="3" transform="translate(188.39 -71.27) rotate(98.76)"/>
    <rect class="cls-10" x="102.32" y="35.08" width="10.29" height="1.17" transform="translate(6.68 -15.94) rotate(8.76)"/>
    <rect class="cls-10" x="102.06" y="36.84" width="12.73" height="1.17" transform="translate(6.96 -16.07) rotate(8.76)"/>
    <rect class="cls-10" x="101.85" y="38.03" width="7.83" height="1.17" transform="translate(7.11 -15.65) rotate(8.76)"/>
    <circle class="cls-8" cx="123.49" cy="60.91" r="1.7"/>
    <circle class="cls-10" cx="120.95" cy="64.57" r="1.7"/>
    <circle class="cls-10" cx="119.19" cy="60.25" r="1.7"/>
    <circle class="cls-8" cx="116.69" cy="63.6" r="1.7"/>
    <circle class="cls-10" cx="114.16" cy="67.27" r="1.7"/>
    <circle class="cls-10" cx="112.4" cy="62.94" r="1.7"/>
    <circle class="cls-8" cx="109.84" cy="66.29" r="1.7"/>
    <circle class="cls-10" cx="107.3" cy="69.95" r="1.7"/>
    <circle class="cls-10" cx="105.54" cy="65.63" r="1.7"/>
    <path class="cls-9" d="m95.23,33.44c-.2.48-.68.79-1.22.74-.48-.04-.88-.36-1.03-.79-.32.32-.82.44-1.27.27-.38-.14-.65-.45-.75-.82-.35.13-.76.1-1.1-.12-.45-.3-.63-.85-.49-1.34-.47.19-1.04.08-1.38-.34-.31-.37-.36-.88-.17-1.29-.46,0-.89-.26-1.1-.7-.17-.37-.13-.78.05-1.11-.34-.15-.62-.47-.69-.86-.11-.53.15-1.04.6-1.29-.47-.2-.78-.68-.73-1.22.04-.48.36-.88.79-1.03-.32-.32-.44-.82-.27-1.27.14-.38.45-.65.82-.75-.13-.35-.1-.76.12-1.1.3-.45.85-.63,1.34-.49-.19-.47-.08-1.04.34-1.38.37-.31.88-.36,1.29-.17,0-.46.26-.89.7-1.1.37-.17.78-.13,1.11.05.15-.35.47-.62.86-.69.53-.11,1.04.15,1.29.6.2-.47.68-.78,1.22-.73.48.04.88.36,1.03.79.32-.32.82-.44,1.27-.27.38.14.65.45.75.82.35-.13.76-.1,1.1.12.45.3.63.85.49,1.34.47-.19,1.04-.08,1.38.34.31.37.36.88.17,1.29.46,0,.89.26,1.1.7.17.37.13.78-.05,1.11.35.15.62.47.69.86.11.53-.15,1.04-.6,1.29.47.2.78.68.73,1.22-.04.48-.36.88-.79,1.03.32.32.44.82.27,1.27-.14.38-.45.65-.82.75.13.35.1.76-.12,1.1-.3.45-.85.63-1.34.49.19.47.08,1.04-.34,1.38-.37.31-.88.36-1.29.17,0,.46-.26.89-.7,1.1-.37.17-.78.13-1.11-.05-.15.34-.47.62-.86.69-.53.11-1.04-.15-1.29-.61Z"/>
    <path class="cls-10" d="m109.29,6.62l-36.21,7.2,5.86,29.46c10.42-2.07,19.9,1.39,21.16,7.73l-18.88,3.75,6.33,31.84,36.21-7.2L109.29,6.62Zm-19.68,34.88c-3.56-.52-6.9-1.88-9.78-3.91l-4.43-22.3,32.32-6.43,4.43,22.3c-1.89,2.97-4.45,5.51-7.54,7.35-2.18,1.3-4.61,2.26-7.24,2.78-2.63.52-5.25.57-7.76.2Z"/>
    <path class="cls-8" d="m117.43,47.57l-36.21,7.2,6.33,31.84,36.21-7.2-6.33-31.84Z"/>
    <path class="cls-8" d="m104.61,38.53c3.09-1.84,5.65-4.38,7.54-7.35l-4.43-22.3-32.32,6.43,4.43,22.3c2.88,2.03,6.22,3.39,9.78,3.91,2.51.37,5.12.32,7.76-.2,2.63-.52,5.07-1.48,7.24-2.78Z"/>
    <path class="cls-6" d="m121.44,77.93l-32.32,6.43-2.61-13.13c3.22-5.07,8.43-8.87,14.79-10.13s12.62.25,17.54,3.71l2.61,13.13Z"/>
    <path class="cls-10" d="m100.3,28.36c-.2.48-.68.79-1.22.74-.48-.04-.88-.36-1.03-.79-.32.32-.82.44-1.27.27-.38-.14-.65-.45-.75-.82-.35.13-.76.1-1.1-.12-.45-.3-.63-.85-.49-1.34-.47.19-1.04.08-1.38-.34-.31-.37-.36-.88-.17-1.29-.46,0-.89-.26-1.1-.7-.17-.37-.13-.78.05-1.11-.34-.15-.62-.47-.69-.86-.11-.53.15-1.04.6-1.29-.47-.2-.78-.68-.73-1.22.04-.48.36-.88.79-1.03-.32-.32-.44-.82-.27-1.27.14-.38.45-.65.82-.75-.13-.35-.1-.76.12-1.1.3-.45.85-.63,1.34-.49-.19-.47-.08-1.04.34-1.38.37-.31.88-.36,1.29-.17,0-.46.26-.89.7-1.1.37-.17.78-.13,1.11.05.15-.35.47-.62.86-.69.53-.11,1.04.15,1.29.6.2-.47.68-.78,1.22-.73.48.04.88.36,1.03.79.32-.32.82-.44,1.27-.27.38.14.65.45.75.82.35-.13.76-.1,1.1.12.45.3.63.85.49,1.34.47-.19,1.04-.08,1.38.34.31.37.36.88.17,1.29.46,0,.89.26,1.1.7.17.37.13.78-.05,1.11.35.15.62.47.69.86.11.53-.15,1.04-.6,1.29.47.2.78.68.73,1.22-.04.48-.36.88-.79,1.03.32.32.44.82.27,1.27-.14.38-.45.65-.82.75.13.35.1.76-.12,1.1-.3.45-.85.63-1.34.49.19.47.08,1.04-.34,1.38-.37.31-.88.36-1.29.17,0,.46-.26.89-.7,1.1-.37.17-.78.13-1.11-.05-.15.34-.47.62-.86.69-.53.11-1.04-.15-1.29-.61Z"/>
    <path class="cls-6" d="m89.21,39.68c-.48-.04-.88-.36-1.03-.79-.32.32-.82.44-1.27.27-.38-.14-.65-.45-.75-.82-.35.13-.76.1-1.1-.12-.45-.3-.63-.85-.49-1.34-.47.19-1.04.08-1.38-.34-.31-.37-.36-.88-.17-1.29-.46,0-.89-.26-1.1-.7-.17-.37-.13-.78.05-1.11-.34-.15-.62-.47-.69-.86-.11-.53.15-1.04.6-1.29-.47-.2-.78-.68-.73-1.22.04-.48.36-.88.79-1.03-.32-.32-.44-.82-.27-1.27.14-.38.45-.65.82-.75-.13-.35-.1-.76.12-1.1.3-.45.85-.63,1.34-.49-.19-.47-.08-1.04.34-1.38.37-.31.88-.36,1.29-.17,0-.46.26-.89.7-1.1.37-.17.78-.13,1.11.05.15-.35.47-.62.86-.69.53-.11,1.04.15,1.29.6.2-.47.68-.78,1.22-.73.48.04.88.36,1.03.79.32-.32.82-.44,1.27-.27.38.14.65.45.75.82.35-.13.76-.1,1.1.12.45.3.63.85.49,1.34.47-.19,1.04-.08,1.38.34.31.37.36.88.17,1.29.46,0,.89.26,1.1.7.17.37.13.78-.05,1.11.35.15.62.47.69.86.11.53-.15,1.04-.6,1.29.47.2.78.68.73,1.22-.04.48-.36.88-.79,1.03.32.32.44.82.27,1.27-.14.38-.45.65-.82.75.13.35.1.76-.12,1.1-.3.45-.85.63-1.34.49.19.47.08,1.04-.34,1.38-.37.31-.88.36-1.29.17,0,.46-.26.89-.7,1.1-.37.17-.78.13-1.11-.05-.15.34-.47.62-.86.69-.53.11-1.04-.15-1.29-.61-.2.48-.68.79-1.22.74Z"/>
    <circle class="cls-10" cx="89.99" cy="30.84" r="5.78"/>
    <text class="cls-3" transform="translate(95.33 16.76) rotate(78.76)"><tspan x="0" y="0">£</tspan></text>
    <circle class="cls-6" cx="79.94" cy="17.93" r="2.1"/>
    <circle class="cls-10" cx="80.41" cy="20.26" r="2.1"/>
    <circle class="cls-6" cx="80.87" cy="22.59" r="2.1"/>
    <path class="cls-8" d="m100.1,51.02l-18.88,3.75-2.28-11.49c10.42-2.07,19.9,1.39,21.16,7.73Z"/>
    <path class="cls-10" d="m83.5,66.26l-2.28-11.49,18.88-3.75c1.26,6.34-6.17,13.17-16.59,15.24Z"/>
    <rect class="cls-6" x="106.15" y="46.79" width="15.74" height="3" transform="translate(139.15 -72.96) rotate(78.76)"/>
    <rect class="cls-6" x="100.33" y="47.57" width="19.47" height="3" transform="translate(136.74 -68.45) rotate(78.76)"/>
    <rect class="cls-6" x="100.1" y="48.36" width="11.98" height="3" transform="translate(134.31 -63.92) rotate(78.76)"/>
    <rect class="cls-10" x="81.45" y="46.28" width="10.29" height="1.17" transform="translate(-7.47 17.78) rotate(-11.24)"/>
    <rect class="cls-10" x="81.74" y="47.59" width="12.73" height="1.17" transform="translate(-7.7 18.1) rotate(-11.24)"/>
    <rect class="cls-10" x="82.09" y="49.62" width="7.83" height="1.17" transform="translate(-8.14 17.73) rotate(-11.24)"/>
    <circle class="cls-8" cx="110.29" cy="65.1" r="1.7"/>
    <circle class="cls-10" cx="109.16" cy="69.41" r="1.7"/>
    <circle class="cls-10" cx="106.02" cy="65.94" r="1.7"/>
    <circle class="cls-8" cx="104.82" cy="69.95" r="1.7"/>
    <circle class="cls-10" cx="103.69" cy="74.26" r="1.7"/>
    <circle class="cls-10" cx="100.56" cy="70.8" r="1.7"/>
    <circle class="cls-8" cx="99.3" cy="74.82" r="1.7"/>
    <circle class="cls-10" cx="98.17" cy="79.13" r="1.7"/>
    <circle class="cls-10" cx="95.04" cy="75.67" r="1.7"/>
    <rect class="cls-5" x="4" y="72.9" width="214.4" height="61.84"/>
    <rect class="cls-7" x="132.19" y="85.06" width="32.4" height="16.34"/>
    <rect class="cls-7" x="172.74" y="85.06" width="32.4" height="16.34"/>
    <circle class="cls-8" cx="140.04" cy="114.73" r="7.85"/>
    <circle class="cls-8" cx="197.29" cy="114.73" r="7.85"/>
    <circle class="cls-8" cx="168.66" cy="114.73" r="7.85"/>
    <rect class="cls-8" x="15.97" y="85.04" width="1.64" height="37.46"/>
    <rect class="cls-8" x="22.76" y="85.04" width="1.64" height="37.46"/>
    <rect class="cls-8" x="29.55" y="85.04" width="1.64" height="37.46"/>
    <rect class="cls-8" x="36.34" y="85.04" width="1.64" height="37.46"/>
    <rect class="cls-8" x="43.12" y="85.04" width="1.64" height="37.46"/>
    <rect class="cls-8" x="49.91" y="85.04" width="1.64" height="37.46"/>
    <rect class="cls-8" x="56.7" y="85.04" width="1.64" height="37.46"/>
    <rect class="cls-8" x="63.49" y="85.04" width="1.64" height="37.46"/>
    <rect class="cls-8" x="70.28" y="85.04" width="1.64" height="37.46"/>
    <rect class="cls-8" x="77.07" y="85.04" width="1.64" height="37.46"/>
    <rect class="cls-9" x="14.13" y="100.26" width="5.32" height="3.41" rx="1.7" ry="1.7"/>
    <rect class="cls-9" x="20.92" y="96.82" width="5.32" height="3.41" rx="1.7" ry="1.7" transform="translate(-.17 .04) rotate(-.1)"/>
    <rect class="cls-9" x="27.71" y="101.98" width="5.32" height="3.41" rx="1.7" ry="1.7" transform="translate(-.37 .11) rotate(-.2)"/>
    <rect class="cls-9" x="34.49" y="102.84" width="5.32" height="3.41" rx="1.7" ry="1.7" transform="translate(-.56 .2) rotate(-.31)"/>
    <rect class="cls-9" x="41.28" y="98.54" width="5.32" height="3.41" rx="1.7" ry="1.7" transform="translate(-.71 .31) rotate(-.41)"/>
    <rect class="cls-9" x="48.07" y="101.98" width="5.32" height="3.41" rx="1.7" ry="1.7" transform="translate(-.92 .45) rotate(-.51)"/>
    <rect class="cls-9" x="54.86" y="102.84" width="5.32" height="3.41" rx="1.7" ry="1.7" transform="translate(-1.11 .62) rotate(-.61)"/>
    <rect class="cls-9" x="61.65" y="96.82" width="5.32" height="3.41" rx="1.7" ry="1.7" transform="translate(-1.22 .81) rotate(-.71)"/>
    <rect class="cls-9" x="68.44" y="92.52" width="5.32" height="3.41" rx="1.7" ry="1.7" transform="translate(-1.33 1.02) rotate(-.81)"/>
    <rect class="cls-9" x="75.23" y="101.12" width="5.32" height="3.41" rx="1.7" ry="1.7" transform="translate(-1.63 1.26) rotate(-.92)"/>
    <path class="cls-9" d="m162.47,96.9l-.19-.32-1.05.62c-1.01-2.18-2.57-4.07-4.49-5.47l.68-1.18-.33-.19-.32-.19-.64,1.13c-2.22-1.46-4.9-2.32-7.75-2.32h-.12v-1.57h-.74v1.6c-2.49.15-4.81.94-6.8,2.22l-.59-1.03-.33.19-.32.19.62,1.09c-1.96,1.42-3.55,3.34-4.58,5.56l-.94-.56-.19.32-.19.32,1.69.96c.09-.22.18-.44.28-.65.95-2.11,2.45-3.94,4.3-5.3.2-.14.41-.29.62-.42,1.87-1.22,4.07-1.98,6.42-2.13.25-.01.49-.03.74-.03h.12c2.73,0,5.26.81,7.38,2.22.21.13.42.28.62.42,1.81,1.35,3.26,3.14,4.21,5.2,0,.02.02.04.03.07.1.21.19.41.26.62h0s1.78-1.06,1.78-1.06l-.19-.32Z"/>
    <path class="cls-9" d="m203.36,96.9l-.19-.32-1.05.62c-1.01-2.18-2.57-4.07-4.49-5.47l.68-1.18-.33-.19-.32-.19-.64,1.13c-2.22-1.46-4.9-2.32-7.75-2.32h-.12v-1.57h-.74v1.6c-2.49.15-4.81.94-6.8,2.22l-.59-1.03-.33.19-.32.19.62,1.09c-1.96,1.42-3.55,3.34-4.58,5.56l-.94-.56-.19.32-.19.32,1.69.96c.09-.22.18-.44.28-.65.95-2.11,2.45-3.94,4.3-5.3.2-.14.41-.29.62-.42,1.87-1.22,4.07-1.98,6.42-2.13.25-.01.49-.03.74-.03h.12c2.73,0,5.26.81,7.38,2.22.21.13.42.28.62.42,1.81,1.35,3.26,3.14,4.21,5.2,0,.02.02.04.03.07.1.21.19.41.26.62h0s1.78-1.06,1.78-1.06l-.19-.32Z"/>
    <circle class="cls-9" cx="116.07" cy="86.04" r=".97"/>
    <circle class="cls-8" cx="116.08" cy="91.12" r=".97"/>
    <circle class="cls-8" cx="116.1" cy="96.2" r=".97"/>
    <circle class="cls-8" cx="116.12" cy="101.28" r=".97"/>
    <circle class="cls-8" cx="116.14" cy="106.36" r=".97"/>
    <circle class="cls-8" cx="116.16" cy="111.44" r=".97"/>
    <circle class="cls-8" cx="116.18" cy="116.52" r=".97"/>
    <circle class="cls-8" cx="116.19" cy="121.61" r=".97"/>
    <rect class="cls-9" x="90.49" y="85.15" width="22.09" height="1.65"/>
    <rect class="cls-9" x="90.49" y="90.24" width="22.09" height="1.65"/>
    <rect class="cls-9" x="90.49" y="95.34" width="22.09" height="1.65"/>
    <rect class="cls-9" x="90.49" y="100.43" width="22.09" height="1.65"/>
    <rect class="cls-9" x="90.49" y="105.52" width="22.09" height="1.65"/>
    <rect class="cls-9" x="90.49" y="110.61" width="22.09" height="1.65"/>
    <rect class="cls-9" x="90.49" y="115.7" width="22.09" height="1.65"/>
    <rect class="cls-9" x="90.49" y="120.79" width="22.09" height="1.65"/>
    <rect class="cls-11" x="6.95" y="135.98" width="22.79" height="5.12" rx="2.06" ry="2.06"/>
    <rect class="cls-11" x="192.83" y="135.98" width="22.79" height="5.12" rx="1.83" ry="1.83"/>
    <polygon class="cls-9" points="151.67 91.74 148.06 101.4 147.27 101.4 150.98 91.48 151.37 91.63 151.67 91.74"/>
    <polygon class="cls-9" points="193.31 91.74 189.7 101.4 188.91 101.4 192.61 91.48 193.31 91.74"/>
    <circle class="cls-11" cx="151.2" cy="91.9" r=".88"/>
    <circle class="cls-11" cx="192.77" cy="91.97" r=".88"/>
  </g>
</svg>