<?xml version="1.0" encoding="UTF-8" standalone="no"?>
<!-- Created with Inkscape (http://www.inkscape.org/) -->

<svg
   width="1024"
   height="1024"
   viewBox="0 0 270.93333 270.93333"
   version="1.1"
   id="svg9470"
   xmlns:inkscape="http://www.inkscape.org/namespaces/inkscape"
   xmlns:sodipodi="http://sodipodi.sourceforge.net/DTD/sodipodi-0.dtd"
   xmlns="http://www.w3.org/2000/svg"
   xmlns:svg="http://www.w3.org/2000/svg">
  <defs
     id="defs9467">
    <clipPath
       clipPathUnits="userSpaceOnUse"
       id="clipPath9347">
      <g
         id="g9353"
         style="stroke-width:1">
        <g
           id="g9351"
           style="stroke-width:1">
          <path
             d="m 799.887,31.22 h 349.79 v 349.79 h -349.79 z"
             id="path9349"
             style="stroke-width:1" />
        </g>
      </g>
    </clipPath>
    <clipPath
       clipPathUnits="userSpaceOnUse"
       id="clipPath9377">
      <g
         id="g9383"
         style="stroke-width:1">
        <g
           id="g9381"
           style="stroke-width:1">
          <path
             d="m 799.887,31.22 h 349.79 v 349.79 h -349.79 z"
             id="path9379"
             style="stroke-width:1" />
        </g>
      </g>
    </clipPath>
    <clipPath
       clipPathUnits="userSpaceOnUse"
       id="clipPath9362">
      <g
         id="g9368"
         style="stroke-width:1">
        <g
           id="g9366"
           style="stroke-width:1">
          <path
             d="m 799.887,31.22 h 349.79 v 349.79 h -349.79 z"
             id="path9364"
             style="stroke-width:1" />
        </g>
      </g>
    </clipPath>
    <clipPath
       clipPathUnits="userSpaceOnUse"
       id="clipPath9129">
      <g
         id="g9135"
         style="stroke-width:1">
        <g
           id="g9133"
           style="stroke-width:1">
          <path
             d="m 799.887,31.22 h 349.79 v 349.79 h -349.79 z"
             id="path9131"
             style="stroke-width:1" />
        </g>
      </g>
    </clipPath>
  </defs>
  <g
     inkscape:label="Layer 1"
     inkscape:groupmode="layer"
     id="layer1">
    <circle
       style="fill:#252734;fill-opacity:1;stroke-width:6.59401"
       id="path10557"
       cx="270.93506"
       cy="229.81412"
       r="35.97694" />
    <path
       style="color:#000000;fill:#83e68a;stroke-width:0.352778;stroke-miterlimit:10;-inkscape-stroke:none"
       d="m 372.33469,272.94916 c -1.57766,-1.49178 -2.09691,-3.53165 -2.03749,-5.36042 0.0594,-1.82876 0.56631,-3.57558 1.01921,-5.2192 0.4529,-1.64362 0.85199,-3.18445 0.89055,-4.37094 0.0384,-1.1865 -0.15218,-1.88928 -0.90014,-2.59664 -0.74786,-0.70712 -1.46036,-0.85799 -2.64277,-0.75315 -1.18236,0.10485 -2.69761,0.58948 -4.31329,1.13357 -1.61569,0.54408 -3.33132,1.14783 -5.15387,1.30936 -1.82256,0.16153 -3.88853,-0.2431 -5.4661,-1.73493 -1.57757,-1.49183 -2.09696,-3.53169 -2.03755,-5.36042 0.0595,-1.82872 0.56637,-3.57562 1.01927,-5.21919 0.4529,-1.64358 0.85105,-3.18457 0.88956,-4.37095 0.0384,-1.18639 -0.15114,-1.88839 -0.89915,-2.59568 v -9.8e-4 c -0.74786,-0.70724 -1.45943,-0.85794 -2.64179,-0.75315 -1.18231,0.10479 -2.69766,0.58949 -4.31329,1.13356 -1.61569,0.54408 -3.33235,1.14777 -5.15486,1.30937 -1.8225,0.1616 -3.88843,-0.24323 -5.46609,-1.73493 -1.57737,-1.49178 -2.09618,-3.53183 -2.03657,-5.36042 0.0597,-1.82859 0.56622,-3.57577 1.01927,-5.2192 0.45304,-1.64344 0.85277,-3.18281 0.89148,-4.36903 0.0389,-1.18622 -0.15159,-1.88875 -0.89915,-2.59567 -0.74791,-0.70724 -1.46046,-0.85794 -2.64277,-0.75315 -1.18232,0.10479 -2.69766,0.58853 -4.3133,1.13261 -1.61563,0.54407 -3.33146,1.14775 -5.15387,1.30936 -1.82246,0.1616 -3.88858,-0.24223 -5.4661,-1.73397 -1.57771,-1.49179 -2.09691,-3.53262 -2.03754,-5.36138 0.0594,-1.82876 0.56637,-3.57559 1.01926,-5.2192 0.45285,-1.64361 0.85105,-3.18352 0.88957,-4.36999 0.0384,-1.18647 -0.15208,-1.88923 -0.90014,-2.59663 -0.74771,-0.70708 -1.45952,-0.85799 -2.64179,-0.75315 -1.18226,0.10485 -2.69771,0.58849 -4.31329,1.13261 -1.61564,0.54411 -3.33146,1.1487 -5.15387,1.31032 -1.82246,0.16162 -3.88863,-0.24319 -5.4661,-1.73493 -1.57771,-1.4918 -2.09696,-3.53166 -2.03754,-5.36042 0.0594,-1.82875 0.56631,-3.57564 1.01926,-5.2192 0.4529,-1.64355 0.85194,-3.18369 0.8905,-4.36999 0.0384,-1.18629 -0.15218,-1.88947 -0.90014,-2.59663 -0.74791,-0.70736 -1.46041,-0.85884 -2.64272,-0.75411 -1.18231,0.10473 -2.69761,0.58955 -4.31334,1.13356 -1.61569,0.54402 -3.33225,1.14786 -5.15481,1.30937 -1.82261,0.16151 -3.88838,-0.24315 -5.4661,-1.73493 -1.57766,-1.49191 -2.09691,-3.53257 -2.03754,-5.36138 0.0594,-1.82881 0.56641,-3.57556 1.01926,-5.2192 0.45285,-1.64364 0.8511,-3.18353 0.88957,-4.36999 0.0384,-1.18646 -0.15194,-1.89014 -0.90014,-2.59759 -0.74772,-0.70708 -1.46046,-0.858 -2.64272,-0.75315 -1.18232,0.10485 -2.69678,0.58945 -4.31236,1.13356 -1.61564,0.54411 -3.33146,1.14775 -5.15387,1.30937 -1.82246,0.16162 -3.88863,-0.24222 -5.4661,-1.73397 -1.57776,-1.49199 -2.0978,-3.53249 -2.03853,-5.36138 0.0593,-1.82889 0.56647,-3.57649 1.01927,-5.22016 0.45279,-1.64368 0.8511,-3.18352 0.88956,-4.36999 0.0384,-1.18647 -0.15193,-1.89014 -0.90014,-2.59759 -0.7484,-0.70774 -1.46114,-0.85872 -2.6437,-0.75411 -1.18251,0.10461 -2.6984,0.58871 -4.31428,1.1326 -1.61583,0.54389 -3.33205,1.14805 -5.15481,1.30936 -1.82275,0.16133 -3.88823,-0.24394 -5.46609,-1.73588 -1.57791,-1.49216 -2.09854,-3.53233 -2.03947,-5.36138 0.0591,-1.82905 0.56657,-3.57636 1.01927,-5.22016 0.4527,-1.64381 0.8512,-3.18434 0.88956,-4.37095 0.0384,-1.18662 -0.15257,-1.88982 -0.90112,-2.5976 -0.74855,-0.70789 -1.46203,-0.85866 -2.64464,-0.75411 -1.18261,0.10456 -2.69741,0.58878 -4.31329,1.13261 -1.61593,0.54383 -3.33201,1.14718 -5.15486,1.3084 -1.82285,0.16123 -3.88912,-0.24386 -5.46703,-1.73589 l 2.50151,-2.64658 c 0.7485,0.70777 1.46203,0.85967 2.64464,0.75506 1.18266,-0.1046 2.69741,-0.58876 4.31334,-1.1326 1.61593,-0.54384 3.33294,-1.14725 5.15579,-1.3084 1.82285,-0.16116 3.88917,0.24374 5.46703,1.73589 1.57796,1.49203 2.0976,3.53237 2.03853,5.36138 -0.0591,1.829 -0.56656,3.57636 -1.01926,5.22016 -0.4527,1.6438 -0.85125,3.1833 -0.88957,4.36999 -0.0384,1.18669 0.15253,1.89065 0.90108,2.59855 0.74835,0.70761 1.46114,0.85877 2.6437,0.75411 1.18261,-0.10466 2.6984,-0.58871 4.31428,-1.13261 1.61588,-0.5439 3.33205,-1.14811 5.15485,-1.30936 1.8228,-0.16125 3.88922,0.24382 5.46703,1.73589 1.57777,1.49186 2.09682,3.53254 2.03755,5.36138 -0.0593,1.82884 -0.56642,3.57553 -1.01927,5.2192 -0.45279,1.64367 -0.8511,3.1844 -0.88956,4.37095 -0.0384,1.18655 0.15193,1.88906 0.90014,2.59663 0.74771,0.70708 1.46046,0.85799 2.64277,0.75315 1.18226,-0.10484 2.69766,-0.58946 4.31329,-1.13357 1.61559,-0.54411 3.33141,-1.14774 5.15387,-1.30936 1.82222,-0.16159 3.8877,0.24364 5.46512,1.73493 1.57781,1.49187 2.09779,3.53158 2.03853,5.36042 -0.0593,1.82884 -0.56642,3.57651 -1.01927,5.22016 -0.45285,1.64365 -0.85105,3.1835 -0.88956,4.36999 -0.0384,1.18649 0.15208,1.88923 0.90014,2.59663 0.748,0.70729 1.4603,0.85889 2.64272,0.75411 1.18246,-0.10478 2.69761,-0.58954 4.31334,-1.13356 1.61569,-0.54402 3.33131,-1.14793 5.15387,-1.30936 1.82216,-0.16141 3.88868,0.24376 5.4661,1.73492 v 9.9e-4 c 1.57697,1.49158 2.09696,3.5321 2.03754,5.36042 -0.0594,1.8287 -0.56631,3.57565 -1.01926,5.2192 -0.4529,1.64355 -0.85194,3.18361 -0.8905,4.36998 -0.0384,1.18638 0.15115,1.88936 0.89916,2.59664 v 0 c 0.74771,0.70707 1.45947,0.85799 2.64178,0.75315 1.18227,-0.10485 2.69766,-0.58946 4.3133,-1.13357 1.61558,-0.54411 3.33141,-1.14775 5.15387,-1.30936 1.82245,-0.16162 3.88858,0.24222 5.46609,1.73397 1.57767,1.49191 2.09692,3.53257 2.03755,5.36138 -0.0594,1.8288 -0.56642,3.57558 -1.01927,5.2192 -0.45289,1.64361 -0.85203,3.18359 -0.89054,4.36999 -0.0384,1.18639 0.15213,1.88934 0.90014,2.59663 0.74771,0.70708 1.46045,0.85799 2.64276,0.75315 1.18227,-0.10485 2.69766,-0.58852 4.3133,-1.13261 1.61563,-0.54408 3.33136,-1.14783 5.15387,-1.30936 1.82256,-0.16153 3.88853,0.24214 5.4661,1.73397 1.57742,1.49165 2.09715,3.53187 2.03754,5.36041 -0.0597,1.82855 -0.56715,3.57578 -1.0202,5.21921 -0.45309,1.64342 -0.85183,3.1837 -0.89054,4.36998 -0.0389,1.1863 0.15154,1.88863 0.89915,2.59568 0.74786,0.70712 1.46041,0.85798 2.64277,0.75315 1.18236,-0.10485 2.69761,-0.58949 4.31329,-1.13357 1.61569,-0.54408 3.33137,-1.14783 5.15387,-1.30936 1.82256,-0.16153 3.88854,0.2431 5.4661,1.73492 1.57772,1.49179 2.09691,3.53166 2.03755,5.36042 -0.0594,1.82876 -0.56637,3.57657 -1.01927,5.22016 -0.45289,1.6436 -0.85193,3.18358 -0.89049,4.37 -0.0384,1.18641 0.15222,1.88939 0.90013,2.59663 0.74786,0.70724 1.46041,0.85794 2.64272,0.75315 1.18232,-0.1048 2.69766,-0.58949 4.3133,-1.13357 1.61568,-0.54408 3.33141,-1.14776 5.15392,-1.30936 1.82246,-0.16161 3.88843,0.24323 5.46605,1.73493 v 0 c 1.57751,1.49195 2.09602,3.53259 2.03656,5.36137 -0.0595,1.82879 -0.56632,3.5756 -1.01927,5.21921 -0.45289,1.6436 -0.851,3.18359 -0.88951,4.36999 -0.0384,1.18639 0.15114,1.88934 0.89915,2.59662 z"
       id="path4918" />
    <path
       style="color:#000000;fill:#83e68a;stroke-width:0.352778;stroke-miterlimit:10;-inkscape-stroke:none"
       d="m 223.49476,132.20074 c -1.57766,-1.49178 -2.09691,-3.53166 -2.0375,-5.36043 0.0594,-1.82876 0.56632,-3.57557 1.01922,-5.2192 0.4529,-1.64361 0.85198,-3.18445 0.89054,-4.37094 0.0384,-1.1865 -0.15218,-1.88927 -0.90014,-2.59663 -0.74786,-0.70712 -1.46035,-0.85799 -2.64276,-0.75316 -1.18236,0.10484 -2.69761,0.58949 -4.31329,1.13357 -1.61569,0.54409 -3.33132,1.14783 -5.15388,1.30936 -1.82255,0.16154 -3.88853,-0.24311 -5.46609,-1.73493 -1.57757,-1.49182 -2.09696,-3.53169 -2.03755,-5.36042 0.0594,-1.82872 0.56637,-3.57562 1.01926,-5.21919 0.4529,-1.64358 0.85105,-3.18458 0.88957,-4.370952 0.0383,-1.186389 -0.15115,-1.888395 -0.89916,-2.595672 v -9.9e-4 c -0.74785,-0.707235 -1.45942,-0.857937 -2.64178,-0.753147 -1.18232,0.104846 -2.69766,0.589493 -4.31331,1.133562 -1.61568,0.544082 -3.33233,1.147768 -5.15484,1.309373 -1.82252,0.161604 -3.88844,-0.243237 -5.4661,-1.734933 -1.57737,-1.49178 -2.09618,-3.531825 -2.03656,-5.360422 0.0597,-1.828583 0.56622,-3.575771 1.01926,-5.2192 0.45305,-1.64343 0.85278,-3.182809 0.89148,-4.36903 0.0389,-1.186221 -0.15158,-1.888744 -0.89915,-2.595672 -0.74792,-0.707235 -1.46045,-0.857937 -2.64277,-0.753147 -1.18231,0.104846 -2.69766,0.588531 -4.3133,1.132613 -1.61563,0.544069 -3.33146,1.147755 -5.15387,1.30936 -1.82246,0.161604 -3.88858,-0.242233 -5.46609,-1.733971 -1.57772,-1.491794 -2.09691,-3.53262 -2.03755,-5.361384 0.0594,-1.82875 0.56637,-3.575589 1.01927,-5.2192 0.45284,-1.643611 0.85105,-3.18352 0.88956,-4.369992 0.0383,-1.186458 -0.15207,-1.889218 -0.90013,-2.596634 -0.74772,-0.707068 -1.45953,-0.857979 -2.64179,-0.753147 -1.18227,0.104846 -2.69771,0.588503 -4.31329,1.132613 -1.61565,0.544111 -3.33146,1.148703 -5.15388,1.310322 -1.82245,0.161618 -3.88862,-0.243181 -5.46609,-1.734933 -1.57772,-1.491794 -2.09696,-3.531658 -2.03755,-5.360408 0.0594,-1.828764 0.56632,-3.575645 1.01926,-5.219215 0.4529,-1.643541 0.85194,-3.183686 0.89051,-4.369977 0.0383,-1.186305 -0.15218,-1.889483 -0.90014,-2.596634 -0.74791,-0.707361 -1.46041,-0.858843 -2.64273,-0.754109 -1.18231,0.104706 -2.69761,0.589548 -4.31335,1.133561 -1.61568,0.544013 -3.33224,1.147852 -5.1548,1.30936 -1.8226,0.161507 -3.88838,-0.243139 -5.46609,-1.734919 -1.57766,-1.491919 -2.09691,-3.532578 -2.03755,-5.361384 0.0594,-1.828806 0.56642,-3.575562 1.01927,-5.219202 0.45284,-1.643636 0.8511,-3.183531 0.88955,-4.36999 0.0383,-1.186456 -0.15193,-1.890144 -0.90012,-2.597594 -0.74773,-0.707076 -1.46047,-0.857991 -2.64273,-0.753148 -1.18232,0.104846 -2.69677,0.589455 -4.31235,1.133566 -1.61565,0.544112 -3.33146,1.147746 -5.15387,1.309365 -1.82246,0.161617 -3.88864,-0.242223 -5.46611,-1.733971 -1.57776,-1.491988 -2.09779,-3.53249 -2.03852,-5.361377 0.0593,-1.828887 0.56646,-3.576486 1.01926,-5.220161 0.4528,-1.643681 0.85111,-3.183517 0.88956,-4.36999 0.0383,-1.186471 -0.15193,-1.890144 -0.90014,-2.5975937 -0.74839,-0.7077313 -1.46113,-0.858719 -2.6437,-0.7541074 -1.1825,0.1046087 -2.6984,0.5887118 -4.31428,1.1326021 -1.61583,0.543894 -3.33205,1.148046 -5.154803,1.309363 -1.822755,0.161324 -3.888231,-0.243943 -5.46609,-1.7358874 -1.577915,-1.4921548 -2.098547,-3.5323268 -2.039474,-5.3613768 0.05912,-1.8290499 0.566572,-3.57636342 1.019263,-5.2201612 0.452705,-1.6438034 0.851203,-3.1843337 0.889572,-4.3709509 0.03834,-1.1866172 -0.15257,-1.8898173 -0.90113,-2.5975918 -0.748546,-0.7078987 -1.462027,-0.858666 -2.644637,-0.7541131 -1.18261,0.104553 -2.697409,0.5887774 -4.313289,1.1326077 -1.615935,0.5438304 -3.332004,1.147176 -5.154857,1.3084001 -1.822852,0.1612283 -3.889123,-0.2438613 -5.467024,-1.7358878 l 2.501506,-2.6465868 c 0.748504,0.707775 1.462027,0.859673 2.644637,0.755067 1.182652,-0.104609 2.697409,-0.588767 4.313344,-1.132602 1.615922,-0.543836 3.332939,-1.14725 5.155792,-1.308406 1.822852,-0.161154 3.889165,0.243743 5.467024,1.735894 1.577957,1.4920277 2.097599,3.5323768 2.038525,5.3613766 -0.05911,1.8290011 -0.566557,3.5763676 -1.019262,5.22016122 -0.452692,1.64379918 -0.851245,3.18330058 -0.889558,4.36999168 -0.03834,1.1866911 0.152528,1.8906538 0.901074,2.598551 0.748351,0.7076128 1.461149,0.8587734 2.643703,0.7541075 1.18261,-0.1046645 2.698394,-0.5887021 4.314274,-1.1326021 1.61588,-0.5438987 3.33205,-1.1481143 5.15486,-1.3093635 1.8228,-0.1612492 3.88922,0.2438208 5.46703,1.7358934 1.57776,1.4918592 2.09681,3.5325388 2.03755,5.3613772 -0.0593,1.828838 -0.56642,3.575527 -1.01927,5.219202 -0.4528,1.643671 -0.8511,3.184402 -0.88957,4.370945 -0.0383,1.186549 0.15194,1.889066 0.90014,2.596634 0.74772,0.707076 1.46047,0.857991 2.64277,0.753148 1.18226,-0.104846 2.69766,-0.589455 4.3133,-1.133567 1.61559,-0.54411 3.33141,-1.147746 5.15387,-1.309363 1.82221,-0.161594 3.8877,0.243644 5.46511,1.734934 1.57781,1.491865 2.0978,3.531574 2.03853,5.360418 -0.0593,1.828838 -0.56642,3.576505 -1.01926,5.220161 -0.45285,1.64365 -0.85105,3.183502 -0.88956,4.369989 -0.0383,1.186486 0.15208,1.889231 0.90012,2.596634 0.74802,0.707276 1.46032,0.858885 2.64273,0.754108 1.18246,-0.104845 2.69761,-0.589548 4.31335,-1.133561 1.61568,-0.544027 3.3313,-1.147936 5.15386,-1.309373 1.82217,-0.161396 3.88868,0.243766 5.46611,1.734933 v 9.9e-4 c 1.57696,1.491584 2.09695,3.532103 2.03753,5.360407 -0.0594,1.828709 -0.5663,3.57566 -1.01926,5.219201 -0.4529,1.643555 -0.85193,3.183617 -0.89049,4.369992 -0.0383,1.186374 0.15115,1.889357 0.89915,2.596634 v 0 c 0.74771,0.707081 1.45947,0.857992 2.64179,0.753146 1.18226,-0.104845 2.69766,-0.58945 4.31329,-1.133561 1.61559,-0.54411 3.33142,-1.147754 5.15387,-1.309373 1.82246,-0.161605 3.88858,0.242233 5.4661,1.733971 1.57766,1.491919 2.09692,3.532577 2.03755,5.361383 -0.0594,1.828806 -0.56642,3.57559 -1.01928,5.219201 -0.45288,1.643611 -0.85202,3.183589 -0.89054,4.369992 -0.0384,1.186402 0.15213,1.889343 0.90014,2.596634 0.74772,0.707081 1.46046,0.857992 2.64276,0.753147 1.18228,-0.104846 2.69766,-0.588517 4.31331,-1.1326 1.61563,-0.544082 3.33136,-1.147838 5.15386,-1.309373 1.82256,-0.161521 3.88854,0.242149 5.46609,1.733971 1.57743,1.491654 2.09717,3.53188 2.03755,5.360422 -0.0597,1.828541 -0.56715,3.57577 -1.02019,5.2192 -0.4531,1.64343 -0.85185,3.183701 -0.89055,4.369992 -0.0389,1.186291 0.15154,1.888618 0.89915,2.595672 0.74786,0.707123 1.46041,0.857978 2.64277,0.753147 1.18237,-0.104846 2.69762,-0.589493 4.3133,-1.133576 1.61569,-0.544068 3.33136,-1.147824 5.15387,-1.309359 1.82256,-0.161521 3.88854,0.243111 5.4661,1.734933 1.57771,1.49178 2.0969,3.531657 2.03754,5.360422 -0.0594,1.828751 -0.56636,3.576561 -1.01927,5.220161 -0.4529,1.6436 -0.85192,3.18358 -0.89049,4.36998 -0.0383,1.18642 0.15222,1.8894 0.90014,2.59663 0.74785,0.70725 1.4604,0.85794 2.64272,0.75316 1.18231,-0.10484 2.69766,-0.58949 4.3133,-1.13357 1.61568,-0.54407 3.3314,-1.14776 5.15391,-1.30936 1.82246,-0.16161 3.88844,0.24322 5.46605,1.73493 v 0 c 1.57752,1.49195 2.09603,3.53259 2.03656,5.36137 -0.0595,1.82879 -0.56631,3.57561 -1.01927,5.2192 -0.45288,1.64361 -0.85099,3.18361 -0.88951,4.36999 -0.0383,1.18639 0.15114,1.88935 0.89916,2.59664 z"
       id="path10096" />
    <path
       style="color:#000000;fill:#83e68a;stroke-width:0.352778;stroke-miterlimit:10;-inkscape-stroke:none"
       d="m 335.00776,272.94916 c -1.57771,-1.49179 -2.09696,-3.53165 -2.03755,-5.36042 0.0594,-1.82876 0.56632,-3.57559 1.01927,-5.2192 0.45294,-1.64361 0.85198,-3.18448 0.8905,-4.37094 0.0384,-1.18647 -0.15204,-1.88924 -0.90009,-2.59664 -0.74786,-0.70712 -1.46041,-0.85799 -2.64277,-0.75315 -1.18236,0.10485 -2.69761,0.58948 -4.3133,1.13357 -1.61568,0.54408 -3.33136,1.14783 -5.15387,1.30936 -1.82255,0.16153 -3.88853,-0.2431 -5.46609,-1.73493 -1.57757,-1.49183 -2.09701,-3.53169 -2.03755,-5.36042 0.0595,-1.82872 0.56637,-3.57562 1.01926,-5.21919 0.4529,-1.64358 0.85199,-3.18457 0.8905,-4.37095 0.0384,-1.18639 -0.15208,-1.88839 -0.90009,-2.59568 v -9.8e-4 c -0.74791,-0.70724 -1.46045,-0.85794 -2.64277,-0.75315 -1.18231,0.10479 -2.69766,0.58949 -4.31329,1.13356 -1.61568,0.54408 -3.33136,1.14777 -5.15387,1.30937 -1.82251,0.1616 -3.88947,-0.24323 -5.46708,-1.73493 -1.57737,-1.49178 -2.09622,-3.53183 -2.03656,-5.36042 0.0597,-1.82859 0.56715,-3.57577 1.0202,-5.2192 0.45304,-1.64344 0.85183,-3.18281 0.89054,-4.36903 0.0389,-1.18622 -0.15164,-1.88875 -0.8992,-2.59567 -0.74786,-0.70724 -1.46041,-0.85794 -2.64272,-0.75315 -1.18231,0.10479 -2.69771,0.58853 -4.3133,1.13261 -1.61563,0.54407 -3.33146,1.14775 -5.15391,1.30936 -1.82241,0.1616 -3.88859,-0.24223 -5.46605,-1.73397 -1.57772,-1.49179 -2.09692,-3.53262 -2.03755,-5.36138 0.0594,-1.82876 0.56637,-3.57559 1.01927,-5.2192 0.45284,-1.64361 0.851,-3.18352 0.88951,-4.36999 0.0384,-1.18647 -0.15203,-1.88923 -0.90009,-2.59663 -0.74776,-0.70708 -1.45952,-0.85799 -2.64178,-0.75315 -1.18227,0.10485 -2.69771,0.58849 -4.31335,1.13261 -1.61558,0.54411 -3.33141,1.1487 -5.15387,1.31032 -1.82246,0.16162 -3.88858,-0.24319 -5.4661,-1.73493 -1.57771,-1.4918 -2.09691,-3.53166 -2.03749,-5.36042 0.0594,-1.82875 0.56632,-3.57564 1.01921,-5.2192 0.45295,-1.64355 0.85199,-3.18369 0.89055,-4.36999 0.0384,-1.18629 -0.15218,-1.88947 -0.90014,-2.59663 -0.74796,-0.70736 -1.4604,-0.85884 -2.64272,-0.75411 -1.18236,0.10473 -2.69766,0.58955 -4.31334,1.13356 -1.61569,0.54402 -3.33127,1.14786 -5.15387,1.30937 -1.82256,0.16151 -3.88937,-0.24315 -5.46703,-1.73493 -1.57767,-1.49191 -2.09692,-3.53257 -2.03755,-5.36138 0.0594,-1.82881 0.56642,-3.57556 1.01927,-5.2192 0.45279,-1.64364 0.8511,-3.18353 0.88956,-4.36999 0.0384,-1.18646 -0.15198,-1.89014 -0.90014,-2.59759 -0.74771,-0.70708 -1.45952,-0.858 -2.64179,-0.75315 -1.18226,0.10485 -2.6977,0.58945 -4.31329,1.13356 -1.61564,0.54411 -3.33146,1.14775 -5.15392,1.30937 -1.82241,0.16162 -3.88858,-0.24222 -5.46605,-1.73397 -1.57776,-1.49199 -2.09779,-3.53249 -2.03853,-5.36138 0.0593,-1.82889 0.56647,-3.57649 1.01927,-5.22016 0.4528,-1.64368 0.85208,-3.18352 0.8905,-4.36999 0.0384,-1.18647 -0.15287,-1.89014 -0.90108,-2.59759 -0.7484,-0.70774 -1.46114,-0.85872 -2.6437,-0.75411 -1.18256,0.10461 -2.69746,0.58871 -4.3133,1.1326 -1.61588,0.54389 -3.3321,1.14805 -5.15485,1.30936 -1.82275,0.16133 -3.88917,-0.24394 -5.46703,-1.73588 -1.57791,-1.49216 -2.0976,-3.53233 -2.03853,-5.36138 0.0591,-1.82905 0.56563,-3.57636 1.01828,-5.22016 0.4527,-1.64381 0.85125,-3.18434 0.88956,-4.37095 0.0384,-1.18662 -0.15252,-1.88982 -0.90107,-2.5976 -0.74855,-0.70789 -1.46109,-0.85866 -2.6437,-0.75411 -1.18261,0.10456 -2.69835,0.58878 -4.31427,1.13261 -1.6159,0.54383 -3.332,1.14718 -5.15483,1.3084 -1.82285,0.16123 -3.88913,-0.24386 -5.46706,-1.73589 l 2.50153,-2.64658 c 0.74853,0.70777 1.46202,0.85967 2.64467,0.75506 1.18265,-0.1046 2.69834,-0.58876 4.31427,-1.1326 1.61592,-0.54384 3.33195,-1.14725 5.15485,-1.3084 1.82285,-0.16116 3.88917,0.24374 5.46703,1.73589 1.57791,1.49203 2.09761,3.53237 2.03848,5.36138 -0.0591,1.829 -0.56558,3.57636 -1.01828,5.22016 -0.4527,1.6438 -0.8512,3.1833 -0.88956,4.36999 -0.0384,1.18669 0.15252,1.89065 0.90112,2.59855 0.74811,0.70705 1.46051,0.85874 2.64272,0.75411 1.18256,-0.10466 2.6984,-0.58871 4.31428,-1.13261 1.61588,-0.5439 3.33205,-1.14811 5.15485,-1.30936 1.82276,-0.16125 3.88922,0.24382 5.46704,1.73589 1.57776,1.49186 2.09681,3.53254 2.03754,5.36138 -0.0593,1.82884 -0.56548,3.57553 -1.01828,5.2192 -0.45285,1.64367 -0.85208,3.1844 -0.89055,4.37095 -0.0384,1.18655 0.15287,1.88906 0.90108,2.59663 0.74776,0.70708 1.45952,0.85799 2.64178,0.75315 1.18232,-0.10484 2.69771,-0.58946 4.31335,-1.13357 1.61558,-0.54411 3.33141,-1.14774 5.15387,-1.30936 1.82246,-0.16161 3.88858,0.24319 5.46609,1.73493 1.57777,1.49187 2.09682,3.53158 2.0375,5.36042 -0.0593,1.82884 -0.56543,3.57651 -1.01828,5.22016 -0.45285,1.64365 -0.85199,3.1835 -0.8905,4.36999 -0.0384,1.18649 0.15208,1.88923 0.90014,2.59663 0.74801,0.70729 1.46031,0.85889 2.64272,0.75411 1.18241,-0.10478 2.69761,-0.58954 4.31329,-1.13356 1.61574,-0.54402 3.3323,-1.14793 5.15486,-1.30936 1.82256,-0.16145 3.88858,0.24393 5.4661,1.73588 1.57732,1.49163 2.09696,3.53193 2.03754,5.36042 -0.0594,1.82871 -0.56632,3.57565 -1.01926,5.2192 -0.45295,1.64355 -0.85199,3.18362 -0.8905,4.36999 -0.0384,1.18637 0.15208,1.88936 0.90009,2.59663 0.74776,0.70708 1.45952,0.85799 2.64178,0.75315 1.18227,-0.10484 2.69771,-0.58945 4.31335,-1.13356 1.61558,-0.54412 3.33141,-1.14775 5.15387,-1.30937 1.82246,-0.16161 3.88858,0.24223 5.46609,1.73397 1.57762,1.49191 2.09687,3.53257 2.0375,5.36138 -0.0594,1.82881 -0.56637,3.57558 -1.01921,5.2192 -0.4529,1.64362 -0.85106,3.18359 -0.88957,4.36999 -0.0384,1.1864 0.15208,1.88935 0.90014,2.59664 0.74771,0.70707 1.45947,0.85798 2.64174,0.75314 1.18231,-0.10484 2.69766,-0.58852 4.31334,-1.1326 1.61564,-0.54409 3.33131,-1.14783 5.15387,-1.30937 1.82251,-0.16153 3.88947,0.24215 5.46703,1.73397 1.57742,1.49166 2.09623,3.53188 2.03661,5.36042 -0.0597,1.82854 -0.56715,3.57577 -1.02024,5.2192 -0.45305,1.64343 -0.85179,3.1837 -0.8905,4.36999 -0.0389,1.18629 0.15154,1.88863 0.89915,2.59567 0.74786,0.70712 1.46036,0.85799 2.64277,0.75315 1.18236,-0.10484 2.69761,-0.58948 4.3133,-1.13356 1.61568,-0.54409 3.33131,-1.14783 5.15387,-1.30937 1.82255,-0.16153 3.88853,0.2431 5.46609,1.73493 1.57772,1.49179 2.09785,3.53166 2.03848,5.36042 -0.0594,1.82876 -0.56631,3.57657 -1.01921,5.22016 -0.45295,1.6436 -0.85199,3.18357 -0.89055,4.36999 -0.0384,1.18641 0.15129,1.88939 0.89916,2.59663 0.74791,0.70724 1.4604,0.85794 2.64276,0.75315 1.18232,-0.10479 2.69766,-0.58949 4.3133,-1.13356 1.61568,-0.54408 3.33235,-1.14776 5.15485,-1.30937 1.82251,-0.1616 3.88844,0.24323 5.4661,1.73493 1.57766,1.49192 2.09691,3.5316 2.0375,5.36042 -0.0594,1.82882 -0.56632,3.57654 -1.01922,5.22016 -0.45295,1.64362 -0.85198,3.1836 -0.89055,4.36999 -0.0384,1.18639 0.15213,1.88936 0.90014,2.59663 z"
       id="path4914" />
    <path
       style="color:#000000;fill:#83e68a;stroke-width:0.352778;stroke-miterlimit:10;-inkscape-stroke:none"
       d="m 186.16682,132.20074 c -1.57766,-1.49178 -2.09691,-3.53166 -2.03751,-5.36043 0.0594,-1.82876 0.56632,-3.57557 1.01922,-5.2192 0.4529,-1.64361 0.85199,-3.18445 0.89055,-4.37094 0.0383,-1.1865 -0.15218,-1.88927 -0.90014,-2.59663 -0.74786,-0.70712 -1.46035,-0.85799 -2.64277,-0.75316 -1.18236,0.10484 -2.6976,0.58949 -4.31329,1.13357 -1.61568,0.54409 -3.33132,1.14783 -5.15388,1.30936 -1.82254,0.16154 -3.88852,-0.24311 -5.46609,-1.73493 -1.57756,-1.49182 -2.09695,-3.53169 -2.03755,-5.36042 0.0594,-1.82872 0.56638,-3.57562 1.01927,-5.21919 0.4529,-1.64358 0.85105,-3.18458 0.88957,-4.370952 0.0383,-1.186389 -0.15115,-1.888395 -0.89917,-2.595672 v -9.9e-4 c -0.74784,-0.707235 -1.45942,-0.857937 -2.64177,-0.753147 -1.18232,0.104846 -2.69766,0.589493 -4.31331,1.133562 -1.61568,0.544082 -3.33234,1.147768 -5.15484,1.309373 -1.82252,0.161604 -3.88844,-0.243237 -5.4661,-1.734933 -1.57738,-1.49178 -2.09618,-3.531825 -2.03656,-5.360422 0.0597,-1.828583 0.56622,-3.575771 1.01926,-5.2192 0.45305,-1.64343 0.85278,-3.182809 0.89148,-4.36903 0.0389,-1.186221 -0.15158,-1.888744 -0.89915,-2.595672 -0.74792,-0.707235 -1.46045,-0.857937 -2.64277,-0.753147 -1.18232,0.104846 -2.69766,0.588531 -4.3133,1.132613 -1.61563,0.544069 -3.33146,1.147755 -5.15387,1.30936 -1.82246,0.161604 -3.88858,-0.242233 -5.46609,-1.733971 -1.57772,-1.491794 -2.09691,-3.53262 -2.03755,-5.361384 0.0594,-1.82875 0.56636,-3.575589 1.01927,-5.2192 0.45284,-1.643611 0.85104,-3.18352 0.88955,-4.369992 0.0383,-1.186458 -0.15207,-1.889218 -0.90012,-2.596634 -0.74773,-0.707068 -1.45953,-0.857979 -2.6418,-0.753147 -1.18226,0.104846 -2.6977,0.588503 -4.31328,1.132613 -1.61565,0.544111 -3.33147,1.148703 -5.15389,1.310322 -1.82244,0.161618 -3.88862,-0.243181 -5.46609,-1.734933 -1.57772,-1.491794 -2.09695,-3.531658 -2.03755,-5.360408 0.0594,-1.828764 0.56633,-3.575645 1.01927,-5.219215 0.4529,-1.643541 0.85194,-3.183686 0.8905,-4.369977 0.0383,-1.186305 -0.15218,-1.889483 -0.90014,-2.596634 -0.7479,-0.707361 -1.46041,-0.858843 -2.64272,-0.754109 -1.18231,0.104706 -2.69761,0.589548 -4.31335,1.133561 -1.61568,0.544013 -3.33224,1.147852 -5.154799,1.30936 -1.822602,0.161507 -3.888385,-0.243139 -5.466091,-1.734919 -1.577664,-1.491919 -2.096915,-3.532578 -2.037549,-5.361384 0.05939,-1.828806 0.566418,-3.575562 1.019263,-5.219205 0.452844,-1.643636 0.851105,-3.18353 0.889558,-4.36999 0.03834,-1.186456 -0.151929,-1.890144 -0.900126,-2.597593 -0.747724,-0.707076 -1.460466,-0.857992 -2.642728,-0.753149 -1.182317,0.104846 -2.696767,0.589455 -4.312354,1.133566 -1.615643,0.544112 -3.331461,1.147746 -5.153867,1.309365 -1.822462,0.161617 -3.888635,-0.242223 -5.466104,-1.733971 -1.577762,-1.491987 -2.097794,-3.53249 -2.038526,-5.361377 0.05925,-1.828887 0.56646,-3.576486 1.019263,-5.220161 0.452803,-1.643681 0.851105,-3.183517 0.889558,-4.36999 0.03834,-1.186471 -0.151929,-1.8901438 -0.90014,-2.5975935 C 72.767075,8.3926322 72.054333,8.2416445 70.871765,8.3462561 69.689266,8.4508648 68.173366,8.9349679 66.557486,9.4788582 64.941662,10.022753 63.22544,10.626904 61.402685,10.788222 59.57993,10.949545 57.514454,10.544278 55.936595,9.0523339 54.35868,7.560179 53.838048,5.520007 53.897121,3.690957 c 0.05912,-1.8290499 0.566572,-3.57636341 1.019263,-5.2201612 0.452705,-1.6438034 0.851203,-3.1843337 0.889572,-4.3709509 0.03834,-1.1866172 -0.15257,-1.8898173 -0.90113,-2.5975918 -0.748546,-0.7078986 -1.462027,-0.858666 -2.644637,-0.754113 -1.18261,0.1045529 -2.697409,0.5887773 -4.313289,1.1326076 -1.615935,0.5438304 -3.332004,1.147176 -5.154857,1.3084001 -1.822852,0.1612283 -3.889123,-0.2438612 -5.467024,-1.7358878 l 2.501506,-2.646586 c 0.748504,0.707774 1.462027,0.859672 2.644637,0.755066 1.182652,-0.104608 2.697409,-0.588767 4.313344,-1.132602 1.615922,-0.543836 3.332939,-1.14725 5.155792,-1.308405 1.822852,-0.161155 3.889165,0.243742 5.467024,1.735893 1.577957,1.4920279 2.097599,3.532377 2.038525,5.3613768 -0.05911,1.8290012 -0.566557,3.5763676 -1.019262,5.22016123 -0.452692,1.64379917 -0.851245,3.18330057 -0.889558,4.36999167 -0.03834,1.1866911 0.152528,1.8906538 0.901074,2.598551 0.748351,0.7076129 1.461149,0.8587734 2.643703,0.7541075 1.18261,-0.1046645 2.698399,-0.5887021 4.314278,-1.1326021 1.61588,-0.5438987 3.332047,-1.1481143 5.154858,-1.3093635 1.822796,-0.1612492 3.88922,0.2438208 5.467024,1.7358934 1.577761,1.4918593 2.096818,3.5325388 2.037549,5.361377 -0.05925,1.828838 -0.566418,3.575527 -1.019262,5.219202 -0.452803,1.643671 -0.851106,3.184402 -0.889572,4.370945 -0.03834,1.186549 0.151942,1.889066 0.90014,2.596634 0.747723,0.707076 1.460465,0.857991 2.642769,0.753148 1.182261,-0.104845 2.697659,-0.589455 4.313302,-1.133567 1.615587,-0.54411 3.331405,-1.147746 5.153867,-1.309363 1.822212,-0.161594 3.887701,0.243644 5.465114,1.734934 1.577804,1.491865 2.097794,3.531574 2.038526,5.360418 -0.05926,1.828838 -0.566418,3.576505 -1.019263,5.220161 -0.452844,1.643653 -0.851049,3.183505 -0.889558,4.369992 -0.03834,1.186486 0.152082,1.889231 0.900126,2.596634 0.748017,0.707276 1.460313,0.858885 2.642728,0.754108 1.182456,-0.104845 2.6976,-0.589548 4.31334,-1.133561 1.61569,-0.544027 3.33131,-1.147936 5.15387,-1.309373 1.82217,-0.161396 3.88868,0.243766 5.46611,1.734933 v 9.9e-4 c 1.57696,1.491584 2.09695,3.532103 2.03753,5.360407 -0.0594,1.828709 -0.56631,3.57566 -1.01926,5.219201 -0.4529,1.643555 -0.85193,3.183617 -0.89049,4.369992 -0.0384,1.186374 0.15114,1.889357 0.89915,2.596634 v 0 c 0.74771,0.707081 1.45947,0.857992 2.64179,0.753146 1.18226,-0.104845 2.69766,-0.58945 4.31329,-1.133561 1.61558,-0.54411 3.33142,-1.147754 5.15386,-1.309373 1.82247,-0.161605 3.88858,0.242233 5.46611,1.733971 1.57766,1.491919 2.09691,3.532577 2.03755,5.361383 -0.0594,1.828806 -0.56642,3.57559 -1.01928,5.219201 -0.45288,1.643611 -0.85202,3.183589 -0.89055,4.369992 -0.0383,1.186402 0.15214,1.889343 0.90014,2.596634 0.74773,0.707081 1.46047,0.857992 2.64277,0.753147 1.18228,-0.104846 2.69766,-0.588517 4.31331,-1.1326 1.61562,-0.544082 3.33136,-1.147838 5.15386,-1.309373 1.82256,-0.161521 3.88854,0.242149 5.46609,1.733971 1.57743,1.491654 2.09717,3.53188 2.03755,5.360422 -0.0597,1.828541 -0.56716,3.57577 -1.02019,5.2192 -0.4531,1.64343 -0.85185,3.183701 -0.89055,4.369992 -0.0389,1.186291 0.15154,1.888618 0.89915,2.595672 0.74786,0.707123 1.46041,0.857978 2.64277,0.753147 1.18237,-0.104846 2.69761,-0.589493 4.3133,-1.133576 1.61568,-0.544068 3.33136,-1.147824 5.15387,-1.309359 1.82256,-0.161521 3.88853,0.243111 5.4661,1.734933 1.57771,1.49178 2.0969,3.531657 2.03754,5.360422 -0.0594,1.828751 -0.56637,3.576561 -1.01927,5.220161 -0.4529,1.6436 -0.85192,3.18358 -0.89049,4.36998 -0.0383,1.18642 0.15222,1.8894 0.90014,2.59663 0.74785,0.70725 1.4604,0.85794 2.64271,0.75316 1.18232,-0.10484 2.69766,-0.58949 4.31331,-1.13357 1.61568,-0.54407 3.3314,-1.14776 5.15391,-1.30936 1.82246,-0.16161 3.88844,0.24322 5.46604,1.73493 v 0 c 1.57753,1.49195 2.09604,3.53259 2.03656,5.36137 -0.0595,1.82879 -0.5663,3.57561 -1.01926,5.2192 -0.45289,1.64361 -0.85099,3.18361 -0.88952,4.36999 -0.0383,1.18639 0.15115,1.88935 0.89917,2.59664 z"
       id="path10098" />
    <path
       style="color:#000000;fill:#83e68a;stroke-width:0.352778;stroke-miterlimit:10;-inkscape-stroke:none"
       d="m 297.68083,272.94916 c -1.57772,-1.49179 -2.09697,-3.53165 -2.03755,-5.36042 0.0594,-1.82876 0.56632,-3.57559 1.01926,-5.2192 0.4529,-1.64361 0.85194,-3.18448 0.8905,-4.37094 0.0384,-1.18647 -0.15208,-1.88924 -0.90014,-2.59664 -0.74781,-0.70712 -1.45937,-0.85799 -2.64173,-0.75315 -1.18241,0.10485 -2.6986,0.58948 -4.31428,1.13357 -1.61568,0.54408 -3.33136,1.14783 -5.15387,1.30936 -1.82256,0.16153 -3.88853,-0.2431 -5.4661,-1.73493 -1.57761,-1.49183 -2.09701,-3.53169 -2.03754,-5.36042 0.0595,-1.82872 0.56636,-3.57562 1.01926,-5.21919 0.4529,-1.64358 0.85199,-3.18457 0.8905,-4.37095 0.0384,-1.18639 -0.15213,-1.88839 -0.90014,-2.59568 v -9.8e-4 c -0.74786,-0.70724 -1.46041,-0.85794 -2.64272,-0.75315 -1.18236,0.10479 -2.69766,0.58949 -4.31334,1.13356 -1.61564,0.54408 -3.33137,1.14777 -5.15387,1.30937 -1.82251,0.1616 -3.88844,-0.24323 -5.46605,-1.73493 -1.57742,-1.49178 -2.09721,-3.53183 -2.03755,-5.36042 0.0596,-1.82859 0.56716,-3.57577 1.0202,-5.2192 0.45305,-1.64344 0.85184,-3.18281 0.8905,-4.36903 0.0389,-1.18622 -0.15159,-1.88875 -0.89915,-2.59567 -0.74791,-0.70724 -1.46041,-0.85794 -2.64272,-0.75315 -1.18237,0.10479 -2.69771,0.58853 -4.31335,1.13261 -1.61558,0.54407 -3.33141,1.14775 -5.15387,1.30936 -1.82246,0.1616 -3.88858,-0.24223 -5.4661,-1.73397 -1.57766,-1.49179 -2.09686,-3.53262 -2.03749,-5.36138 0.0594,-1.82876 0.56637,-3.57559 1.01921,-5.2192 0.4529,-1.64361 0.85204,-3.18352 0.89055,-4.36999 0.0384,-1.18647 -0.15208,-1.88923 -0.90014,-2.59663 -0.74771,-0.70708 -1.46045,-0.85799 -2.64277,-0.75315 -1.18226,0.10485 -2.69766,0.58849 -4.31329,1.13261 -1.61559,0.54411 -3.33141,1.1487 -5.15387,1.31032 -1.82246,0.16162 -3.88858,-0.24319 -5.4661,-1.73493 -1.57771,-1.4918 -2.09696,-3.53166 -2.03754,-5.36042 0.0595,-1.82875 0.56631,-3.57564 1.01926,-5.2192 0.45295,-1.64355 0.85199,-3.18369 0.89055,-4.36999 0.0384,-1.18629 -0.15218,-1.88947 -0.90014,-2.59663 -0.74796,-0.70736 -1.46041,-0.85884 -2.64277,-0.75411 -1.18231,0.10473 -2.69761,0.58955 -4.3133,1.13356 -1.61568,0.54402 -3.33131,1.14786 -5.15387,1.30937 -1.8226,0.16151 -3.88838,-0.24315 -5.46609,-1.73493 v 0 c -1.57762,-1.49191 -2.09687,-3.53257 -2.0375,-5.36138 0.0593,-1.82881 0.56642,-3.57556 1.01922,-5.2192 0.45284,-1.64364 0.85208,-3.18353 0.89054,-4.36999 0.0384,-1.18646 -0.15291,-1.89014 -0.90112,-2.59759 -0.74771,-0.70708 -1.45947,-0.858 -2.64173,-0.75315 -1.18232,0.10485 -2.69771,0.58945 -4.31334,1.13356 -1.6156,0.54411 -3.33142,1.14775 -5.15387,1.30937 -1.82245,0.16162 -3.88859,-0.24222 -5.46609,-1.73397 -1.57773,-1.49199 -2.09681,-3.53249 -2.03754,-5.36138 0.0593,-1.82889 0.56548,-3.57649 1.01829,-5.22016 0.45281,-1.64368 0.85207,-3.18352 0.89052,-4.36999 0.0385,-1.18647 -0.15194,-1.89014 -0.90013,-2.59759 h -9.8e-4 c -0.7484,-0.70774 -1.46116,-0.85872 -2.6437,-0.75411 -1.18255,0.10461 -2.69747,0.58871 -4.31331,1.1326 -1.61585,0.54389 -3.33209,1.14805 -5.15484,1.30936 -1.82276,0.16133 -3.8892,-0.24394 -5.46705,-1.73588 -1.57789,-1.49216 -2.09758,-3.53233 -2.0385,-5.36138 0.0591,-1.82905 0.5656,-3.57636 1.01829,-5.22016 0.45269,-1.64381 0.85122,-3.18434 0.88956,-4.37095 0.0383,-1.18662 -0.15256,-1.88982 -0.90109,-2.5976 -0.74857,-0.70789 -1.46109,-0.85866 -2.6437,-0.75411 -1.18262,0.10456 -2.69837,0.58878 -4.31428,1.13261 -1.6159,0.54383 -3.33199,1.14718 -5.15483,1.3084 -1.82284,0.16123 -3.88912,-0.24386 -5.46705,-1.73589 l 2.50249,-2.64658 c 0.74853,0.70777 1.46105,0.85967 2.6437,0.75506 1.18265,-0.1046 2.69834,-0.58876 4.31427,-1.1326 1.61593,-0.54384 3.33197,-1.14725 5.15484,-1.3084 1.82287,-0.16116 3.88916,0.24374 5.46705,1.73589 1.57793,1.49203 2.09758,3.53237 2.0385,5.36138 -0.0591,1.829 -0.5656,3.57636 -1.01829,5.22016 -0.45269,1.6438 -0.85123,3.1833 -0.88956,4.36999 -0.0383,1.18669 0.15251,1.89065 0.90108,2.59855 0.74837,0.70761 1.46113,0.85877 2.64371,0.75411 1.18258,-0.10466 2.69745,-0.58871 4.31331,-1.13261 1.61586,-0.5439 3.33205,-1.14811 5.15484,-1.30936 1.82278,-0.16125 3.88924,0.24382 5.46705,1.73589 1.57777,1.49186 2.09777,3.53254 2.03849,5.36138 -0.0593,1.82884 -0.56643,3.57553 -1.01925,5.2192 -0.45281,1.64367 -0.85206,3.1844 -0.89052,4.37095 -0.0385,1.18655 0.15286,1.88906 0.90109,2.59663 0.74773,0.70708 1.45951,0.85799 2.64178,0.75315 1.18228,-0.10484 2.69771,-0.58946 4.31331,-1.13357 1.61561,-0.54411 3.33147,-1.14774 5.15393,-1.30936 1.82241,-0.16161 3.88858,0.24319 5.46604,1.73493 1.57782,1.49187 2.0978,3.53158 2.03853,5.36042 -0.0593,1.82884 -0.56641,3.57651 -1.01926,5.22016 -0.45285,1.64365 -0.85199,3.1835 -0.8905,4.36999 -0.0384,1.18649 0.15203,1.88923 0.90009,2.59663 0.74806,0.70729 1.46036,0.85889 2.64277,0.75411 1.18241,-0.10478 2.69855,-0.58954 4.31428,-1.13356 1.61568,-0.54402 3.33131,-1.14793 5.15387,-1.30936 1.82256,-0.16145 3.88853,0.24393 5.4661,1.73588 1.57732,1.49163 2.09691,3.53193 2.03749,5.36042 -0.0594,1.82871 -0.56627,3.57565 -1.01921,5.2192 -0.45295,1.64355 -0.85199,3.18362 -0.89055,4.36999 -0.0384,1.18637 0.15213,1.88936 0.90014,2.59663 0.74771,0.70708 1.45952,0.85799 2.64178,0.75315 1.18227,-0.10484 2.69771,-0.58945 4.3133,-1.13356 1.61563,-0.54412 3.33146,-1.14775 5.15392,-1.30937 1.82241,-0.16161 3.88858,0.24223 5.46605,1.73397 1.57766,1.49191 2.09789,3.53257 2.03852,5.36138 -0.0594,1.82881 -0.56641,3.57558 -1.01926,5.2192 -0.4529,1.64362 -0.85199,3.18359 -0.8905,4.36999 -0.0384,1.1864 0.15208,1.88935 0.90009,2.59664 0.74776,0.70707 1.45952,0.85798 2.64179,0.75314 1.18231,-0.10484 2.69766,-0.58852 4.31334,-1.1326 1.61564,-0.54409 3.3323,-1.14783 5.15481,-1.30937 1.82255,-0.16153 3.88853,0.24215 5.46609,1.73397 1.57742,1.49166 2.09623,3.53188 2.03656,5.36042 -0.0596,1.82854 -0.56715,3.57577 -1.02019,5.2192 -0.45305,1.64343 -0.85184,3.1837 -0.8905,4.36999 -0.0389,1.18629 0.15154,1.88863 0.89915,2.59567 0.74786,0.70712 1.46036,0.85799 2.64272,0.75315 1.18236,-0.10484 2.69766,-0.58948 4.31335,-1.13356 1.61568,-0.54409 3.33131,-1.14783 5.15387,-1.30937 1.8225,-0.16153 3.88946,0.2431 5.46703,1.73493 1.57771,1.49179 2.09691,3.53166 2.03754,5.36042 -0.0594,1.82876 -0.56636,3.57657 -1.01926,5.22016 -0.4529,1.6436 -0.85194,3.18357 -0.8905,4.36999 -0.0384,1.18641 0.15223,1.88939 0.90014,2.59663 0.74786,0.70724 1.45942,0.85794 2.64178,0.75315 1.18232,-0.10479 2.6986,-0.58949 4.31423,-1.13356 1.61569,-0.54408 3.33142,-1.14776 5.15392,-1.30937 1.82246,-0.1616 3.88844,0.24323 5.46605,1.73493 1.57767,1.49192 2.09696,3.5316 2.03755,5.36042 -0.0594,1.82882 -0.56632,3.57654 -1.01927,5.22016 -0.45289,1.64362 -0.85193,3.1836 -0.8905,4.36999 -0.0384,1.18639 0.15213,1.88936 0.90014,2.59663 z"
       id="path4910" />
    <path
       style="color:#000000;fill:#83e68a;stroke-width:0.352778;stroke-miterlimit:10;-inkscape-stroke:none"
       d="m 148.84179,132.20074 c -1.57766,-1.49178 -2.09691,-3.53166 -2.0375,-5.36043 0.0594,-1.82876 0.56632,-3.57557 1.01922,-5.2192 0.4529,-1.64361 0.85198,-3.18445 0.89054,-4.37094 0.0384,-1.1865 -0.15218,-1.88927 -0.90014,-2.59663 -0.74786,-0.70712 -1.46035,-0.85799 -2.64276,-0.75316 -1.18236,0.10484 -2.69761,0.58949 -4.31329,1.13357 -1.61569,0.54409 -3.33132,1.14783 -5.15388,1.30936 -1.82255,0.16154 -3.88853,-0.24311 -5.46609,-1.73493 -1.57757,-1.49182 -2.09696,-3.53169 -2.03755,-5.36042 0.0594,-1.82872 0.56637,-3.57562 1.01926,-5.21919 0.4529,-1.64358 0.85105,-3.18458 0.88957,-4.370952 0.0383,-1.186389 -0.15115,-1.888395 -0.89916,-2.595672 v -9.9e-4 c -0.74785,-0.707235 -1.45942,-0.857937 -2.64178,-0.753147 -1.18232,0.104846 -2.69766,0.589493 -4.31331,1.133562 -1.61568,0.544082 -3.33233,1.147768 -5.15484,1.309373 -1.82252,0.161604 -3.88844,-0.243237 -5.4661,-1.734933 -1.57737,-1.49178 -2.09618,-3.531825 -2.03656,-5.360422 0.0597,-1.828583 0.56622,-3.575771 1.01926,-5.2192 0.45305,-1.64343 0.85278,-3.182809 0.89148,-4.36903 0.0389,-1.186221 -0.15158,-1.888744 -0.89915,-2.595672 -0.74792,-0.707235 -1.46045,-0.857937 -2.64277,-0.753147 -1.18231,0.104846 -2.69766,0.588531 -4.3133,1.132613 -1.61563,0.544069 -3.33146,1.147755 -5.153866,1.30936 -1.822462,0.161604 -3.888579,-0.242233 -5.46609,-1.733971 -1.57772,-1.491794 -2.096916,-3.53262 -2.03755,-5.361384 0.05939,-1.82875 0.566363,-3.575589 1.019263,-5.2192 0.452845,-1.643611 0.85105,-3.18352 0.889558,-4.369992 0.03834,-1.186458 -0.152068,-1.889218 -0.900126,-2.596634 -0.747723,-0.707068 -1.459531,-0.857979 -2.641793,-0.753147 -1.182262,0.104846 -2.697702,0.588503 -4.313289,1.132613 -1.615642,0.544111 -3.33146,1.148703 -5.153881,1.310322 -1.822448,0.161618 -3.888621,-0.243181 -5.46609,-1.734933 -1.57772,-1.491794 -2.096957,-3.531658 -2.037549,-5.360408 0.05939,-1.828764 0.56632,-3.575645 1.019262,-5.219215 0.452901,-1.643541 0.851942,-3.183686 0.890506,-4.369977 0.03834,-1.186305 -0.152179,-1.889483 -0.90014,-2.596634 -0.747904,-0.707361 -1.460409,-0.858843 -2.642727,-0.754109 -1.182303,0.104706 -2.697604,0.589548 -4.313344,1.133561 -1.615685,0.544013 -3.332242,1.147852 -5.154801,1.30936 -1.822602,0.161507 -3.888385,-0.243139 -5.466091,-1.734919 -1.577664,-1.491919 -2.096915,-3.532578 -2.037549,-5.361384 0.05939,-1.828806 0.566418,-3.575562 1.019263,-5.219208 0.452844,-1.643636 0.851105,-3.18353 0.889558,-4.36999 0.03834,-1.186455 -0.151929,-1.890143 -0.900127,-2.597593 -0.747723,-0.707076 -1.460465,-0.857991 -2.642727,-0.753148 -1.182317,0.104845 -2.696767,0.589455 -4.312354,1.133565 -1.615643,0.544112 -3.331461,1.147746 -5.153867,1.309365 -1.822462,0.161617 -3.888635,-0.242223 -5.466104,-1.733971 -1.577762,-1.491987 -2.097794,-3.53249 -2.038526,-5.361377 0.05926,-1.828886 0.56646,-3.576486 1.019263,-5.220161 0.452803,-1.64368 0.851105,-3.183516 0.889558,-4.36999 C 37.128921,10.511483 36.938651,9.8078104 36.19044,9.1003608 35.442047,8.3926294 34.729305,8.2416417 33.546737,8.3462533 32.364242,8.4508621 30.848342,8.9349651 29.232463,9.4788554 27.616639,10.02275 25.900416,10.626901 24.077661,10.788219 22.254906,10.949542 20.18943,10.544275 18.611571,9.0523311 17.033656,7.5601762 16.513024,5.5200042 16.572098,3.6909543 c 0.05911,-1.82905 0.566571,-3.57636349 1.019262,-5.2201613 0.452705,-1.6438034 0.851203,-3.1843336 0.889572,-4.3709509 0.03834,-1.1866172 -0.15257,-1.8898173 -0.90113,-2.5975918 -0.748546,-0.7078986 -1.462027,-0.858666 -2.644637,-0.754113 -1.18261,0.104553 -2.697409,0.5887773 -4.313288,1.1326077 -1.6159361,0.5438303 -3.332005,1.1471759 -5.1548576,1.3084 C 3.6441668,-6.6496267 1.5778962,-7.0547162 -4.8596247e-6,-8.5467428 L 2.5015011,-11.193329 c 0.7485041,0.707774 1.462027,0.859673 2.6446372,0.755067 1.1826521,-0.104609 2.6974087,-0.588768 4.3133443,-1.132603 1.6159214,-0.543835 3.3329384,-1.147249 5.1557914,-1.308405 1.822852,-0.161155 3.889165,0.243743 5.467024,1.735893 1.577957,1.4920281 2.097599,3.5323772 2.038526,5.361377 -0.05912,1.8290012 -0.566558,3.5763676 -1.019263,5.22016125 -0.452691,1.64379915 -0.851245,3.18330055 -0.889558,4.36999165 -0.03834,1.1866911 0.152528,1.8906538 0.901074,2.5985511 0.748351,0.7076128 1.461149,0.8587733 2.643703,0.7541074 1.18261,-0.1046645 2.698399,-0.5887021 4.314279,-1.1326021 1.615879,-0.5438986 3.332046,-1.1481143 5.154852,-1.3093635 1.822797,-0.1612491 3.889221,0.2438209 5.467025,1.7358934 1.577761,1.4918593 2.096818,3.5325388 2.037549,5.3613768 -0.05925,1.828838 -0.566418,3.575527 -1.019263,5.219202 -0.452802,1.643671 -0.851105,3.184402 -0.889571,4.370945 -0.03834,1.186549 0.151942,1.889066 0.90014,2.596634 0.747723,0.707076 1.460465,0.857992 2.642769,0.753149 1.182261,-0.104846 2.697659,-0.589455 4.313302,-1.133567 1.615587,-0.544111 3.331405,-1.147747 5.153867,-1.309364 1.822212,-0.161593 3.887701,0.243644 5.465114,1.734934 1.577804,1.491865 2.097794,3.531574 2.038526,5.360418 -0.05926,1.828838 -0.566418,3.576506 -1.019263,5.220161 -0.452844,1.643656 -0.851049,3.183508 -0.889558,4.369995 -0.03834,1.186486 0.152082,1.889231 0.900126,2.596634 0.748017,0.707276 1.460313,0.858885 2.642728,0.754108 1.182456,-0.104845 2.697603,-0.589548 4.313344,-1.133561 1.615684,-0.544027 3.331307,-1.147936 5.153867,-1.309373 1.822169,-0.161396 3.888677,0.243766 5.466104,1.734933 v 9.9e-4 c 1.576967,1.491584 2.096957,3.532103 2.037536,5.360407 -0.05939,1.828709 -0.566307,3.57566 -1.019263,5.219201 -0.4529,1.643555 -0.851928,3.183617 -0.890492,4.369992 -0.03834,1.186374 0.151148,1.889357 0.89915,2.596634 v 0 c 0.747709,0.707081 1.459476,0.857992 2.641793,0.753146 1.182262,-0.104845 2.69766,-0.58945 4.313288,-1.133561 1.615588,-0.54411 3.331419,-1.147754 5.153868,-1.309373 1.822462,-0.161605 3.888579,0.242233 5.466104,1.733971 1.577664,1.491919 2.096915,3.532577 2.037549,5.361383 -0.05939,1.828806 -0.566418,3.57559 -1.019276,5.219201 -0.452887,1.643611 -0.852026,3.183589 -0.890548,4.369992 -0.03834,1.186402 0.152138,1.889343 0.90014,2.596634 0.747723,0.707081 1.460465,0.857992 2.642769,0.753147 1.182275,-0.104846 2.697655,-0.588517 4.313305,-1.1326 1.61563,-0.544082 3.33136,-1.147838 5.15386,-1.309373 1.82256,-0.161521 3.88854,0.242149 5.46609,1.733971 1.57743,1.491654 2.09717,3.53188 2.03755,5.360422 -0.0597,1.828541 -0.56715,3.57577 -1.02019,5.2192 -0.4531,1.64343 -0.85185,3.183701 -0.89055,4.369992 -0.0389,1.186291 0.15154,1.888618 0.89915,2.595672 0.74786,0.707123 1.46041,0.857978 2.64277,0.753147 1.18237,-0.104846 2.69762,-0.589493 4.3133,-1.133576 1.61569,-0.544068 3.33136,-1.147824 5.15387,-1.309359 1.82256,-0.161521 3.88854,0.243111 5.4661,1.734933 1.57771,1.49178 2.0969,3.531657 2.03754,5.360422 -0.0594,1.828751 -0.56636,3.576561 -1.01926,5.220161 -0.45291,1.6436 -0.85193,3.18358 -0.8905,4.36998 -0.0383,1.18642 0.15222,1.8894 0.90014,2.59663 0.74785,0.70725 1.4604,0.85794 2.64272,0.75316 1.18231,-0.10484 2.69766,-0.58949 4.3133,-1.13357 1.61568,-0.54407 3.3314,-1.14776 5.15391,-1.30936 1.82246,-0.16161 3.88844,0.24322 5.46605,1.73493 v 0 c 1.57752,1.49195 2.09603,3.53259 2.03656,5.36137 -0.0595,1.82879 -0.56631,3.57561 -1.01927,5.2192 -0.45288,1.64361 -0.85099,3.18361 -0.88951,4.36999 -0.0383,1.18639 0.15114,1.88935 0.89916,2.59664 z"
       id="path10100" />
  </g>
</svg>
