<?xml version="1.0" encoding="UTF-8"?>
<svg id="Layer_2" data-name="Layer 2" xmlns="http://www.w3.org/2000/svg" viewBox="0 0 461.55 295.04">
  <defs>
    <style>
      .cls-1 {
        fill: none;
        stroke: #6ab3df;
        stroke-miterlimit: 10;
        stroke-width: 7.4px;
      }

      .cls-2 {
        fill: #e86353;
        stroke-width: 0px;
      }
    </style>
  </defs>
  <g id="Layer_1-2" data-name="Layer 1">
    <circle class="cls-2" cx="245.85" cy="207.34" r="73.25"/>
    <path class="cls-1" d="m305.16,292.36c-9.46-8.94,7.37-26.73-2.09-35.68-9.46-8.94-26.28,8.85-35.73-.09-9.46-8.94,7.37-26.73-2.09-35.67-9.46-8.94-26.28,8.85-35.74-.09-9.45-8.94,7.37-26.73-2.09-35.67-9.46-8.94-26.28,8.85-35.73-.09-9.46-8.94,7.37-26.73-2.09-35.68-9.46-8.94-26.28,8.85-35.73-.09-9.46-8.94,7.37-26.73-2.09-35.67-9.46-8.94-26.28,8.85-35.74-.09-9.46-8.94,7.37-26.73-2.09-35.68-9.46-8.94-26.28,8.85-35.73-.09s7.36-26.73-2.09-35.68c-9.46-8.94-26.28,8.85-35.74-.1s7.36-26.74-2.1-35.68c-9.46-8.95-26.28,8.85-35.74-.1"/>
    <path class="cls-1" d="m381.05,292.36c-9.46-8.94,7.37-26.73-2.09-35.68-9.46-8.94-26.28,8.85-35.73-.09-9.46-8.94,7.37-26.73-2.09-35.67-9.46-8.94-26.28,8.85-35.74-.09-9.45-8.94,7.37-26.73-2.09-35.67-9.46-8.94-26.28,8.85-35.73-.09-9.46-8.94,7.37-26.73-2.09-35.68-9.46-8.94-26.28,8.85-35.73-.09-9.46-8.94,7.37-26.73-2.09-35.67-9.46-8.94-26.28,8.85-35.74-.09-9.46-8.94,7.37-26.73-2.09-35.68-9.46-8.94-26.28,8.85-35.73-.09-9.46-8.94,7.36-26.73-2.09-35.68-9.46-8.94-26.28,8.85-35.74-.1-9.46-8.95,7.36-26.74-2.1-35.68-9.46-8.95-26.28,8.85-35.74-.1"/>
    <path class="cls-1" d="m456.94,292.36c-9.46-8.94,7.37-26.73-2.09-35.68-9.46-8.94-26.28,8.85-35.73-.09-9.46-8.94,7.37-26.73-2.09-35.67-9.46-8.94-26.28,8.85-35.74-.09-9.45-8.94,7.37-26.73-2.09-35.67-9.46-8.94-26.28,8.85-35.73-.09-9.46-8.94,7.37-26.73-2.09-35.68-9.46-8.94-26.28,8.85-35.73-.09-9.46-8.94,7.37-26.73-2.09-35.67-9.46-8.94-26.28,8.85-35.74-.09-9.46-8.94,7.37-26.73-2.09-35.68-9.46-8.94-26.28,8.85-35.73-.09-9.46-8.94,7.36-26.73-2.09-35.68-9.46-8.94-26.28,8.85-35.74-.1s7.36-26.74-2.1-35.68c-9.46-8.95-26.28,8.85-35.74-.1"/>
  </g>
</svg>