<?xml version="1.0" encoding="utf-8"?>
<!-- Generator: Adobe Illustrator 27.8.1, SVG Export Plug-In . SVG Version: 6.00 Build 0)  -->
<svg version="1.1" xmlns="http://www.w3.org/2000/svg" xmlns:xlink="http://www.w3.org/1999/xlink" x="0px" y="0px"
	 viewBox="0 0 291.9 291.7" style="enable-background:new 0 0 291.9 291.7;" xml:space="preserve">
<style type="text/css">
	.st0{display:none;}
	.st1{display:inline;fill:#252734;}
	.st2{display:none;fill:none;stroke:#483C53;stroke-width:0.6174;stroke-miterlimit:10;}
	.st3{opacity:0.32;fill:url(#SVGID_1_);}
	.st4{display:none;fill:#6CB3DF;}
	.st5{display:inline;fill:#FFFFFF;}
</style>
<g id="RECORD">
</g>
<g id="LABEL">
	<g>
		<g class="st0">
			<path class="st1" d="M145.9,5.3c-34.7,0-66.4,12.6-90.9,33.4C37.7,53.3,24,72.2,15.4,93.6c-6.5,16.2-10,33.8-10,52.3
				c0,77.6,62.9,140.6,140.6,140.6c77.6,0,140.6-62.9,140.6-140.6S223.6,5.3,145.9,5.3z M145.9,226c-44.3,0-80.1-35.9-80.1-80.1
				c0-5,0.5-9.9,1.3-14.7c4.4-23.7,19.1-43.7,39.4-55.1c11.6-6.6,25.1-10.4,39.4-10.4c44.3,0,80.1,35.9,80.1,80.1
				C226.1,190.1,190.2,226,145.9,226z"/>
		</g>
		<path class="st2" d="M244.4,145.9c0,54.4-44.1,98.4-98.4,98.4s-98.4-44.1-98.4-98.4s44.1-98.4,98.4-98.4S244.4,91.5,244.4,145.9z
			 M145.9,27.8c-65.2,0-118.1,52.9-118.1,118.1S80.7,264,145.9,264S264,211.1,264,145.9S211.2,27.8,145.9,27.8z"/>
		<linearGradient id="SVGID_1_" gradientUnits="userSpaceOnUse" x1="38.9942" y1="111.3548" x2="80.4024" y2="56.4042">
			<stop  offset="3.905484e-02" style="stop-color:#252734"/>
			<stop  offset="8.674508e-02" style="stop-color:#31323E;stop-opacity:0.9519"/>
			<stop  offset="0.1812" style="stop-color:#53515B;stop-opacity:0.8567"/>
			<stop  offset="0.312" style="stop-color:#97939B;stop-opacity:0.7248"/>
			<stop  offset="0.4357" style="stop-color:#FFFFFF;stop-opacity:0.6"/>
			<stop  offset="0.5501" style="stop-color:#FFFFFF;stop-opacity:0.6"/>
			<stop  offset="0.6258" style="stop-color:#AAA7AD;stop-opacity:0.688"/>
			<stop  offset="0.7194" style="stop-color:#68646E;stop-opacity:0.7966"/>
			<stop  offset="0.7986" style="stop-color:#42414C;stop-opacity:0.8887"/>
			<stop  offset="0.8594" style="stop-color:#2C2E3A;stop-opacity:0.9593"/>
			<stop  offset="0.8945" style="stop-color:#252734"/>
		</linearGradient>
		<path class="st3" d="M106.5,76.1c-20.2,11.4-35,31.5-39.4,55.1L15.4,93.6C24,72.2,37.7,53.3,55,38.6L106.5,76.1z"/>
	</g>
	<path class="st4" d="M145.9,65.7c-14.3,0-27.8,3.8-39.4,10.4c-20.2,11.4-35,31.5-39.4,55.1c-0.9,4.8-1.3,9.7-1.3,14.7
		c0,44.3,35.9,80.1,80.1,80.1s80.1-35.9,80.1-80.1C226.1,101.6,190.2,65.7,145.9,65.7z"/>
	<g class="st0">
		<path class="st5" d="M116,124.4c-4.4,6-6.9,13.5-6.9,21.5s2.6,15.4,6.9,21.5c0.3,0.4,0.6,0.8,0.9,1.2l-0.4,0.6l0,0l-2.4,3.8
			l-1.1,1.7l-2.5-3.4l-0.2-3.5c-0.2-0.2-0.3-0.5-0.4-0.7c-0.1-0.2-0.2-0.4-0.4-0.6c-0.2-0.3-0.4-0.6-0.5-1c-0.1-0.2-0.2-0.5-0.3-0.7
			c-0.1-0.2-0.2-0.4-0.3-0.6c-0.1-0.2-0.1-0.3-0.2-0.5c-0.1-0.2-0.2-0.4-0.3-0.7c-0.3-0.8-0.6-1.5-1-2.3c-0.1-0.2-0.1-0.4-0.2-0.6
			c-0.1-0.4-0.3-0.7-0.4-1.1c-0.1-0.2-0.1-0.4-0.2-0.5c0-0.1-0.1-0.2-0.1-0.3c-0.1-0.2-0.1-0.3-0.2-0.5c-0.1-0.2-0.1-0.4-0.2-0.6
			c-0.1-0.2-0.1-0.5-0.2-0.7c-0.3-1.2-0.6-2.5-0.8-3.7c0-0.2-0.1-0.4-0.1-0.6c0-0.2-0.1-0.4-0.1-0.6c0-0.3-0.1-0.6-0.1-0.8
			c0,0,0-0.1,0-0.1c0-0.2-0.1-0.4-0.1-0.7c0-0.1,0-0.3,0-0.4c0-0.2,0-0.5,0-0.7c0,0,0-0.1,0-0.1c0-0.2,0-0.5,0-0.8
			c0-0.4,0-0.7,0-1.1c0-0.3,0-0.6,0-1s0-0.7,0-1c0-0.4,0-0.7,0-1.1c0-0.2,0-0.5,0-0.8c0,0,0-0.1,0-0.1c0-0.2,0-0.5,0-0.7
			c0-0.2,0-0.3,0-0.4c0-0.2,0-0.4,0.1-0.7c0,0,0-0.1,0-0.1c0-0.3,0.1-0.6,0.1-0.8c0-0.2,0-0.4,0.1-0.6c0-0.2,0.1-0.4,0.1-0.6
			c0.2-1.2,0.5-2.5,0.8-3.7c0.1-0.2,0.1-0.5,0.2-0.7c0.1-0.2,0.1-0.4,0.2-0.7c0.1-0.2,0.1-0.3,0.2-0.5c0-0.1,0.1-0.2,0.1-0.3
			c0.1-0.2,0.1-0.4,0.2-0.5c0.1-0.4,0.2-0.7,0.4-1.1c0.1-0.2,0.1-0.4,0.2-0.6c0.3-0.8,0.6-1.5,1-2.3c0.1-0.2,0.2-0.5,0.3-0.7
			c0.1-0.2,0.1-0.3,0.2-0.5c0.1-0.2,0.2-0.4,0.3-0.6c0.1-0.2,0.2-0.5,0.3-0.7c0.2-0.3,0.3-0.6,0.5-1c0.1-0.2,0.2-0.4,0.4-0.6
			c0.1-0.2,0.3-0.5,0.4-0.7l0.2-3.5l2.5-3.4l1.1,1.7l2.4,3.8l0,0l0.4,0.6C116.5,123.6,116.3,124,116,124.4z"/>
		<circle class="st5" cx="145.9" cy="145.9" r="9.6"/>
		<path class="st5" d="M173,177.7l1.7,1.1l-3.4,2.5l-3.5,0.2c-0.2,0.1-0.5,0.3-0.7,0.4c-0.2,0.1-0.4,0.2-0.6,0.4
			c-0.3,0.2-0.6,0.4-1,0.5c-0.2,0.1-0.4,0.2-0.7,0.3c-0.2,0.1-0.4,0.2-0.6,0.3c-0.1,0.1-0.3,0.2-0.5,0.2c-0.2,0.1-0.5,0.2-0.7,0.3
			c-0.7,0.3-1.5,0.6-2.3,0.9c-0.2,0.1-0.4,0.1-0.6,0.2c-0.4,0.1-0.7,0.3-1.1,0.4c-0.2,0.1-0.4,0.1-0.5,0.2c-0.1,0-0.2,0.1-0.3,0.1
			c-0.2,0-0.3,0.1-0.5,0.2c-0.2,0.1-0.4,0.1-0.7,0.2c-0.2,0.1-0.5,0.1-0.7,0.2c-1.2,0.3-2.5,0.6-3.7,0.8c-0.2,0-0.4,0.1-0.6,0.1
			c-0.2,0-0.4,0.1-0.6,0.1c-0.3,0-0.6,0.1-0.8,0.1c0,0-0.1,0-0.1,0c-0.2,0-0.4,0-0.7,0.1c-0.1,0-0.3,0-0.4,0c-0.2,0-0.4,0-0.7,0.1
			h-0.1c-0.3,0-0.5,0-0.8,0c-0.4,0-0.7,0-1.1,0c-0.3,0-0.6,0-1,0c-0.3,0-0.6,0-1,0c-0.4,0-0.7,0-1.1,0c-0.3,0-0.5,0-0.8,0H143
			c-0.2,0-0.5,0-0.7-0.1c-0.1,0-0.3,0-0.4,0c-0.2,0-0.4,0-0.7-0.1c0,0-0.1,0-0.1,0c-0.3,0-0.5-0.1-0.8-0.1c-0.2,0-0.4,0-0.6-0.1
			c-0.2,0-0.4-0.1-0.6-0.1c-1.3-0.2-2.5-0.5-3.7-0.8c-0.2-0.1-0.5-0.1-0.7-0.2c-0.2-0.1-0.4-0.1-0.6-0.2c-0.2-0.1-0.3-0.1-0.5-0.2
			c-0.1,0-0.2-0.1-0.3-0.1c-0.2-0.1-0.4-0.1-0.5-0.2c-0.4-0.1-0.7-0.2-1.1-0.4c-0.2-0.1-0.4-0.1-0.6-0.2c-0.8-0.3-1.5-0.6-2.3-0.9
			c-0.2-0.1-0.5-0.2-0.7-0.3c-0.2-0.1-0.3-0.2-0.5-0.2c-0.2-0.1-0.4-0.2-0.6-0.3c-0.2-0.1-0.5-0.2-0.7-0.3c-0.3-0.2-0.6-0.3-1-0.5
			c-0.2-0.1-0.4-0.2-0.6-0.4c-0.2-0.1-0.5-0.3-0.7-0.4l-3.5-0.2l-3.4-2.5l1.7-1.1l3.8-2.4h0l0.6-0.4c0.4,0.3,0.8,0.6,1.2,0.9
			c6,4.4,13.5,6.9,21.5,6.9c8,0,15.4-2.6,21.5-6.9c0.4-0.3,0.8-0.6,1.2-0.9l0.6,0.4h0L173,177.7z"/>
		<path class="st5" d="M171.3,110.4l3.4,2.5L173,114l-3.8,2.4h0l-0.6,0.4c-0.4-0.3-0.8-0.6-1.2-0.9c-6-4.4-13.5-6.9-21.5-6.9
			c-8,0-15.4,2.6-21.5,6.9c-0.4,0.3-0.8,0.6-1.2,0.9l-0.6-0.4h0l-3.8-2.4l-1.7-1.1l3.4-2.5l3.5-0.2c0.2-0.1,0.5-0.3,0.7-0.4
			c0.2-0.1,0.4-0.2,0.6-0.4c0.3-0.2,0.6-0.3,1-0.5c0.2-0.1,0.5-0.2,0.7-0.4c0.2-0.1,0.4-0.2,0.6-0.3c0.2-0.1,0.3-0.1,0.5-0.2
			c0.2-0.1,0.4-0.2,0.7-0.3c0.8-0.3,1.5-0.7,2.3-1c0.2-0.1,0.4-0.1,0.6-0.2c0.4-0.1,0.7-0.3,1.1-0.4c0.2-0.1,0.4-0.1,0.5-0.2
			c0.1,0,0.2-0.1,0.3-0.1c0.2,0,0.3-0.1,0.5-0.2c0.2-0.1,0.4-0.1,0.6-0.2c0.2-0.1,0.5-0.1,0.7-0.2c1.2-0.3,2.5-0.6,3.7-0.8
			c0.2,0,0.4-0.1,0.6-0.1c0.2,0,0.4-0.1,0.6-0.1c0.3,0,0.6-0.1,0.8-0.1c0,0,0.1,0,0.1,0c0.2,0,0.4,0,0.7-0.1c0.1,0,0.3,0,0.4,0
			c0.2,0,0.5,0,0.7,0h0.1c0.2,0,0.5,0,0.8,0c0.4,0,0.7,0,1.1,0c0.3,0,0.6,0,1,0c0.3,0,0.7,0,1,0c0.4,0,0.7,0,1.1,0
			c0.3,0,0.5,0,0.8,0h0.1c0.2,0,0.4,0,0.7,0c0.1,0,0.3,0,0.4,0c0.2,0,0.4,0,0.7,0.1c0,0,0.1,0,0.1,0c0.3,0,0.6,0.1,0.8,0.1
			c0.2,0,0.4,0,0.6,0.1c0.2,0,0.4,0.1,0.6,0.1c1.3,0.2,2.5,0.5,3.7,0.8c0.2,0.1,0.5,0.1,0.7,0.2c0.2,0.1,0.4,0.1,0.7,0.2
			c0.2,0.1,0.3,0.1,0.5,0.2c0.1,0,0.2,0.1,0.3,0.1c0.2,0.1,0.4,0.1,0.5,0.2c0.3,0.1,0.7,0.2,1.1,0.4c0.2,0.1,0.4,0.1,0.6,0.2
			c0.8,0.3,1.5,0.6,2.3,1c0.2,0.1,0.5,0.2,0.7,0.3c0.2,0.1,0.3,0.2,0.5,0.2c0.2,0.1,0.4,0.2,0.6,0.3c0.2,0.1,0.5,0.2,0.7,0.4
			c0.3,0.2,0.7,0.3,1,0.5c0.2,0.1,0.4,0.2,0.6,0.4c0.2,0.1,0.5,0.3,0.7,0.4L171.3,110.4z"/>
		<path class="st5" d="M187.8,144.9c0,0.3,0,0.7,0,1s0,0.7,0,1c0,0.4,0,0.7,0,1.1c0,0.3,0,0.5,0,0.8v0.1c0,0.2,0,0.5-0.1,0.7
			c0,0.1,0,0.3,0,0.4c0,0.2,0,0.5-0.1,0.7c0,0,0,0.1,0,0.1c0,0.3-0.1,0.5-0.1,0.8c0,0.2,0,0.4-0.1,0.6c0,0.2-0.1,0.4-0.1,0.6
			c-0.2,1.2-0.5,2.5-0.8,3.7c-0.1,0.2-0.1,0.5-0.2,0.7c-0.1,0.2-0.1,0.4-0.2,0.6c-0.1,0.2-0.1,0.3-0.2,0.5c0,0.1-0.1,0.2-0.1,0.3
			c-0.1,0.2-0.1,0.4-0.2,0.5c-0.1,0.4-0.2,0.7-0.4,1.1c-0.1,0.2-0.1,0.4-0.2,0.6c-0.3,0.8-0.6,1.5-1,2.3c-0.1,0.2-0.2,0.4-0.3,0.7
			c-0.1,0.2-0.1,0.3-0.2,0.5c-0.1,0.2-0.2,0.4-0.3,0.6c-0.1,0.2-0.2,0.5-0.3,0.7c-0.2,0.3-0.3,0.6-0.5,1c-0.1,0.2-0.2,0.4-0.4,0.6
			c-0.1,0.2-0.3,0.5-0.4,0.7l-0.2,3.5l-2.5,3.4l-1.1-1.7l-2.4-3.8l0,0l-0.4-0.6c0.3-0.4,0.6-0.8,0.9-1.2c4.4-6,6.9-13.5,6.9-21.5
			s-2.6-15.4-6.9-21.5c-0.3-0.4-0.6-0.8-0.9-1.2l0.4-0.6l0,0l2.4-3.8l1.1-1.7l2.5,3.4l0.2,3.5c0.1,0.2,0.3,0.5,0.4,0.7
			c0.1,0.2,0.2,0.4,0.4,0.6c0.2,0.3,0.3,0.6,0.5,1c0.1,0.2,0.2,0.5,0.3,0.7c0.1,0.2,0.2,0.4,0.3,0.6c0.1,0.2,0.1,0.3,0.2,0.5
			c0.1,0.2,0.2,0.5,0.3,0.7c0.3,0.7,0.7,1.5,1,2.3c0.1,0.2,0.1,0.4,0.2,0.6c0.1,0.4,0.3,0.7,0.4,1.1c0,0.2,0.1,0.4,0.2,0.5
			c0,0.1,0.1,0.2,0.1,0.3c0,0.2,0.1,0.3,0.2,0.5c0.1,0.2,0.1,0.4,0.2,0.7c0.1,0.2,0.1,0.5,0.2,0.7c0.3,1.2,0.6,2.5,0.8,3.7
			c0,0.2,0.1,0.4,0.1,0.6c0,0.2,0.1,0.4,0.1,0.6c0.1,0.3,0.1,0.6,0.1,0.8c0,0,0,0.1,0,0.1c0,0.2,0.1,0.4,0.1,0.7c0,0.1,0,0.3,0,0.4
			c0,0.2,0,0.4,0.1,0.7v0.1c0,0.3,0,0.5,0,0.8C187.8,144.1,187.8,144.5,187.8,144.9z"/>
	</g>
</g>
</svg>
