<?xml version="1.0" encoding="utf-8"?>
<!-- Generator: Adobe Illustrator 27.8.1, SVG Export Plug-In . SVG Version: 6.00 Build 0)  -->
<svg version="1.1" id="Layer_1" xmlns="http://www.w3.org/2000/svg" xmlns:xlink="http://www.w3.org/1999/xlink" x="0px" y="0px"
	 viewBox="0 0 327.5 316.4" style="enable-background:new 0 0 327.5 316.4;" xml:space="preserve">
<style type="text/css">
	.st0{fill:#252734;}
	.st1{fill:#6CB3DF;}
	.st2{fill:none;stroke:#483C53;stroke-width:0.6174;stroke-miterlimit:10;}
	.st3{display:none;opacity:0.32;fill:url(#SVGID_1_);}
</style>
<g>
	<path class="st0" d="M74.2,50.3c-17.3,14.7-31,33.5-39.6,54.9l63.9,46.4l39.8-54.8L74.2,50.3z"/>
	<path class="st0" d="M165.2,16.9c-34.7,0-66.4,12.6-90.9,33.4l64.1,46.6l-39.8,54.8l-63.9-46.4c-6.5,16.2-10,33.8-10,52.3
		c0,77.6,62.9,140.6,140.6,140.6c77.6,0,140.6-62.9,140.6-140.6S242.8,16.9,165.2,16.9z M135.2,179c0.3,0.4,0.6,0.8,0.9,1.2
		l-0.4,0.6l0,0l-2.4,3.8l-1.1,1.7l-2.5-3.4l-0.2-3.5c-0.2-0.2-0.3-0.5-0.4-0.7c-0.1-0.2-0.2-0.4-0.4-0.6c-0.2-0.3-0.4-0.6-0.5-1
		c-0.1-0.2-0.2-0.5-0.4-0.7c-0.1-0.2-0.2-0.4-0.3-0.6c-0.1-0.2-0.1-0.3-0.2-0.5c-0.1-0.2-0.2-0.4-0.3-0.7c-0.3-0.8-0.7-1.5-1-2.3
		c-0.1-0.2-0.1-0.4-0.2-0.6c-0.1-0.4-0.3-0.7-0.4-1.1c-0.1-0.2-0.1-0.4-0.2-0.5c0-0.1-0.1-0.2-0.1-0.3c-0.1-0.2-0.1-0.3-0.2-0.5
		c-0.1-0.2-0.1-0.4-0.2-0.6c-0.1-0.2-0.1-0.5-0.2-0.7c-0.3-1.2-0.6-2.5-0.8-3.7c0-0.2-0.1-0.4-0.1-0.6c0-0.2-0.1-0.4-0.1-0.6
		c0-0.3-0.1-0.6-0.1-0.8c0,0,0-0.1,0-0.1c0-0.2,0-0.4-0.1-0.7c0-0.1,0-0.3,0-0.4c0-0.2,0-0.5,0-0.7c0,0,0-0.1,0-0.1
		c0-0.2,0-0.5,0-0.8c0-0.4,0-0.7,0-1.1c0-0.3,0-0.6,0-1s0-0.7,0-1c0-0.4,0-0.7,0-1.1c0-0.2,0-0.5,0-0.8c0,0,0-0.1,0-0.1
		c0-0.2,0-0.5,0-0.7c0-0.2,0-0.3,0-0.4c0-0.2,0-0.4,0.1-0.7c0,0,0-0.1,0-0.1c0-0.3,0.1-0.6,0.1-0.8c0-0.2,0-0.4,0.1-0.6
		c0-0.2,0.1-0.4,0.1-0.6c0.2-1.2,0.5-2.5,0.8-3.7c0.1-0.2,0.1-0.5,0.2-0.7c0-0.2,0.1-0.4,0.2-0.7c0-0.2,0.1-0.3,0.2-0.5
		c0-0.1,0.1-0.2,0.1-0.3c0-0.2,0.1-0.4,0.2-0.5c0.1-0.4,0.2-0.7,0.4-1.1c0.1-0.2,0.1-0.4,0.2-0.6c0.3-0.8,0.6-1.5,1-2.3
		c0.1-0.2,0.2-0.5,0.3-0.7c0.1-0.2,0.1-0.3,0.2-0.5c0.1-0.2,0.2-0.4,0.3-0.6c0.1-0.2,0.2-0.5,0.4-0.7c0.2-0.3,0.3-0.6,0.5-1
		c0.1-0.2,0.2-0.4,0.4-0.6c0.1-0.2,0.3-0.5,0.4-0.7l0.2-3.5l2.5-3.4l1.1,1.7l2.4,3.8l0,0l0.4,0.6c-0.3,0.4-0.6,0.8-0.9,1.2
		c-4.4,6-6.9,13.5-6.9,21.5S130.8,172.9,135.2,179z M190.5,193l-3.5,0.2c-0.2,0.1-0.4,0.3-0.7,0.4c-0.2,0.1-0.4,0.2-0.6,0.4
		c-0.3,0.2-0.6,0.4-1,0.5c-0.2,0.1-0.4,0.2-0.7,0.3c-0.2,0.1-0.4,0.2-0.6,0.3c-0.1,0.1-0.3,0.2-0.5,0.2c-0.2,0.1-0.5,0.2-0.7,0.3
		c-0.7,0.3-1.5,0.6-2.3,0.9c-0.2,0.1-0.4,0.1-0.6,0.2c-0.4,0.1-0.7,0.3-1.1,0.4c-0.2,0.1-0.4,0.1-0.5,0.2c-0.1,0-0.2,0.1-0.3,0.1
		c-0.2,0-0.3,0.1-0.5,0.2c-0.2,0.1-0.4,0.1-0.7,0.2c-0.2,0.1-0.5,0.1-0.7,0.2c-1.2,0.3-2.5,0.6-3.7,0.8c-0.2,0-0.4,0.1-0.6,0.1
		c-0.2,0-0.4,0.1-0.6,0.1c-0.3,0-0.6,0.1-0.8,0.1c0,0-0.1,0-0.1,0c-0.2,0-0.4,0-0.7,0.1c-0.1,0-0.3,0-0.4,0c-0.2,0-0.4,0-0.7,0.1
		H168c-0.3,0-0.5,0-0.8,0c-0.4,0-0.7,0-1.1,0c-0.3,0-0.6,0-1,0c-0.3,0-0.6,0-1,0c-0.4,0-0.7,0-1.1,0c-0.3,0-0.5,0-0.8,0h-0.1
		c-0.2,0-0.5,0-0.7-0.1c-0.1,0-0.3,0-0.4,0c-0.2,0-0.4,0-0.7-0.1c0,0-0.1,0-0.1,0c-0.3,0-0.5-0.1-0.8-0.1c-0.2,0-0.4,0-0.6-0.1
		c-0.2,0-0.4-0.1-0.6-0.1c-1.3-0.2-2.5-0.5-3.7-0.8c-0.2-0.1-0.5-0.1-0.7-0.2c-0.2-0.1-0.4-0.1-0.6-0.2c-0.2-0.1-0.3-0.1-0.5-0.2
		c-0.1,0-0.2-0.1-0.3-0.1c-0.2-0.1-0.4-0.1-0.5-0.2c-0.4-0.1-0.7-0.2-1.1-0.4c-0.2-0.1-0.4-0.1-0.6-0.2c-0.8-0.3-1.5-0.6-2.3-0.9
		c-0.2-0.1-0.5-0.2-0.7-0.3c-0.2-0.1-0.3-0.2-0.5-0.2c-0.2-0.1-0.4-0.2-0.6-0.3c-0.2-0.1-0.5-0.2-0.7-0.3c-0.3-0.2-0.6-0.3-1-0.5
		c-0.2-0.1-0.4-0.2-0.6-0.4c-0.2-0.1-0.5-0.3-0.7-0.4l-3.5-0.2l-3.4-2.5l1.7-1.1l3.8-2.4h0l0.6-0.4c0.4,0.3,0.8,0.6,1.2,0.9
		c6,4.4,13.5,6.9,21.5,6.9c8,0,15.4-2.6,21.5-6.9c0.4-0.3,0.8-0.6,1.2-0.9l0.6,0.4h0l3.8,2.4l1.7,1.1L190.5,193z M155.6,157.5
		c0-5.3,4.3-9.6,9.6-9.6c5.3,0,9.6,4.3,9.6,9.6s-4.3,9.6-9.6,9.6C159.9,167.1,155.6,162.8,155.6,157.5z M192.2,125.6l-3.8,2.4h0
		l-0.6,0.4c-0.4-0.3-0.8-0.6-1.2-0.9c-6-4.4-13.5-6.9-21.5-6.9c-8,0-15.4,2.6-21.5,6.9c-0.4,0.3-0.8,0.6-1.2,0.9l-0.6-0.4h0
		l-3.8-2.4l-1.7-1.1l3.4-2.5l3.5-0.2c0.2-0.1,0.5-0.3,0.7-0.4c0.2-0.1,0.4-0.2,0.6-0.4c0.3-0.2,0.6-0.3,1-0.5
		c0.2-0.1,0.5-0.2,0.7-0.4c0.2-0.1,0.4-0.2,0.6-0.3c0.2-0.1,0.3-0.1,0.5-0.2c0.2-0.1,0.4-0.2,0.7-0.3c0.8-0.3,1.5-0.7,2.3-1
		c0.2-0.1,0.4-0.1,0.6-0.2c0.4-0.1,0.7-0.3,1.1-0.4c0.2-0.1,0.3-0.1,0.5-0.2c0.1,0,0.2-0.1,0.3-0.1c0.2,0,0.3-0.1,0.5-0.2
		c0.2-0.1,0.4-0.1,0.6-0.2c0.2-0.1,0.5-0.1,0.7-0.2c1.2-0.3,2.5-0.6,3.7-0.8c0.2,0,0.4-0.1,0.6-0.1c0.2,0,0.4-0.1,0.6-0.1
		c0.3,0,0.6-0.1,0.8-0.1c0,0,0.1,0,0.1,0c0.2,0,0.4,0,0.7-0.1c0.1,0,0.3,0,0.4,0c0.2,0,0.5,0,0.7,0h0.1c0.2,0,0.5,0,0.8,0
		c0.4,0,0.7,0,1.1,0c0.3,0,0.6,0,1,0c0.3,0,0.6,0,1,0c0.4,0,0.7,0,1.1,0c0.3,0,0.5,0,0.8,0h0.1c0.2,0,0.5,0,0.7,0c0.1,0,0.3,0,0.4,0
		c0.2,0,0.4,0,0.7,0.1c0,0,0.1,0,0.1,0c0.3,0,0.6,0.1,0.8,0.1c0.2,0,0.4,0,0.6,0.1c0.2,0,0.4,0.1,0.6,0.1c1.3,0.2,2.5,0.5,3.7,0.8
		c0.2,0.1,0.5,0.1,0.7,0.2c0.2,0.1,0.4,0.1,0.7,0.2c0.2,0.1,0.3,0.1,0.5,0.2c0.1,0,0.2,0.1,0.3,0.1c0.2,0.1,0.3,0.1,0.5,0.2
		c0.4,0.1,0.7,0.2,1.1,0.4c0.2,0.1,0.4,0.1,0.6,0.2c0.8,0.3,1.5,0.6,2.3,1c0.2,0.1,0.5,0.2,0.7,0.3c0.2,0.1,0.3,0.2,0.5,0.2
		c0.2,0.1,0.4,0.2,0.6,0.3c0.2,0.1,0.5,0.2,0.7,0.4c0.3,0.2,0.6,0.3,1,0.5c0.2,0.1,0.4,0.2,0.6,0.4c0.2,0.1,0.5,0.3,0.7,0.4l3.5,0.2
		l3.4,2.5L192.2,125.6z M207,158.5c0,0.4,0,0.7,0,1.1c0,0.3,0,0.5,0,0.8v0.1c0,0.2,0,0.5-0.1,0.7c0,0.1,0,0.3,0,0.4
		c0,0.2,0,0.5-0.1,0.7c0,0,0,0.1,0,0.1c0,0.3-0.1,0.5-0.1,0.8c0,0.2,0,0.4-0.1,0.6c0,0.2,0,0.4-0.1,0.6c-0.2,1.2-0.5,2.5-0.8,3.7
		c-0.1,0.2-0.1,0.5-0.2,0.7c-0.1,0.2-0.1,0.4-0.2,0.6c0,0.2-0.1,0.3-0.1,0.5c0,0.1-0.1,0.2-0.1,0.3c-0.1,0.2-0.1,0.4-0.2,0.5
		c-0.1,0.4-0.2,0.7-0.4,1.1c-0.1,0.2-0.1,0.4-0.2,0.6c-0.3,0.8-0.6,1.5-1,2.3c-0.1,0.2-0.2,0.4-0.3,0.7c-0.1,0.2-0.1,0.3-0.2,0.5
		c-0.1,0.2-0.2,0.4-0.3,0.6c-0.1,0.2-0.2,0.5-0.3,0.7c-0.2,0.3-0.4,0.6-0.5,1c-0.1,0.2-0.2,0.4-0.4,0.6c-0.1,0.2-0.3,0.5-0.4,0.7
		l-0.2,3.5l-2.5,3.4l-1.1-1.7l-2.4-3.8l0,0l-0.3-0.6c0.3-0.4,0.6-0.8,0.9-1.2c4.4-6,6.9-13.5,6.9-21.5s-2.6-15.4-6.9-21.5
		c-0.3-0.4-0.6-0.8-0.9-1.2l0.3-0.6l0,0l2.4-3.8l1.1-1.7l2.5,3.4l0.2,3.5c0.1,0.2,0.3,0.5,0.4,0.7c0.1,0.2,0.2,0.4,0.4,0.6
		c0.2,0.3,0.3,0.6,0.5,1c0.1,0.2,0.2,0.5,0.3,0.7c0.1,0.2,0.2,0.4,0.3,0.6c0.1,0.2,0.1,0.3,0.2,0.5c0.1,0.2,0.2,0.5,0.3,0.7
		c0.3,0.7,0.7,1.5,1,2.3c0.1,0.2,0.1,0.4,0.2,0.6c0.1,0.4,0.3,0.7,0.4,1.1c0,0.2,0.1,0.4,0.2,0.5c0,0.1,0.1,0.2,0.1,0.3
		c0,0.2,0.1,0.3,0.1,0.5c0.1,0.2,0.1,0.4,0.2,0.7c0.1,0.2,0.1,0.5,0.2,0.7c0.3,1.2,0.6,2.5,0.8,3.7c0,0.2,0.1,0.4,0.1,0.6
		c0,0.2,0.1,0.4,0.1,0.6c0,0.3,0.1,0.6,0.1,0.8c0,0,0,0.1,0,0.1c0,0.2,0,0.4,0.1,0.7c0,0.1,0,0.3,0,0.4c0,0.2,0,0.4,0.1,0.7v0.1
		c0,0.3,0,0.5,0,0.8c0,0.4,0,0.7,0,1.1c0,0.3,0,0.7,0,1S207,158.1,207,158.5z"/>
	<path class="st1" d="M165.2,77.4c-14.3,0-27.8,3.8-39.4,10.4c-20.2,11.4-35,31.5-39.4,55.1c-0.9,4.8-1.3,9.7-1.3,14.7
		c0,44.3,35.9,80.1,80.1,80.1s80.1-35.9,80.1-80.1C245.3,113.2,209.4,77.4,165.2,77.4z M135.2,179c0.3,0.4,0.6,0.8,0.9,1.2l-0.4,0.6
		l0,0l-2.4,3.8l-1.1,1.7l-2.5-3.4l-0.2-3.5c-0.2-0.2-0.3-0.5-0.4-0.7c-0.1-0.2-0.2-0.4-0.4-0.6c-0.2-0.3-0.4-0.6-0.5-1
		c-0.1-0.2-0.2-0.5-0.4-0.7c-0.1-0.2-0.2-0.4-0.3-0.6c-0.1-0.2-0.1-0.3-0.2-0.5c-0.1-0.2-0.2-0.4-0.3-0.7c-0.3-0.8-0.7-1.5-1-2.3
		c-0.1-0.2-0.1-0.4-0.2-0.6c-0.1-0.4-0.3-0.7-0.4-1.1c-0.1-0.2-0.1-0.4-0.2-0.5c0-0.1-0.1-0.2-0.1-0.3c-0.1-0.2-0.1-0.3-0.2-0.5
		c-0.1-0.2-0.1-0.4-0.2-0.6c-0.1-0.2-0.1-0.5-0.2-0.7c-0.3-1.2-0.6-2.5-0.8-3.7c0-0.2-0.1-0.4-0.1-0.6c0-0.2-0.1-0.4-0.1-0.6
		c0-0.3-0.1-0.6-0.1-0.8c0,0,0-0.1,0-0.1c0-0.2,0-0.4-0.1-0.7c0-0.1,0-0.3,0-0.4c0-0.2,0-0.5,0-0.7c0,0,0-0.1,0-0.1
		c0-0.2,0-0.5,0-0.8c0-0.4,0-0.7,0-1.1c0-0.3,0-0.6,0-1s0-0.7,0-1c0-0.4,0-0.7,0-1.1c0-0.2,0-0.5,0-0.8c0,0,0-0.1,0-0.1
		c0-0.2,0-0.5,0-0.7c0-0.2,0-0.3,0-0.4c0-0.2,0-0.4,0.1-0.7c0,0,0-0.1,0-0.1c0-0.3,0.1-0.6,0.1-0.8c0-0.2,0-0.4,0.1-0.6
		c0-0.2,0.1-0.4,0.1-0.6c0.2-1.2,0.5-2.5,0.8-3.7c0.1-0.2,0.1-0.5,0.2-0.7c0-0.2,0.1-0.4,0.2-0.7c0-0.2,0.1-0.3,0.2-0.5
		c0-0.1,0.1-0.2,0.1-0.3c0-0.2,0.1-0.4,0.2-0.5c0.1-0.4,0.2-0.7,0.4-1.1c0.1-0.2,0.1-0.4,0.2-0.6c0.3-0.8,0.6-1.5,1-2.3
		c0.1-0.2,0.2-0.5,0.3-0.7c0.1-0.2,0.1-0.3,0.2-0.5c0.1-0.2,0.2-0.4,0.3-0.6c0.1-0.2,0.2-0.5,0.4-0.7c0.2-0.3,0.3-0.6,0.5-1
		c0.1-0.2,0.2-0.4,0.4-0.6c0.1-0.2,0.3-0.5,0.4-0.7l0.2-3.5l2.5-3.4l1.1,1.7l2.4,3.8l0,0l0.4,0.6c-0.3,0.4-0.6,0.8-0.9,1.2
		c-4.4,6-6.9,13.5-6.9,21.5S130.8,172.9,135.2,179z M190.5,193l-3.5,0.2c-0.2,0.1-0.4,0.3-0.7,0.4c-0.2,0.1-0.4,0.2-0.6,0.4
		c-0.3,0.2-0.6,0.4-1,0.5c-0.2,0.1-0.4,0.2-0.7,0.3c-0.2,0.1-0.4,0.2-0.6,0.3c-0.1,0.1-0.3,0.2-0.5,0.2c-0.2,0.1-0.5,0.2-0.7,0.3
		c-0.7,0.3-1.5,0.6-2.3,0.9c-0.2,0.1-0.4,0.1-0.6,0.2c-0.4,0.1-0.7,0.3-1.1,0.4c-0.2,0.1-0.4,0.1-0.5,0.2c-0.1,0-0.2,0.1-0.3,0.1
		c-0.2,0-0.3,0.1-0.5,0.2c-0.2,0.1-0.4,0.1-0.7,0.2c-0.2,0.1-0.5,0.1-0.7,0.2c-1.2,0.3-2.5,0.6-3.7,0.8c-0.2,0-0.4,0.1-0.6,0.1
		c-0.2,0-0.4,0.1-0.6,0.1c-0.3,0-0.6,0.1-0.8,0.1c0,0-0.1,0-0.1,0c-0.2,0-0.4,0-0.7,0.1c-0.1,0-0.3,0-0.4,0c-0.2,0-0.4,0-0.7,0.1
		H168c-0.3,0-0.5,0-0.8,0c-0.4,0-0.7,0-1.1,0c-0.3,0-0.6,0-1,0c-0.3,0-0.6,0-1,0c-0.4,0-0.7,0-1.1,0c-0.3,0-0.5,0-0.8,0h-0.1
		c-0.2,0-0.5,0-0.7-0.1c-0.1,0-0.3,0-0.4,0c-0.2,0-0.4,0-0.7-0.1c0,0-0.1,0-0.1,0c-0.3,0-0.5-0.1-0.8-0.1c-0.2,0-0.4,0-0.6-0.1
		c-0.2,0-0.4-0.1-0.6-0.1c-1.3-0.2-2.5-0.5-3.7-0.8c-0.2-0.1-0.5-0.1-0.7-0.2c-0.2-0.1-0.4-0.1-0.6-0.2c-0.2-0.1-0.3-0.1-0.5-0.2
		c-0.1,0-0.2-0.1-0.3-0.1c-0.2-0.1-0.4-0.1-0.5-0.2c-0.4-0.1-0.7-0.2-1.1-0.4c-0.2-0.1-0.4-0.1-0.6-0.2c-0.8-0.3-1.5-0.6-2.3-0.9
		c-0.2-0.1-0.5-0.2-0.7-0.3c-0.2-0.1-0.3-0.2-0.5-0.2c-0.2-0.1-0.4-0.2-0.6-0.3c-0.2-0.1-0.5-0.2-0.7-0.3c-0.3-0.2-0.6-0.3-1-0.5
		c-0.2-0.1-0.4-0.2-0.6-0.4c-0.2-0.1-0.5-0.3-0.7-0.4l-3.5-0.2l-3.4-2.5l1.7-1.1l3.8-2.4h0l0.6-0.4c0.4,0.3,0.8,0.6,1.2,0.9
		c6,4.4,13.5,6.9,21.5,6.9c8,0,15.4-2.6,21.5-6.9c0.4-0.3,0.8-0.6,1.2-0.9l0.6,0.4h0l3.8,2.4l1.7,1.1L190.5,193z M155.6,157.5
		c0-5.3,4.3-9.6,9.6-9.6c5.3,0,9.6,4.3,9.6,9.6s-4.3,9.6-9.6,9.6C159.9,167.1,155.6,162.8,155.6,157.5z M192.2,125.6l-3.8,2.4h0
		l-0.6,0.4c-0.4-0.3-0.8-0.6-1.2-0.9c-6-4.4-13.5-6.9-21.5-6.9c-8,0-15.4,2.6-21.5,6.9c-0.4,0.3-0.8,0.6-1.2,0.9l-0.6-0.4h0
		l-3.8-2.4l-1.7-1.1l3.4-2.5l3.5-0.2c0.2-0.1,0.5-0.3,0.7-0.4c0.2-0.1,0.4-0.2,0.6-0.4c0.3-0.2,0.6-0.3,1-0.5
		c0.2-0.1,0.5-0.2,0.7-0.4c0.2-0.1,0.4-0.2,0.6-0.3c0.2-0.1,0.3-0.1,0.5-0.2c0.2-0.1,0.4-0.2,0.7-0.3c0.8-0.3,1.5-0.7,2.3-1
		c0.2-0.1,0.4-0.1,0.6-0.2c0.4-0.1,0.7-0.3,1.1-0.4c0.2-0.1,0.3-0.1,0.5-0.2c0.1,0,0.2-0.1,0.3-0.1c0.2,0,0.3-0.1,0.5-0.2
		c0.2-0.1,0.4-0.1,0.6-0.2c0.2-0.1,0.5-0.1,0.7-0.2c1.2-0.3,2.5-0.6,3.7-0.8c0.2,0,0.4-0.1,0.6-0.1c0.2,0,0.4-0.1,0.6-0.1
		c0.3,0,0.6-0.1,0.8-0.1c0,0,0.1,0,0.1,0c0.2,0,0.4,0,0.7-0.1c0.1,0,0.3,0,0.4,0c0.2,0,0.5,0,0.7,0h0.1c0.2,0,0.5,0,0.8,0
		c0.4,0,0.7,0,1.1,0c0.3,0,0.7,0,1,0c0.3,0,0.6,0,1,0c0.4,0,0.7,0,1.1,0c0.3,0,0.5,0,0.8,0h0.1c0.2,0,0.5,0,0.7,0c0.1,0,0.3,0,0.4,0
		c0.2,0,0.4,0,0.7,0.1c0,0,0.1,0,0.1,0c0.3,0,0.6,0.1,0.8,0.1c0.2,0,0.4,0,0.6,0.1c0.2,0,0.4,0.1,0.6,0.1c1.3,0.2,2.5,0.5,3.7,0.8
		c0.2,0.1,0.5,0.1,0.7,0.2c0.2,0.1,0.4,0.1,0.7,0.2c0.2,0.1,0.3,0.1,0.5,0.2c0.1,0,0.2,0.1,0.3,0.1c0.2,0.1,0.3,0.1,0.5,0.2
		c0.4,0.1,0.7,0.2,1.1,0.4c0.2,0.1,0.4,0.1,0.6,0.2c0.8,0.3,1.5,0.6,2.3,1c0.2,0.1,0.5,0.2,0.7,0.3c0.2,0.1,0.3,0.2,0.5,0.2
		c0.2,0.1,0.4,0.2,0.6,0.3c0.2,0.1,0.5,0.2,0.7,0.4c0.3,0.2,0.6,0.3,1,0.5c0.2,0.1,0.4,0.2,0.6,0.4c0.2,0.1,0.5,0.3,0.7,0.4l3.5,0.2
		l3.4,2.5L192.2,125.6z M207,158.5c0,0.4,0,0.7,0,1.1c0,0.3,0,0.5,0,0.8v0.1c0,0.2,0,0.5-0.1,0.7c0,0.1,0,0.3,0,0.4
		c0,0.2,0,0.5-0.1,0.7c0,0,0,0.1,0,0.1c0,0.3-0.1,0.5-0.1,0.8c0,0.2,0,0.4-0.1,0.6c0,0.2,0,0.4-0.1,0.6c-0.2,1.2-0.5,2.5-0.8,3.7
		c-0.1,0.2-0.1,0.5-0.2,0.7c-0.1,0.2-0.1,0.4-0.2,0.6c0,0.2-0.1,0.3-0.1,0.5c0,0.1-0.1,0.2-0.1,0.3c-0.1,0.2-0.1,0.4-0.2,0.5
		c-0.1,0.4-0.2,0.7-0.4,1.1c-0.1,0.2-0.1,0.4-0.2,0.6c-0.3,0.8-0.6,1.5-1,2.3c-0.1,0.2-0.2,0.4-0.3,0.7c-0.1,0.2-0.1,0.3-0.2,0.5
		c-0.1,0.2-0.2,0.4-0.3,0.6c-0.1,0.2-0.2,0.5-0.3,0.7c-0.2,0.3-0.4,0.6-0.5,1c-0.1,0.2-0.2,0.4-0.4,0.6c-0.1,0.2-0.3,0.5-0.4,0.7
		l-0.2,3.5l-2.5,3.4l-1.1-1.7l-2.4-3.8l0,0l-0.3-0.6c0.3-0.4,0.6-0.8,0.9-1.2c4.4-6,6.9-13.5,6.9-21.5s-2.6-15.4-6.9-21.5
		c-0.3-0.4-0.6-0.8-0.9-1.2l0.3-0.6l0,0l2.4-3.8l1.1-1.7l2.5,3.4l0.2,3.5c0.1,0.2,0.3,0.5,0.4,0.7c0.1,0.2,0.2,0.4,0.4,0.6
		c0.2,0.3,0.3,0.6,0.5,1c0.1,0.2,0.2,0.5,0.3,0.7c0.1,0.2,0.2,0.4,0.3,0.6c0.1,0.2,0.1,0.3,0.2,0.5c0.1,0.2,0.2,0.5,0.3,0.7
		c0.3,0.7,0.7,1.5,1,2.3c0.1,0.2,0.1,0.4,0.2,0.6c0.1,0.4,0.3,0.7,0.4,1.1c0,0.2,0.1,0.4,0.2,0.5c0,0.1,0.1,0.2,0.1,0.3
		c0,0.2,0.1,0.3,0.1,0.5c0.1,0.2,0.1,0.4,0.2,0.7c0.1,0.2,0.1,0.5,0.2,0.7c0.3,1.2,0.6,2.5,0.8,3.7c0,0.2,0.1,0.4,0.1,0.6
		c0,0.2,0.1,0.4,0.1,0.6c0,0.3,0.1,0.6,0.1,0.8c0,0,0,0.1,0,0.1c0,0.2,0,0.4,0.1,0.7c0,0.1,0,0.3,0,0.4c0,0.2,0,0.4,0.1,0.7v0.1
		c0,0.3,0,0.5,0,0.8c0,0.4,0,0.7,0,1.1c0,0.3,0,0.7,0,1S207,158.1,207,158.5z"/>
	<circle class="st2" cx="165.2" cy="157.5" r="98.4"/>
	<circle class="st2" cx="165.2" cy="157.5" r="118.1"/>
	<linearGradient id="SVGID_1_" gradientUnits="userSpaceOnUse" x1="58.2305" y1="122.984" x2="99.6387" y2="68.0334">
		<stop  offset="3.905484e-02" style="stop-color:#252734"/>
		<stop  offset="8.674508e-02" style="stop-color:#31323E;stop-opacity:0.9519"/>
		<stop  offset="0.1812" style="stop-color:#53515B;stop-opacity:0.8567"/>
		<stop  offset="0.312" style="stop-color:#97939B;stop-opacity:0.7248"/>
		<stop  offset="0.4357" style="stop-color:#FFFFFF;stop-opacity:0.6"/>
		<stop  offset="0.5501" style="stop-color:#FFFFFF;stop-opacity:0.6"/>
		<stop  offset="0.6258" style="stop-color:#AAA7AD;stop-opacity:0.688"/>
		<stop  offset="0.7194" style="stop-color:#68646E;stop-opacity:0.7966"/>
		<stop  offset="0.7986" style="stop-color:#42414C;stop-opacity:0.8887"/>
		<stop  offset="0.8594" style="stop-color:#2C2E3A;stop-opacity:0.9593"/>
		<stop  offset="0.8945" style="stop-color:#252734"/>
	</linearGradient>
	<path class="st3" d="M125.8,87.7c-20.2,11.4-35,31.5-39.4,55.1l-51.7-37.6C43.2,83.8,56.9,65,74.2,50.3L125.8,87.7z"/>
</g>
</svg>
