<?xml version="1.0" encoding="UTF-8"?>
<svg id="Layer_2" data-name="Layer 2" xmlns="http://www.w3.org/2000/svg" viewBox="0 0 184.29 118.99">
  <defs>
    <style>
      .cls-1 {
        fill: #f6edef;
      }

      .cls-1, .cls-2, .cls-3, .cls-4, .cls-5 {
        stroke-width: 0px;
      }

      .cls-2 {
        fill: #4f4c6b;
      }

      .cls-3 {
        fill: #272635;
      }

      .cls-4 {
        fill: #6ab3df;
      }

      .cls-5 {
        fill: #e86353;
      }
    </style>
  </defs>
  <g id="Layer_1-2" data-name="Layer 1">
    <path class="cls-5" d="m174.12,0H10.17c-.94,0-1.86.13-2.73.37-1.14.31-2.2.83-3.14,1.49C1.7,3.7,0,6.74,0,10.17v96.31c0,5.62,4.55,10.17,10.17,10.17h163.94c5.61,0,10.17-4.55,10.17-10.17V10.17c0-5.62-4.56-10.17-10.17-10.17Zm-4.26,33.69H12.94v-15.09l9.7-9.3h138.71l8.5,8.71v15.69Z"/>
    <polygon class="cls-1" points="169.86 18.01 169.86 33.69 12.94 33.69 12.94 18.6 22.64 9.3 161.35 9.3 169.86 18.01"/>
    <rect class="cls-4" x="12.94" y="33.69" width="156.92" height="47.04"/>
    <circle class="cls-2" cx="52.29" cy="45.57" r="25.21"/>
    <circle class="cls-2" cx="131.45" cy="45.57" r="22.69"/>
    <rect class="cls-5" x="37.62" y="30.98" width="108.63" height="29.17" rx="14.58" ry="14.58"/>
    <rect class="cls-1" x="72.49" y="42.82" width="38.46" height="5.49" rx="2.75" ry="2.75"/>
    <circle class="cls-3" cx="131.45" cy="45.57" r="11.62"/>
    <circle class="cls-3" cx="52.29" cy="45.57" r="11.62"/>
    <polygon class="cls-2" points="154.91 118.99 28.95 118.99 37.84 89.19 146.02 89.19 154.91 118.99"/>
    <circle class="cls-3" cx="92.56" cy="98.49" r="3.38"/>
    <circle class="cls-3" cx="117.47" cy="107.38" r="3.38"/>
    <circle class="cls-3" cx="136.15" cy="110.05" r="3.38"/>
    <circle class="cls-3" cx="67.66" cy="107.38" r="3.38"/>
    <circle class="cls-3" cx="48.98" cy="110.05" r="3.38"/>
    <rect class="cls-5" x="130.55" y="33.94" width="1.8" height="2.31"/>
    <rect class="cls-5" x="130.55" y="54.88" width="1.8" height="2.31"/>
    <rect class="cls-5" x="120.08" y="44.41" width="1.8" height="2.31" transform="translate(75.41 166.55) rotate(-90)"/>
    <rect class="cls-5" x="141.02" y="44.41" width="1.8" height="2.31" transform="translate(96.35 187.49) rotate(-90)"/>
    <rect class="cls-5" x="123.15" y="37.01" width="1.8" height="2.31" transform="translate(9.35 98.89) rotate(-45)"/>
    <rect class="cls-5" x="137.96" y="51.82" width="1.8" height="2.31" transform="translate(3.21 113.7) rotate(-45)"/>
    <rect class="cls-5" x="123.15" y="51.82" width="1.8" height="2.31" transform="translate(174.31 178.14) rotate(-135)"/>
    <rect class="cls-5" x="137.96" y="37.01" width="1.8" height="2.31" transform="translate(210.05 163.34) rotate(-135)"/>
    <rect class="cls-5" x="51.4" y="33.94" width="1.8" height="2.31"/>
    <rect class="cls-5" x="51.4" y="54.88" width="1.8" height="2.31"/>
    <rect class="cls-5" x="40.93" y="44.41" width="1.8" height="2.31" transform="translate(-3.74 87.39) rotate(-90)"/>
    <rect class="cls-5" x="61.87" y="44.41" width="1.8" height="2.31" transform="translate(17.2 108.33) rotate(-90)"/>
    <rect class="cls-5" x="43.99" y="37.01" width="1.8" height="2.31" transform="translate(-13.84 42.92) rotate(-45)"/>
    <rect class="cls-5" x="58.8" y="51.82" width="1.8" height="2.31" transform="translate(-19.97 57.73) rotate(-45)"/>
    <rect class="cls-5" x="43.99" y="51.82" width="1.8" height="2.31" transform="translate(39.18 122.17) rotate(-135)"/>
    <rect class="cls-5" x="58.8" y="37.01" width="1.8" height="2.31" transform="translate(74.92 107.36) rotate(-135)"/>
  </g>
</svg>