<?xml version="1.0" encoding="utf-8"?>
<!-- Generator: Adobe Illustrator 27.8.1, SVG Export Plug-In . SVG Version: 6.00 Build 0)  -->
<svg version="1.1"
	 id="svg9470" xmlns:inkscape="http://www.inkscape.org/namespaces/inkscape" xmlns:svg="http://www.w3.org/2000/svg" xmlns:sodipodi="http://sodipodi.sourceforge.net/DTD/sodipodi-0.dtd"
	 xmlns="http://www.w3.org/2000/svg" xmlns:xlink="http://www.w3.org/1999/xlink" x="0px" y="0px" viewBox="0 0 1024 128"
	 style="enable-background:new 0 0 1024 128;" xml:space="preserve">
<style type="text/css">
	.st0{fill:#FFFFFF;}
	.st1{fill:#E86353;}
</style>
<sodipodi:namedview  bordercolor="#666666" borderopacity="1.0" id="namedview9472" inkscape:current-layer="layer1" inkscape:cx="996.08928" inkscape:cy="101.48798" inkscape:deskcolor="#d1d1d1" inkscape:document-units="mm" inkscape:pagecheckerboard="0" inkscape:pageopacity="0.0" inkscape:showpageshadow="2" inkscape:window-height="1440" inkscape:window-maximized="1" inkscape:window-width="2560" inkscape:window-x="0" inkscape:window-y="0" inkscape:zoom="10.35098" pagecolor="#ffffff" showgrid="false">
	</sodipodi:namedview>
<g id="layer1" inkscape:groupmode="layer" inkscape:label="Layer 1">
	<polygon class="st0" points="1024,25.2 1024,86.8 1008.3,103.5 990.6,84.6 972.8,103.5 955.1,84.6 937.4,103.5 919.7,84.6 
		901.9,103.5 884.2,84.6 866.5,103.4 848.8,84.5 831,103.4 813.3,84.5 795.6,103.4 777.9,84.5 760.1,103.4 742.4,84.5 724.7,103.4 
		706.9,84.5 689.2,103.3 671.5,84.5 653.8,103.3 636,84.5 618.3,103.3 600.6,84.4 582.8,103.3 565.1,84.4 547.4,103.3 529.7,84.4 
		512,103.3 494.2,84.4 476.5,103.2 458.8,84.4 441,103.2 423.3,84.3 405.6,103.2 387.9,84.3 370.1,103.2 352.4,84.3 334.7,103.2 
		317,84.3 299.2,103.2 281.5,84.3 263.8,103.1 246.1,84.3 228.3,103.1 210.6,84.2 192.9,103.1 175.1,84.2 157.4,103.1 139.7,84.2 
		122,103.1 104.2,84.2 86.5,103.1 68.8,84.2 51.1,103 33.3,84.2 15.6,103 0,86.4 0,24.7 15.6,41.4 33.4,22.5 51.1,41.4 68.8,22.5 
		86.5,41.4 104.3,22.5 122,41.4 139.7,22.5 157.4,41.4 175.2,22.6 192.9,41.5 210.6,22.6 228.3,41.5 246.1,22.6 248.2,24.8 
		263.8,41.5 281.5,22.6 299.3,41.5 317,22.6 334.7,41.5 352.5,22.7 370.2,41.5 387.9,22.7 405.6,41.5 423.3,22.7 441.1,41.6 
		458.8,22.7 476.5,41.6 494.3,22.7 512,41.6 529.7,22.7 547.4,41.6 565.2,22.8 582.9,41.6 600.6,22.8 618.3,41.7 636.1,22.8 
		653.8,41.7 671.5,22.8 689.2,41.7 707,22.8 724.7,41.7 742.4,22.8 760.2,41.7 777.9,22.9 795.6,41.7 813.3,22.9 831.1,41.8 
		848.8,22.9 866.5,41.8 884.2,22.9 902,41.8 919.7,22.9 937.4,41.8 955.2,22.9 972.9,41.8 990.6,23 1008.3,41.8 1024,25.2 	"/>
	<path id="path5074" class="st1" d="M1024,52.9L1024,52.9l-15.7,16.6l-17.7-18.9l-17.7,18.8l-17.7-18.9l-17.7,18.9l-17.7-18.9
		l-17.7,18.9l-17.7-18.9l-17.7,18.8l-17.7-18.9L831,69.4l-17.7-18.9l-17.7,18.9l-17.7-18.9l-17.7,18.9l-17.7-18.9l-17.7,18.9
		L707,50.5l-17.7,18.9l-17.7-18.9l-17.7,18.9l-17.7-18.9l-17.7,18.9l-17.7-18.9l-17.7,18.9l-17.7-18.9l-17.7,18.9l-17.7-18.9
		L512,69.3l-6.2-6.6l-9.5-10.1l-2.1-2.2l-17.7,18.9l-17.7-18.9L441,69.2l-17.7-18.9l-17.7,18.9l-17.7-18.9l-17.7,18.8l-17.7-18.9
		l-17.7,18.9L317,50.3l-17.7,18.9l-17.7-18.9l-17.7,18.9l-15.6-16.7l-2.1-2.2l-17.7,18.9l-17.7-18.9l-17.7,18.9l-17.7-18.9
		l-17.7,18.9l-17.7-18.9L122,69.1l-17.7-18.9L86.5,69.1L68.8,50.2L51.1,69L33.4,50.2L15.6,69L0,52.4v8.3l15.6,16.6l17.7-18.9
		l17.7,18.9l17.7-18.8l17.7,18.9l17.7-18.9L122,77.4l17.7-18.9l17.7,18.9l17.7-18.9l17.7,18.9l17.7-18.9l17.7,18.9l17.7-18.9
		l17.7,18.9l17.7-18.9l17.7,18.9L317,58.6l17.7,18.9l17.7-18.9l17.7,18.9l17.7-18.9l17.7,18.9l17.7-18.9L441,77.6l17.7-18.9
		l17.7,18.9l17.7-18.9L512,77.6l17.7-18.9l17.7,18.9l17.7-18.9l17.7,18.9l17.7-18.9l17.7,18.9L636,58.8l17.7,18.9l17.7-18.8
		l17.7,18.9L707,58.8l17.7,18.9l17.7-18.9l17.7,18.9l17.7-18.9l17.7,18.9l17.7-18.9L831,77.8l17.7-18.9l17.7,18.9l17.7-18.9
		l17.7,18.9l17.7-18.9l17.7,18.9l17.7-18.9l17.7,18.9L990.6,59l17.7,18.9l15.7-16.7l4.1-4.4L1024,52.9z M1024,25.2L1024,25.2
		l-15.7,16.6L990.6,23l-17.7,18.9l-17.7-18.9l-17.7,18.9l-17.7-18.9L902,41.8l-17.7-18.9l-17.7,18.9l-17.7-18.9l-17.7,18.9
		l-17.7-18.9l-17.7,18.9l-17.7-18.9l-17.7,18.9l-17.7-18.9l-17.7,18.9L707,22.8l-17.7,18.9l-17.7-18.9l-17.7,18.8l-17.7-18.9
		l-17.7,18.9l-17.7-18.9l-17.7,18.9l-17.7-18.9l-17.7,18.9l-17.7-18.9L512,41.6l-17.7-18.9l-17.7,18.9l-17.7-18.9l-17.7,18.8
		l-17.7-18.9l-17.7,18.9l-17.7-18.9l-17.7,18.9l-17.7-18.9l-17.7,18.9L317,22.6l-17.7,18.9l-17.7-18.9l-17.7,18.9l-15.6-16.7
		l-2.1-2.2l-17.7,18.9l-17.7-18.9l-17.7,18.9l-17.7-18.9l-17.7,18.9l-17.7-18.9L122,41.4l-17.7-18.9L86.5,41.4L68.8,22.5L51.1,41.4
		L33.4,22.5L15.6,41.4L0,24.7V33l15.6,16.7l17.7-18.9l17.7,18.9l17.7-18.9l17.7,18.9l17.7-18.9L122,49.7l17.7-18.9l17.7,18.9
		l17.7-18.9l17.7,18.9l17.7-18.9l17.7,18.9l17.7-18.8l17.7,18.9L281.5,31l17.7,18.9L317,31l17.7,18.9L352.4,31l17.7,18.9L387.9,31
		l17.7,18.9L423.3,31l17.7,18.9L458.8,31l17.7,18.9L494.3,31L512,49.9l17.7-18.9L547.4,50l17.7-18.9L582.9,50l17.7-18.9L618.3,50
		l17.7-18.9L653.8,50l17.7-18.9L689.2,50L707,31.2L724.7,50l17.7-18.9L760.2,50l17.7-18.9l17.7,18.9l17.7-18.9L831,50.1l17.7-18.9
		l17.7,18.9l17.7-18.9L902,50.1l17.7-18.9l17.7,18.9l17.7-18.8l17.7,18.9l17.7-18.9l17.7,18.9l15.7-16.7l4.1-4.4L1024,25.2z
		 M1024,80.6L1024,80.6l-15.7,16.6l-17.7-18.9l-17.7,18.9l-17.7-18.9l-17.7,18.9l-17.7-18.9l-17.7,18.9l-17.7-18.9l-17.7,18.9
		l-17.7-18.9L831,97.1l-17.7-18.9l-17.7,18.9l-17.7-18.9L760.1,97l-17.7-18.9L724.7,97L707,78.2L689.2,97l-17.7-18.9L653.8,97
		L636,78.1L618.3,97l-17.7-18.9L582.9,97l-17.7-18.9l-17.7,18.8l-17.7-18.9L512,96.9l-15.6-16.7l0,0l-2.1-2.2l-17.7,18.9L458.8,78
		L441,96.9L423.3,78l-17.7,18.9L387.9,78l-17.7,18.9L352.4,78l-17.7,18.9L317,78l-17.7,18.9L281.5,78l-12.7,13.5l-5.1,5.4
		l-15.6-16.7l-2.1-2.2l-17.7,18.9l-17.7-18.9l-17.7,18.9l-17.7-18.9l-17.7,18.9l-17.7-18.9L122,96.7l-17.7-18.9L86.5,96.7L68.8,77.8
		L51.1,96.7L33.3,77.8L15.6,96.7L0,80.1v8.3L15.6,105l17.7-18.9L51.1,105l17.7-18.9l17.7,18.9l17.7-18.9l17.7,18.9l17.7-18.9
		l17.7,18.9l17.7-18.9l17.7,18.9l17.7-18.9l17.7,18.9l17.7-18.9l17.7,18.9l17.7-18.9l17.7,18.9L317,86.3l17.7,18.9l17.7-18.9
		l17.7,18.9l17.7-18.8l17.7,18.9l17.7-18.9l17.7,18.9l17.7-18.9l17.7,18.9l17.7-18.8l17.7,18.9l17.7-18.9l17.7,18.9l17.7-18.9
		l17.7,18.9l17.7-18.9l17.7,18.9L636,86.5l17.7,18.9l17.7-18.9l17.7,18.9l17.7-18.9l17.7,18.9l17.7-18.9l17.7,18.9l17.7-18.9
		l17.7,18.9l17.7-18.9l17.7,18.9l17.7-18.9l17.7,18.9l17.7-18.9l17.7,18.9l17.7-18.9l17.7,18.9l17.7-18.9l17.7,18.9l17.7-18.9
		l17.7,18.9l15.7-16.7l4.1-4.4L1024,80.6z"/>
</g>
</svg>
