<?xml version="1.0" encoding="UTF-8" standalone="no"?>
<!-- Created with Inkscape (http://www.inkscape.org/) -->

<svg
   width="1024"
   height="1024"
   viewBox="0 0 270.93333 270.93333"
   version="1.1"
   id="svg1"
   xml:space="preserve"
   inkscape:version="1.4.2 (ebf0e940d0, 2025-05-08)"
   sodipodi:docname="distrokid.svg"
   xmlns:inkscape="http://www.inkscape.org/namespaces/inkscape"
   xmlns:sodipodi="http://sodipodi.sourceforge.net/DTD/sodipodi-0.dtd"
   xmlns="http://www.w3.org/2000/svg"
   xmlns:svg="http://www.w3.org/2000/svg"><sodipodi:namedview
     id="namedview1"
     pagecolor="#ffffff"
     bordercolor="#000000"
     borderopacity="0.25"
     inkscape:showpageshadow="2"
     inkscape:pageopacity="0.0"
     inkscape:pagecheckerboard="0"
     inkscape:deskcolor="#d1d1d1"
     inkscape:document-units="px"
     inkscape:zoom="0.27393662"
     inkscape:cx="-2018.7151"
     inkscape:cy="1045.8624"
     inkscape:window-width="2560"
     inkscape:window-height="1403"
     inkscape:window-x="0"
     inkscape:window-y="0"
     inkscape:window-maximized="1"
     inkscape:current-layer="layer1"
     showgrid="false" /><defs
     id="defs1"><style
       id="style1">.cls-1{isolation:isolate;}.cls-2{fill:#231f20;}</style></defs><g
     inkscape:label="Layer 1"
     inkscape:groupmode="layer"
     id="layer1"><path
       style="fill:#000000"
       id="path2" /><rect
       style="fill:#1077ba;fill-opacity:1;stroke:#000000;stroke-width:1"
       id="rect3"
       width="270.93332"
       height="270.93332"
       x="5.4541015e-06"
       y="5.4541015e-06" /><g
       id="g1"
       transform="matrix(0.4768218,0,0,0.4768218,12.646906,119.63857)"
       style="fill:#ffffff;fill-opacity:1"><g
         class="cls-1"
         id="g6"
         style="fill:#ffffff;fill-opacity:1"><path
           class="cls-2"
           d="m 0,1.28 h 25 c 20.17,0 34.11,13.84 34.11,31.91 v 0.18 C 59.11,51.43 45.17,65.46 25,65.46 H 0 Z m 25,51.44 c 11.55,0 19.35,-7.79 19.35,-19.16 V 33.38 C 44.39,22 36.59,14 25,14 H 14.13 v 38.72 z"
           transform="translate(-0.01,-0.18)"
           id="path1"
           style="fill:#ffffff;fill-opacity:1" /><path
           class="cls-2"
           d="M 72.35,1.28 H 86.47 V 65.47 H 72.35 Z"
           transform="translate(-0.01,-0.18)"
           id="path2-3"
           style="fill:#ffffff;fill-opacity:1" /><path
           class="cls-2"
           d="m 98.12,56.11 8.34,-10 c 5.78,4.77 11.83,7.79 19.16,7.79 5.78,0 9.26,-2.29 9.26,-6.05 v -0.18 c 0,-3.58 -2.2,-5.41 -12.93,-8.16 -12.93,-3.3 -21.27,-6.88 -21.27,-19.62 V 19.71 C 100.68,8.07 110,0.37 123.15,0.37 A 37.15,37.15 0 0 1 147,8.53 l -7.34,10.64 C 134,15.22 128.38,12.84 123,12.84 c -5.38,0 -8.25,2.48 -8.25,5.59 v 0.18 c 0,4.22 2.75,5.59 13.84,8.44 13,3.39 20.36,8.07 20.36,19.25 v 0.18 c 0,12.74 -9.72,19.9 -23.56,19.9 A 40.84,40.84 0 0 1 98.12,56.11 Z"
           transform="translate(-0.01,-0.18)"
           id="path3"
           style="fill:#ffffff;fill-opacity:1" /><path
           class="cls-2"
           d="m 174.77,14.3 h -19.53 v -13 h 53.18 v 13 h -19.53 v 51.17 h -14.12 z"
           transform="translate(-0.01,-0.18)"
           id="path4"
           style="fill:#ffffff;fill-opacity:1" /><path
           class="cls-2"
           d="m 219.24,1.28 h 29.34 c 8.16,0 14.49,2.29 18.7,6.51 3.58,3.58 5.5,8.62 5.5,14.67 v 0.18 c 0,10.36 -5.59,16.87 -13.75,19.9 l 15.68,22.92 h -16.5 L 244.46,44.93 h -11.1 v 20.54 h -14.12 z m 28.42,31.17 c 6.88,0 10.82,-3.67 10.82,-9.08 V 23.2 c 0,-6.05 -4.22,-9.17 -11.09,-9.17 h -14 v 18.43 z"
           transform="translate(-0.01,-0.18)"
           id="path5"
           style="fill:#ffffff;fill-opacity:1" /><path
           class="cls-2"
           d="m 282.69,33.56 v -0.18 c 0,-18.25 14.4,-33.19 34.2,-33.19 19.8,0 34,14.76 34,33 v 0.18 c 0,18.25 -14.4,33.19 -34.2,33.19 -19.8,0 -34,-14.76 -34,-33 z m 53.46,0 v -0.18 c 0,-11 -8.07,-20.17 -19.44,-20.17 -11.37,0 -19.25,9 -19.25,20 v 0.18 c 0,11 8.07,20.17 19.44,20.17 11.37,0 19.25,-9 19.25,-20 z"
           transform="translate(-0.01,-0.18)"
           id="path6-5"
           style="fill:#ffffff;fill-opacity:1" /></g><g
         class="cls-1"
         id="g9-6"
         style="fill:#ffffff;fill-opacity:1"><path
           class="cls-2"
           d="m 366.18,1.28 h 7.24 V 39.61 L 410.29,1.28 h 9.35 l -27.51,28.06 28.7,36.13 h -9.08 L 387.09,34.38 373.43,48.23 v 17.24 h -7.24 z"
           transform="translate(-0.01,-0.18)"
           id="path7-2"
           style="fill:#ffffff;fill-opacity:1" /><path
           class="cls-2"
           d="M 432.75,1.28 H 440 v 64.19 h -7.24 z"
           transform="translate(-0.01,-0.18)"
           id="path8-9"
           style="fill:#ffffff;fill-opacity:1" /><path
           class="cls-2"
           d="m 458.79,1.28 h 22.28 c 20.17,0 34.11,13.84 34.11,31.91 v 0.18 c 0,18.06 -13.94,32.09 -34.11,32.09 h -22.28 z m 22.28,57.49 c 16.23,0 26.59,-11 26.59,-25.21 V 33.38 C 507.66,19.16 497.3,8 481.07,8 H 466 v 50.8 z"
           transform="translate(-0.01,-0.18)"
           id="path9-1"
           style="fill:#ffffff;fill-opacity:1" /></g></g></g></svg>
