<?xml version="1.0" encoding="UTF-8"?>
<svg id="Layer_2" data-name="Layer 2" xmlns="http://www.w3.org/2000/svg" viewBox="0 0 115.3 19.62">
  <defs>
    <style>
      .cls-1 {
        fill: #f6edef;
        stroke-width: 0px;
      }
    </style>
  </defs>
  <g id="Layer_1-2" data-name="Layer 1">
    <path class="cls-1" d="m26.28,14.76c-.5-.53-.76-1.21-.76-2.08s.26-1.55.76-2.07c.5-.53,1.18-.79,2-.79s1.5.26,2,.79c.5.52.76,1.21.76,2.07s-.26,1.55-.76,2.08c-.5.52-1.18.79-2,.79s-1.5-.26-2-.79Zm23.71,4.49h4.36v-5.6l3.73,5.6h4.89l-4.6-6.57,4.41-6.57h-5.04l-3.39,5.49V.86h-4.36v18.39Zm-13.59-6.57c0,1.97.66,3.6,2,4.94,1.34,1.34,3,2,4.99,2,2.6,0,4.84-1.31,5.99-3.41l-3.73-2.16c-.45.87-1.21,1.31-2.29,1.31-1.47,0-2.58-1.1-2.58-2.68s1.1-2.68,2.58-2.68c1.05,0,1.81.42,2.29,1.29l3.73-2.16c-1.16-2.08-3.39-3.39-5.99-3.39-2,0-3.65.66-4.99,2-1.34,1.34-2,2.97-2,4.94Zm-15.27,0c0,1.97.58,3.63,1.76,4.97,1.18,1.31,2.65,1.97,4.41,1.97,1.6,0,2.84-.52,3.73-1.58v1.21h4.36V6.11h-4.36v1.21c-.89-1.05-2.13-1.58-3.73-1.58-1.76,0-3.23.66-4.41,2-1.18,1.31-1.76,2.97-1.76,4.94Zm-4-4.12v-2.45h-4.36v13.14h4.36v-5.44c0-1.18.39-2.05,1.21-2.57.81-.53,1.73-.71,2.73-.55v-4.84c-1.81,0-3.44,1-3.94,2.71ZM0,5.41h4.55v13.85h4.7V5.41h4.54V.86H0v4.55Z"/>
    <path class="cls-1" d="m77.74,13.87c0-1.81-.63-3.18-1.92-4.02-.66-.45-1.24-.76-1.79-1-.55-.24-1.26-.47-2.15-.74-2.5-.73-3.15-1.18-3.15-1.99,0-.71.58-1.21,1.71-1.21,1.34,0,2.29.68,2.86,2.05l3.94-2.31c-1.26-2.73-3.76-4.2-6.83-4.2-1.81,0-3.34.53-4.57,1.58-1.21,1.05-1.81,2.42-1.81,4.13,0,3.15,2.1,4.78,5.47,5.76,1.18.34,1.97.58,2.31.71.81.34,1.24.76,1.24,1.31,0,.82-.71,1.23-2.16,1.23-1.73,0-2.94-.81-3.63-2.44l-4.02,2.34c1.02,2.81,3.62,4.57,7.51,4.57,2.1,0,3.78-.5,5.07-1.52,1.29-1.03,1.92-2.42,1.92-4.23Z"/>
    <path class="cls-1" d="m91.6,11.37c0-3.65-2-5.65-4.84-5.65-1.66,0-2.86.55-3.65,1.68V.83h-4.36v18.39h4.36v-6.99c0-1.55.79-2.39,2.15-2.39,1.18,0,1.97.71,1.97,2.08v7.3h4.36v-7.86Z"/>
    <rect class="cls-1" x="93.06" y="6.09" width="4.36" height="13.14"/>
    <path class="cls-1" d="m97.01.73c-.97-.97-2.52-.97-3.55,0-.97.97-.97,2.52,0,3.55,1.03.97,2.58.97,3.55,0,1.02-1.03,1.02-2.58,0-3.55Z"/>
    <path class="cls-1" d="m115.3,6.09h-2.73v-3.68l-4.36,1.31v2.36h-4.04c0-1.18.76-1.71,2.26-1.6V.44c-4.39-.24-6.62,1.87-6.62,5.65h-1.66v4.18h1.66v8.96h4.36v-8.96h4.04v3.92c0,2.08.52,3.52,1.58,4.33,1.08.79,2.92,1.03,5.52.71v-3.94c-1.97.1-2.73-.05-2.73-1.21v-3.81h2.73v-4.18Z"/>
  </g>
</svg>