<?xml version="1.0" encoding="UTF-8"?>
<svg id="Layer_1" data-name="Layer 1" xmlns="http://www.w3.org/2000/svg" viewBox="0 0 100 100">
  <defs>
    <style>
      .cls-1 {
        fill: none;
        stroke: #473b52;
        stroke-miterlimit: 10;
        stroke-width: .62px;
      }

      .cls-2 {
        fill: #f6edef;
      }

      .cls-2, .cls-3, .cls-4, .cls-5, .cls-6 {
        stroke-width: 0px;
      }

      .cls-3 {
        fill: #4f4c6b;
      }

      .cls-4 {
        fill: #272635;
      }

      .cls-5 {
        fill: #e2e2e2;
      }

      .cls-6 {
        fill: #e86353;
      }
    </style>
  </defs>
  <rect class="cls-5" x="-2.91" y="-1.98" width="104.74" height="104.74"/>
  <g id="Layer_1-2" data-name="Layer 1-2">
    <circle class="cls-4" cx="49.19" cy="47.05" r="15.39"/>
    <g>
      <path class="cls-3" d="m49.19,15.09c-19.58,0-35.45,15.87-35.45,35.45s15.87,35.46,35.45,35.46,35.45-15.87,35.45-35.46S68.78,15.09,49.19,15.09Zm0,26.15c-2.02,0-3.89.65-5.41,1.75-.1.07-.2.15-.3.22l-.15-.09h0l-.96-.61-.42-.27.85-.64.89-.05c.06-.04.12-.07.17-.11.05-.03.11-.06.16-.09.08-.05.16-.09.24-.13.06-.03.12-.06.17-.09.05-.03.11-.05.16-.08.04-.02.08-.04.12-.06.06-.03.11-.06.17-.08.19-.09.38-.16.57-.24.05-.02.1-.04.14-.06.09-.03.18-.07.27-.1.04-.02.09-.03.13-.04.03-.01.05-.02.08-.03.04-.01.09-.03.13-.04.06-.02.11-.03.16-.05.06-.02.12-.03.18-.05.31-.08.62-.15.94-.2.05,0,.1-.02.15-.02.05-.01.1-.02.14-.02.07-.01.14-.02.21-.03.01,0,.02,0,.03,0,.06,0,.11-.01.16-.02.04,0,.07,0,.11-.01.06,0,.12,0,.17-.01h.03c.07,0,.13-.01.2-.01.09,0,.18,0,.28-.01h.49c.09,0,.18,0,.28.01.07,0,.13,0,.2.01h.03c.06,0,.12,0,.17.01.04,0,.07,0,.11.01.06,0,.11.01.17.02,0,0,.02,0,.03,0,.07,0,.14.02.21.03.05,0,.1.01.15.02.05,0,.1.01.14.02.32.05.63.12.94.2.06.02.12.03.17.05.06.02.11.03.16.05.04.01.08.03.13.04.03,0,.05.02.08.03.04.01.09.03.13.04.09.03.18.06.27.1.05.02.1.04.14.06.19.07.39.15.57.24.06.03.12.05.17.08.04.02.08.04.12.06.06.03.11.05.16.08.06.03.12.06.17.09.08.04.16.09.24.13.05.03.11.06.16.09.06.04.12.07.17.11l.89.05.85.64-.42.27-.96.61h0l-.15.09c-.1-.08-.19-.15-.3-.22-1.52-1.1-3.39-1.75-5.41-1.75h.02Zm2.42,9.31c0,1.34-1.08,2.42-2.42,2.42s-2.42-1.08-2.42-2.42,1.08-2.41,2.42-2.41,2.42,1.08,2.42,2.41Zm-12.97-.24c0-.1,0-.19.01-.28,0-.07,0-.13.01-.2v-.03c0-.06,0-.12.01-.17,0-.04,0-.07.01-.11,0-.06.01-.11.02-.16v-.03c.01-.07.02-.14.03-.21,0-.05.01-.1.02-.15s.02-.1.02-.15c.05-.32.12-.63.2-.94.02-.06.03-.12.05-.17.01-.06.03-.11.05-.16.01-.04.03-.09.04-.13,0-.03.02-.06.03-.08.01-.05.03-.09.04-.13.03-.09.06-.18.1-.27.02-.05.04-.1.05-.14.08-.19.15-.39.24-.57.03-.06.05-.11.08-.17.02-.04.04-.08.06-.12.03-.05.05-.11.08-.15.03-.06.06-.12.09-.17.04-.08.09-.16.13-.24.03-.06.06-.11.09-.16.04-.06.07-.12.11-.17l.05-.89.64-.85.27.43.61.96h0l.09.16c-.08.1-.15.19-.22.3-1.1,1.52-1.75,3.39-1.75,5.41s.65,3.89,1.75,5.42c.07.1.15.2.22.3l-.09.15h0l-.61.96-.27.43-.64-.85-.05-.89c-.04-.06-.07-.12-.11-.17-.03-.05-.06-.11-.09-.16-.05-.08-.09-.16-.13-.24-.03-.06-.06-.12-.09-.17-.03-.05-.05-.1-.08-.15-.02-.04-.04-.08-.06-.12-.03-.06-.06-.11-.08-.17-.09-.19-.16-.38-.24-.57-.02-.05-.04-.09-.05-.14-.03-.09-.07-.18-.1-.27-.02-.05-.03-.09-.04-.13-.01-.03-.02-.05-.03-.08-.02-.04-.03-.08-.04-.13-.02-.06-.03-.11-.05-.16-.02-.06-.03-.12-.05-.17-.08-.31-.15-.62-.2-.94,0-.05-.02-.1-.02-.15s-.02-.1-.02-.15c-.01-.07-.02-.14-.03-.21v-.03c0-.06-.01-.11-.02-.17,0-.03,0-.07-.01-.11,0-.06-.01-.11-.01-.17v-.03c0-.07,0-.13-.01-.2,0-.09-.01-.18-.01-.28,0-.08,0-.16,0-.24s0-.16,0-.24v-.02Zm10.03,10.79c-.07,0-.13,0-.2-.01h-.03c-.06,0-.12,0-.17-.01-.04,0-.07,0-.11-.01-.06,0-.11-.01-.16-.02,0,0-.02,0-.03,0-.07,0-.14-.02-.21-.03-.05,0-.1-.01-.14-.02-.05,0-.1-.01-.15-.02-.32-.05-.63-.12-.94-.2-.06-.02-.12-.03-.18-.05-.05-.02-.11-.03-.16-.05-.04-.01-.09-.03-.13-.04-.03,0-.05-.02-.08-.03-.05-.01-.09-.03-.13-.04-.09-.03-.18-.06-.27-.1-.05-.02-.1-.03-.14-.05-.19-.07-.39-.15-.57-.24-.06-.03-.12-.05-.17-.08-.04-.02-.08-.04-.12-.06-.05-.03-.11-.05-.16-.08-.06-.03-.11-.06-.17-.09-.08-.04-.16-.09-.24-.13-.06-.03-.11-.06-.16-.09-.06-.04-.12-.07-.17-.11l-.89-.05-.85-.64.42-.27.96-.61h0l.15-.09c.1.08.19.15.3.22,1.52,1.1,3.39,1.75,5.41,1.75s3.89-.65,5.41-1.75c.1-.07.2-.15.3-.22l.15.09h0l.96.61.42.27-.85.64-.89.05c-.06.04-.12.07-.17.11-.05.03-.11.06-.16.09-.08.05-.16.09-.24.13-.06.03-.11.06-.17.09-.05.03-.1.05-.16.08-.04.02-.08.04-.12.06-.06.03-.12.06-.17.08-.19.09-.38.16-.57.24-.05.02-.1.04-.14.05-.09.04-.18.07-.27.1-.05.02-.09.03-.13.04-.03.01-.06.02-.08.03-.04.01-.09.03-.13.04-.06.02-.11.03-.16.05-.06.02-.12.03-.17.05-.31.08-.62.15-.94.2-.05,0-.1.02-.14.02-.05.01-.1.02-.15.02-.07.01-.14.02-.21.03,0,0-.02,0-.03,0-.06,0-.11.01-.17.02-.04,0-.07,0-.11.01-.06,0-.11,0-.17.01h-.03c-.07,0-.13.01-.2.01-.09,0-.18,0-.28.01h-.49c-.1,0-.19,0-.28-.01h-.02Zm11.08-10.3c0,.1,0,.19-.01.28,0,.07,0,.13-.01.2v.03c0,.06-.01.12-.02.17,0,.04,0,.07-.01.11,0,.06-.01.11-.02.17v.03c0,.07-.02.14-.03.21,0,.05-.01.1-.02.15s-.01.1-.02.15c-.05.32-.12.63-.2.94-.02.06-.03.12-.05.17-.02.06-.03.11-.05.16-.01.04-.03.09-.04.13,0,.03-.02.06-.03.08-.02.04-.03.09-.04.13-.03.09-.06.18-.1.27-.02.05-.04.1-.05.14-.08.19-.15.39-.24.57-.03.06-.05.11-.08.17-.02.04-.04.08-.06.12-.03.05-.05.11-.08.15-.03.06-.06.12-.09.17-.05.08-.09.16-.13.24-.03.06-.06.11-.09.16-.04.06-.07.12-.11.17l-.05.89-.64.85-.27-.43-.61-.96h0l-.09-.15c.08-.1.15-.19.22-.3,1.1-1.52,1.75-3.39,1.75-5.42s-.65-3.89-1.75-5.41c-.07-.1-.15-.2-.22-.3l.09-.15h0l.61-.96.27-.43.64.85.05.89c.04.06.07.12.11.17.03.05.06.11.09.16.05.08.09.16.13.24.03.06.06.12.09.17.03.05.05.1.08.15.02.04.04.08.06.12.03.06.05.11.08.17.09.19.16.38.24.57.02.05.04.09.05.14.04.09.07.18.1.27.01.05.03.09.04.13,0,.03.02.05.03.08.01.04.03.08.04.13.02.06.03.11.05.16.02.06.03.12.05.17.08.31.15.62.2.94.01.05.02.1.02.15s.02.1.02.15c.01.07.02.14.03.21v.03c0,.06.01.11.02.16,0,.04,0,.07.01.11,0,.06.01.11.02.17v.03c0,.07.01.13.01.2,0,.09,0,.18.01.28v.5Z"/>
      <path class="cls-6" d="m49.19,30.34v9.65h.24c.09,0,.18,0,.28.01.07,0,.13,0,.2.01h.03c.06,0,.12,0,.17.01.04,0,.07,0,.11.01.06,0,.11.01.17.02,0,0,.02,0,.03,0,.07,0,.14.02.21.03.05,0,.1.01.15.02.05,0,.1.01.14.02.32.05.63.12.94.2.06.02.12.03.17.05.06.02.11.03.16.05.04.01.08.03.13.04.03,0,.05.02.08.03.04.01.09.03.13.04.09.03.18.06.27.1.05.02.1.04.14.06.19.07.39.15.57.24.06.03.12.05.17.08.04.02.08.04.12.06.06.03.11.05.16.08.06.03.12.06.17.09.08.04.16.09.24.13.05.03.11.06.16.09.06.04.12.07.17.11l.89.05.85.64-.42.27-.96.61h0l-.15.09c-.1-.08-.19-.15-.3-.22-1.52-1.1-3.39-1.75-5.41-1.75v6.89c1.34,0,2.42,1.08,2.42,2.41s-1.08,2.42-2.42,2.42v6.89c2.02,0,3.89-.65,5.41-1.75.1-.07.2-.15.3-.22l.15.09h0l.96.61.42.27-.85.64-.89.05c-.06.04-.12.07-.17.11-.05.03-.11.06-.16.09-.08.05-.16.09-.24.13-.06.03-.11.06-.17.09-.05.03-.1.05-.16.08-.04.02-.08.04-.12.06-.06.03-.12.06-.17.08-.19.09-.38.16-.57.24-.05.02-.1.04-.14.05-.09.04-.18.07-.27.1-.05.02-.09.03-.13.04-.03.01-.06.02-.08.03-.04.01-.09.03-.13.04-.06.02-.11.03-.16.05-.06.02-.12.03-.17.05-.31.08-.62.15-.94.2-.05,0-.1.02-.14.02-.05.01-.1.02-.15.02-.07.01-.14.02-.21.03,0,0-.02,0-.03,0-.06,0-.11.01-.17.02-.04,0-.07,0-.11.01-.06,0-.11,0-.17.01h-.03c-.07,0-.13.01-.2.01-.09,0-.18,0-.28.01h-.24v9.65c11.16,0,20.21-9.05,20.21-20.21s-9.05-20.21-20.21-20.21v-.02Zm10.56,20.45c0,.1,0,.19-.01.28,0,.07,0,.13-.01.2v.03c0,.06-.01.12-.02.17,0,.04,0,.07-.01.11,0,.06-.01.11-.02.17v.03c0,.07-.02.14-.03.21,0,.05-.01.1-.02.15s-.01.1-.02.15c-.05.32-.12.63-.2.94-.02.06-.03.12-.05.17-.02.06-.03.11-.05.16-.01.04-.03.09-.04.13,0,.03-.02.06-.03.08-.02.04-.03.09-.04.13-.03.09-.06.18-.1.27-.02.05-.04.1-.05.14-.08.19-.15.39-.24.57-.03.06-.05.11-.08.17-.02.04-.04.08-.06.12-.03.05-.05.11-.08.15-.03.06-.06.12-.09.17-.05.08-.09.16-.13.24-.03.06-.06.11-.09.16-.04.06-.07.12-.11.17l-.05.89-.64.85-.27-.43-.61-.96h0l-.09-.15c.08-.1.15-.19.22-.3,1.1-1.52,1.75-3.39,1.75-5.42s-.65-3.89-1.75-5.41c-.07-.1-.15-.2-.22-.3l.09-.15h0l.61-.96.27-.43.64.85.05.89c.04.06.07.12.11.17.03.05.06.11.09.16.05.08.09.16.13.24.03.06.06.12.09.17.03.05.05.1.08.15.02.04.04.08.06.12.03.06.05.11.08.17.09.19.16.38.24.57.02.05.04.09.05.14.04.09.07.18.1.27.01.05.03.09.04.13,0,.03.02.05.03.08.01.04.03.08.04.13.02.06.03.11.05.16.02.06.03.12.05.17.08.31.15.62.2.94.01.05.02.1.02.15s.02.1.02.15c.01.07.02.14.03.21v.03c0,.06.01.11.02.16,0,.04,0,.07.01.11,0,.06.01.11.02.17v.03c0,.07.01.13.01.2,0,.09,0,.18.01.28v.5Z"/>
      <circle class="cls-1" cx="49.19" cy="50.54" r="24.82"/>
      <circle class="cls-1" cx="49.19" cy="50.54" r="29.78"/>
      <path class="cls-2" d="m43.68,41.55c.06-.04.12-.07.17-.11.05-.03.11-.06.16-.09.08-.05.16-.09.24-.13.06-.03.12-.06.17-.09.05-.03.11-.05.16-.08.04-.02.08-.04.12-.06.06-.03.11-.06.17-.08.19-.09.38-.16.57-.24.05-.02.1-.04.14-.06.09-.03.18-.07.27-.1.04-.02.09-.03.13-.04.03-.01.05-.02.08-.03.04-.01.09-.03.13-.04.06-.02.11-.03.16-.05.06-.02.12-.03.18-.05.31-.08.62-.15.94-.2.05,0,.1-.02.15-.02.05-.01.1-.02.14-.02.07-.01.14-.02.21-.03.01,0,.02,0,.03,0,.06,0,.11-.01.16-.02.04,0,.07,0,.11-.01.06,0,.12,0,.17-.01h.03c.07,0,.13-.01.2-.01.09,0,.18,0,.28-.01h.24v-9.65c-11.16,0-20.21,9.05-20.21,20.21s9.05,20.21,20.21,20.21v-9.65h-.24c-.1,0-.19,0-.28-.01-.07,0-.13,0-.2-.01h-.03c-.06,0-.12,0-.17-.01-.04,0-.07,0-.11-.01-.06,0-.11-.01-.16-.02,0,0-.02,0-.03,0-.07,0-.14-.02-.21-.03-.05,0-.1-.01-.14-.02-.05,0-.1-.01-.15-.02-.32-.05-.63-.12-.94-.2-.06-.02-.12-.03-.18-.05-.05-.02-.11-.03-.16-.05-.04-.01-.09-.03-.13-.04-.03,0-.05-.02-.08-.03-.05-.01-.09-.03-.13-.04-.09-.03-.18-.06-.27-.1-.05-.02-.1-.03-.14-.05-.19-.07-.39-.15-.57-.24-.06-.03-.12-.05-.17-.08-.04-.02-.08-.04-.12-.06-.05-.03-.11-.05-.16-.08-.06-.03-.11-.06-.17-.09-.08-.04-.16-.09-.24-.13-.06-.03-.11-.06-.16-.09-.06-.04-.12-.07-.17-.11l-.89-.05-.85-.64.42-.27.96-.61h0l.15-.09c.1.08.19.15.3.22,1.52,1.1,3.39,1.75,5.41,1.75v-6.89c-1.33,0-2.42-1.08-2.42-2.42s1.08-2.41,2.42-2.41v-6.89c-2.02,0-3.89.65-5.41,1.75-.1.07-.2.15-.3.22l-.15-.09h0l-.96-.61-.42-.27.85-.64.89-.05v.02Zm-2.05,14.41c.07.1.15.2.22.3l-.09.15h0l-.61.96-.27.43-.64-.85-.05-.89c-.04-.06-.07-.12-.11-.17-.03-.05-.06-.11-.09-.16-.05-.08-.09-.16-.13-.24-.03-.06-.06-.12-.09-.17-.03-.05-.05-.1-.08-.15-.02-.04-.04-.08-.06-.12-.03-.06-.06-.11-.08-.17-.09-.19-.16-.38-.24-.57-.02-.05-.04-.09-.05-.14-.03-.09-.07-.18-.1-.27-.02-.05-.03-.09-.04-.13-.01-.03-.02-.05-.03-.08-.02-.04-.03-.08-.04-.13-.02-.06-.03-.11-.05-.16-.02-.06-.03-.12-.05-.17-.08-.31-.15-.62-.2-.94,0-.05-.02-.1-.02-.15s-.02-.1-.02-.15c-.01-.07-.02-.14-.03-.21v-.03c0-.06-.01-.11-.02-.17,0-.03,0-.07-.01-.11,0-.06-.01-.11-.01-.17v-.03c0-.07,0-.13-.01-.2,0-.09-.01-.18-.01-.28,0-.08,0-.16,0-.24s0-.16,0-.24c0-.1,0-.19.01-.28,0-.07,0-.13.01-.2v-.03c0-.06,0-.12.01-.17,0-.04,0-.07.01-.11,0-.06.01-.11.02-.16v-.03c.01-.07.02-.14.03-.21,0-.05.01-.1.02-.15s.02-.1.02-.15c.05-.32.12-.63.2-.94.02-.06.03-.12.05-.17.01-.06.03-.11.05-.16.01-.04.03-.09.04-.13,0-.03.02-.06.03-.08.01-.05.03-.09.04-.13.03-.09.06-.18.1-.27.02-.05.04-.1.05-.14.08-.19.15-.39.24-.57.03-.06.05-.11.08-.17.02-.04.04-.08.06-.12.03-.05.05-.11.08-.15.03-.06.06-.12.09-.17.04-.08.09-.16.13-.24.03-.06.06-.11.09-.16.04-.06.07-.12.11-.17l.05-.89.64-.85.27.43.61.96h0l.09.16c-.08.1-.15.19-.22.3-1.1,1.52-1.75,3.39-1.75,5.41s.65,3.89,1.75,5.42v-.02Z"/>
    </g>
  </g>
</svg>